<mxfile host="65bd71144e">
    <diagram id="V-kYW9GV2uXmBUqnUB78" name="PÃ¡gina-1">
        <mxGraphModel dx="2228" dy="1298" grid="0" gridSize="10" guides="0" tooltips="1" connect="1" arrows="1" fold="1" page="0" pageScale="1" pageWidth="827" pageHeight="1169" math="0" shadow="0">
            <root>
                <mxCell id="0"/>
                <mxCell id="1" parent="0"/>
                <mxCell id="67" value="" style="shape=image;verticalLabelPosition=bottom;labelBackgroundColor=default;verticalAlign=top;aspect=fixed;imageAspect=0;image=data:image/png,iVBORw0KGgoAAAANSUhEUgAAAiAAAAH2CAYAAABJBjezAAAAAXNSR0IArs4c6QAAAARnQU1BAACxjwv8YQUAAAAJcEhZcwAADsMAAA7DAcdvqGQAAABhaVRYdFNuaXBNZXRhZGF0YQAAAAAAeyJjbGlwUG9pbnRzIjpbeyJ4IjowLCJ5IjowfSx7IngiOjU0NCwieSI6MH0seyJ4Ijo1NDQsInkiOjUwMn0seyJ4IjowLCJ5Ijo1MDJ9XX0E9zEcAACMo0lEQVR4Xu3dCXwUVb43/B+igJB0QhIDAQLRhAwBRCMYDKtsam50eDSDXPGqoyMyozijdxzkEfXxUfFBxrk6IzqDuIx4xUGNvDjmxpHFjUUQDCIQhQQTAgRCCEmHIOL2nnPqVHdVb+mQpLuT/L5+SrrO6Vq6ulP1r7PU6TRgwICfQETUgcXFxcHhcKBr167o1KmTTiWi1sQAhIiIiELuDP0vERERUcgwACEiIqKQYwBCREREIccAhIiIiEKu05AhQ9gIlYiIiEKqU+/evVUAEh8fj51XLVeJRJFgyD+n4+jRo3qOqH2Q51r+rqktaO3fqi0AOX78uEokigRRUVE8UVO7wwCE2orW/q2yDQgRERGFHAMQIiIiCjkGIERERBRyDECIiIgo5BiAEBERUcgxACEiIqKQYwBCREREIccAhIiIiEKOAQgRERGFXIsGID+edbZ+ZX9NREQt56cu3fUr+2uitqT5AcgZnXEidQyqrvkjvo/tqxOhXlddsxDfpI0R72FBC4VGZnRnbLnYEdSUGdVZL0XUBohz7bfp43Fs+lNe59pj058UeeN4rqU2pVm/1voLpuLgfzyPo5fNAX74Dl2OlOgcqNedfvge1VPmoFK8R763cY9jddl2LPuVnvXnV8uwvWy1eDdFpMlTMTVFv/aUIvIm69etoOa74Ad3Phrke5OuvAfzbx6h5/wbcfN83HNlkp6j5huBW+bfg6vc19oW1JrrbnknLroGR3/1Cur+7T51rj2rao/OgXotz7V1/zYPR29Zqt4btBG3BPXbJmoNzQpAnBfPwA894tVrx9bX1b9W0UX56t/veyTAOXy6ek1h9MfVKNu+DDP1rE2LBXUX4eE/LMTCv/8NN3oGISk34m9/F3l/eFi8q3Uc/e5H9e/24z9g1pcnfE5fiDyp5ofggxVqLUm46p75uOV0roF9r8I9828RoUT713DJDa5zbY/Nr6l/rbpvMc6/P0SdgxMjr1evgzHi/FQcO3JAz1EoyBsafzcqgfLao2YFIGd8a4yee1ZNObrt36Zef5s4EN/F9Vevu+3bqvIk873U3n2GB2fNx/uYgHkv/NldEpIyFX9+YZ5IfR/zZz0o3tU6ZGzx/Y8/qR/21vrvkdb9DAx3dLZNvbqege9F7HFc/o+oDTDPn2ceLUOXfcZfz3e9f4bv4weo113KPlV5UqeT9erfxiUhKf4Yviqq1PMUCn3P6YmaQ76PeaC89qhZw/EfvvYvOBWfgoT3HsfZpetVWs2E3wI//Yi4Dxapedk+RFbRdDlSil5v3q3S/JNVMDmoemQYZrwgZuVd+QOj4DAyUfJGCib/QbxQ6YkofAOYPi3NyCxdjpRJ9xqv1Xqmw8hxYoO5PhvrezzX7d6mc+N8DLtuiXr9+Joy5FRtQFX2KGM5tU2412PZh5mvbce8xEIsx3RMT1VJ7m1ocn1mnsjF8pTJUEv7+HzW/ZCsy7rz9PF7YweGTtOfQe+T2p9s81N57IssGTGPo2Cuz7aM7fgGQZV2iIDjh3cx5+61mPjkQlzRWQQfv/w1lhrnyUad7nD8/3NhNH746Sdc9flxLB3cA4N7eLf1OHzqJ+R+HtyJWt6VzD7nA8x7aYual1UtV5uH69gnWPTEPyFPGTL90iMr8NWgq3FJT5WJT559Av/UN5hqPdkqQ3wBK1zrs7K9x2Pdrm2iFCvmvQi1tCwFuP0cfLUxDpeo5Yxtbsk012PdB1ntcCmOrPgKP7v6Ehi76N6Gotan84RjGxfhiXeMXO/PZ9kPybasO888fitwtf4M5j7J/bkarj8Bz30JtL+y6uBq15LGfhaNaPqxcM2HzukMcV5z/V/x/TnnIabgUXTd87FKc075T3Wudax+Ss3L9iGyiuasqhL0XHaHSgtMHoNh2P7sEVyqvzfr923/Pi3HTv/mPrAsV7piHl6sdL/f/3o8fjMusiRstv5d6fXJN9m+Z+/ffVD7INdx6REs+uAczNbrcq1f8vc5zeMzbzuG6d+p7XMF2ufzxbnzi2F634P5vfvK24IRvtYfQhE9HP8ZpxpwZu1BnL13o5qXPV9ODByvpp/O7KrSuu/dgDPrj6DTaZSAzJyciB2PpCAlRUxvlCBtmrWKIA3TL9pq5KXMx4ZzpmP7a7JyYSaWbZ8OiAuskec/+HC95xERVJjpIvioci07HzuGzMPqP6pMxZGdiK0qbzlKUqejrGy4bd76Xoj54Z/pdYltJE5zt2+RF/fp52zAfLWsmGSwYasesXw+sSyy77QvK0Ib3/vowKjLgadVnnufllw3TB1DOI1tWgMh/GGy2oZTBUEpRjAjgpJ5Q3a4968pwYdUthS//uUcvIsr8Oe3/iz+LwKRJgQfzSHbgZxzZif1+sZdDRjxqdM2yRKSmu+NqpqmG4Fh4lI6b948MS3CJ7gE11uKTHtmXwq8JvPEtKIGl9yuqwjESWn2oK+wSC0nJn/Bh+U9K750p18dL05I5rIrgKvvuUqc/kyp+BleVXmLxJ/iJbfPx/XW+eus7+2JS8QuvqrXteLoJZjtagMgToLiRFwjTnRqO+LzfTVotq16xPr5VpSk4mrbsj/DV8/qZT33Me1qDPvCyHPv0xa8KI/hMePkOs8WfJis+7sCpT0vQY7c5JYXMe/ZT8SpXV6U5lkuCk05Fm2HPNd2PnYAXUuMGz3Z8+XbQRPVZJ5rZWDS2SnOZMGWgPRNQtyxOFx6nT6+K0rRc9AI4/ioi7L7+7Qdu6Rz0NOy3KKNx5B6/i24Jaj1iOW8qhiMC/nPvlyk3iO/V/QW71HBB9T3K9Ntv7em7IPyM1wvgwKdl3qp/iyBPqd5fFQQovcrO8f4e/axz3F6nUm943As/lIjCDHXeZn60Yrfu/gN69+s/ffunYcrr8clR81zTeiDj1BoVgCCk8fhKHpTReFSQ8YU/NT5LPUH0TBItzSUEfpnb6g/oKZact1kd/Dwh63i8mglLpaui+ISzPhXCRxDJogL+BJUHAES+/ls6WD443CkiTt610X4hRmYIV7PfC3Hnq7Xm3aRO+xxblxulFKI/28t9Z63bddjG4WlDgydLPMfx/RsYMOfZ4gtaH9Yjg0YigmuBriWz/fC+9jhdCBxkJzRyy5zf/b3dzot23Va1utjn4L1ZRWcjkRXCVFbItuBnHlGJ8zu1xWPpp6N5wb1UNP1vbogSgQmMu/oqdOtfhEnClfwUIktX4qrp8Wxja+676i3FIqLayqGyXNP5REc63kO/Ld5TMII8f1+8pr7pLTlHfl6BHLE921NV+sVJ9QRrpWV4gN9Aa4s+kpdlG3ztu2KuzHrNt4TF/G0YeqkmnTlpUgtWWE50VXinx+Ik/X5+qQvWD/fli/Ejys+yTjpqmU/sHz27SJYsGzXsl7vfQrEur9bsF2cBOLkxcmvphyLNkSca3tsWe46134z5HLXufakeK2IvO6bXwv6XJuU+TP07FmDD8wLofyNqhxx7b/sEsDyXVuPnbzAwrJc5aEaeb+E7T4CSLmemhVmiYL8jfuoYhiRI8L4T/CqGUQe+CdefAe46tJUEZi6S0tsv7cm7IN6L77Cq+bfbZCfUwU5chvWEptjR6DeKvdZBAdm4KuO5dFKtW1ZjdLzqLvEVHK1sxkxDKnmOjwFymunmhWAnFVbgR6739dzQPT2t5H815+rKWpHgU4Fun+5GmfVef4sgiFLKspQpiZ3dYlP8oKpX947ySgVkMsZpSJ2M/slwlllD2dMXulyveck+2642UQlVeYeSlWosJXMyMDJDDI8GUGVmwOjHjCPS5mqJnEk+j469m02gQiYhslSGbWN02icqhucypKP313zO1US4rNhaiswe8K8feQ7HPz2J1wU3VlNMSL4SNAlIzXNaP8hSyTmz5+vJld1iU/ihGSWXoqT6hOyVEAt56vhZF+cI052lT7PPp7pcr09cU6g63CwDlSKtbt5NUiUJ2t90vdiOZEraVe7jst8VZwchyRfV3uPbTbFgSP2gK+jOPPYPnQrXq3nxDm1aAUSn7pcTWd//rZOBbrtek+VlARDXiiPbSx0X1zlBVddREdgWJqPtiH64ui5nLrj95z/coteD5B6tfmbmI1zPvC+k1cNYdX7LfqOwM96lmK7x3thucgHtw/Ge0s/sAQm8nOqF4E/p9ovn8fHyLP+3t1VtMY6P3nPveNy+2bQZd0vT555le+8ik/i5Tbab0PrZgUgjqK3gB+NHgWBdPrxe0TLkpIm0e0ZzCoYWZ2gc3walAjHkQp9578EM4bJZbyrUEz+Lthe6bb1Nk9aogNV+801JSLZ1t14JpLPcaJKF7sHZlSVGMdFT02tIgmGrJqR6/aqHmqEtf3Hr36HldtX4ne/moN3f5iAeSEIQsyeMD3P6oTnDnyL63Y24Nodx/HcwVOIE2lSjX5PU6lqEnmy0cWisujXP6OR3xHzjCKrDeRyXlUoJj8XbK90j/U2hypmdt919TzHYwcsJ93GyPpx87gYU+jbV7RX3T99PehzbXdZUtIo4zdkvfjae8TYg173Hb7nct6lGtYLriyRMqtQ5OSvGsFnw0uP0gD3/jVlH4yAwPq3Yg94An1O+36pAMESoKtqQ/OzmaUd8u/Jtk7736r92Nh551Xin08Y1Vbuqs72pXltQCztOo7kPICK37xtm45cMU/nyvc2sQrmV8niEm0pJZDVJvqlIQ05rtINEaxMS0PJZ54XYUt1jKWb6ZLVO+C0ttcQectkOwnPdHHJXXa5r/UGKTXH/UyTP67G9NQSbFVVMrJqxIFRv7Nc1P84HaOwA+97tVfxJJdNw/Q1ze8wG7BbrlWTqmMuwsOLdW8XGXyYbT7KZBCie8csbr1uuJL5fI8/p3fH/NRuqhGqfOjYgrSz8V8DjadGBvsMEE/yJOE+CRknPquerjpikSvrcPEVtlhOcIqlOsb97BBZvdDT1kZhxJXytXe6UWTtY71BEetS9dFSEq667hLx/RonY1X8LO7q3G0+RL4sBv/Cz1XDQi6L7Otb4Lkasm79NLvltmPWc23tzx9G1V3/sk21Vz2kc4M913qWuFkvuAdw5Fiqu61G36twvawGVHf1nsvJeesF3nrB9ViPi2xw6f6OZamWtU3GLfL9spTMbO8jjbgFV6eZ1WlN2AePgEC1p3Ktp7HPaS2BsQc5tn22kgF7yXZ3qYkqyTG3bw9GVBsXV+mGR56Fql5qp5rXBkT76YzO+CHW66vADz37iZD8NDfxwgw8vTFRVwGISVyxPNuA7MCduhpiOhI3ztftLWQjVL2MmGRjTWvvEUVWL6hGofp9DwwVJ2Ef6WXzkPgvjwabTVG6A/idXte0RGx4RPdyEe6dlILlR0Zhnt7PssurMH+YpU1IALKKSTa6NfZRTkE8vE1S7UyMbXqVCqk2KiKwEXmq2koGJ+b6xfHZYdn3wD7Dg3+c47vBqW6YOuePrdcNVyo/+SNkE4+ozp0wqedZeCClG/53ytm4NPZMlfbtj2JXxHtOx5aXVqAme7Yuer0e5xy1l4Ac23gEw8xi2ewarDDrpNXJRhdFq0Zv3j0BtrykG4Xq9119jlHy4JmuWvT7qOsOzjF8cmSY3pfZtnpsVU0kG9M1UmTuk6piko1uzWXFFNRdm25nIrfps1QoALHND2TDRLGtDvPshM5n4seeffSM249xyU0713q1N7BecMV38ppscKl/5+r3qkuzPJdTJWiWYNh2wfVYj5/vSVU1iJBa/b7Fto6oko0teFE2FjV/i6oxqv6baco+qOoW4zci12M08jb/9gJ8To+SQZFgC3Js+ywn/dv1LCVR23etR/w9HxU3APJvxOtvwyPPer6Qn93SnqQ9aVY3XJszzsDxwVeoh5Php5/g2Pwqor58T/xlnN6Jvq0zu+G2StVIB3G63XAlWdMyPPpMjI7pjHEiCJGF1+uPfYf1dT9gS/336jkgHY+88wxP11Nya3bXRnGu/eb8XPVwMnmu7bFxKc7eWdhhz7WByBIP2QvK3UuKmiKiu+HaiB9/1I7/Qe9ls9D71dsQtetd/kFQ2Mgalk+c3+NPFd9i6vbjuEZM8rVM4/PHqE0T59WzP/8n4v5+M+LFdPYXBTzX+hGozQWFX8sFIJqsfzzju2/0HBERtQZ5ru106oSeI2/eDVApsrRcFQxRC2tOFQxRpGrtYm2iltJ2qmCIiIiIgsQAhIiIiEKOAQgRERGFHAMQIiIiCjkGIERERBRyDECIiIgo5BiAEBERUcjxOSAUseRzQIiIqH1iAEJEREQhxyoYIiIiCjkGIERERBRyDECIiIgo5Fq9DUivfv3R/7yBSOzTDz/99BOqDu5Hxd49OHygQr+DiIia6sezznaNPG59TdRWdI6KinpIvujevTtOnTqlElvCWV26YuJVeZg8dRr6p6Wj85lnIsoRg58Ny8T5F2eje48oFYj8+OOPegkiIgrojM44cd5oHJtwJ7pU7UbnEzUq+bv4FBy9Yq4KQs6q3Q9xt6fSiSJZqwQgZ4pgY8Zv/hPJ5w3Epvffw7tv/Dc2f7AK2zZ+jB1bPsEP33+HzOxxSBt8PnZ9tplBSJBy71qIGzKq8f62QzolEuXiroW5iF/1CfbolEgVN3YWfve/emPfpj2o02mhFO7t+xaH8TN/h6v77sMnuyNnr05Hk47vRbfg4bvHo3sjv9vMmx/Gf17aHas+ad6v+3S++/oLpuLoZXPQkDEFZzoPwfHZGzpHnMhFIHIifQKcF16NExmTVVrXw1+pf/0K8WemljAI0/7zVoz4fgs+P/i9Tmu7WqUNyJgrfg5Hz55Y+pfH8cnaf+FEw3Ek9EpS04nj9Vi/6n9UXkxcPEZfdqVeiii0aj4uxBcYiVt/m4v+Oi2Uwr1932rw4XtfABffiruuipy9Oh2ReXwNp7Nvzotn4Ice8eq1Y+vr6l+r6KJ89e/3PRLgHD5dvabwkTeMD9+cqec8XHUXFv6fW+AnN4Av8c+PDyLl6jm48eJuOq3tavEARFa9ZGaPxQcF/x9qj1ZjyEVZ+M19j+KG385R02/mzcegCy7Cseoj6j0XivfKZYhCbx8K/vI8NskLwezLw3CRCvf2/SgvwFMvbFJByOzL2nIQEqHHV2n6vp3xrdFG76yacnTbv029/jZxIL6LM5butm+rypPM91L7c/LTpVi4ogwpIoi5ro0HIS3eCPXcnw3Gldf9Eov+770qsJh570Po0tUeYJz85gSef/z/4vvvv8Ps//M43v7vF1Be0khxoYgVb/k/12FQD2PuZPFrePClPrhr4UDsmfMUCoxkFXUOLJ2Dp/5pvB5Z9yVqMgahT8OXeO3/vgjc/DCuy9Bf2sEPMecpY0lZzOhKx0l8+Y8H8eJnetYXWXz574NgLnHwY2ObRroDmz4Gxo/to/KMfS1SryW5X+ONLLHch8BY/RnkslcBK8R+Gu+Wn/lq4J/GvhifR6/L3/ZVFchIOItrMCijj9e2XfR+lhXHiffJtRifuegC8zi4j4Ftu4rehiXf5+eR77TkQX8HReYxsnxv6vjHbFLfh89lxEtjPz5EWf/x+ndg/Z70Pn0s/jDH6uNiWTaw/rh89q0YjfV4ftG/xKXBN+t+mcfV2Cf7b0ykin0ZD/MjuL8bf5q+/ZAclwGXY/YvRwMbn8ei93zvlfm9fYjxlt+A5fP6/Z0K1jyxTx/uSxGX4xWu35ntb9Lyt2pf50F8aPkd+RbE8fX4TdrPB+5tNO3zttC+aYev/QtOxacg4b3HcXbpepVWM+G3wE8/Iu6DRWr+ROoYVU3T5Ugper15t0rzK5SfWd7x6/Oh17pd2/Txu9XnMUltE+71WPch8N+AZP+b9Dr32z5foGUteebx8zrXw3at8jwm9s/s/hy+zi+BdLv4Otz1bwNQ/j9P4bVPT+rUtqXFS0D6pw7E4QP7VI+X3v36ewUfUrezuyOxb7KrV0zyeWk6xx8j+EjZ9xrmzJkjJvFD0zmN6ZbhEBdDsYw84cqIsX8ZXlPrEJN5QpPpGTXiR6LT/yFO1v9+l/jZ+Zd5gbh4/0O//+OD6DPW+v4+GJ+6R6/rSyDjatxykZEjf3zjxU/d+BxzsCfV8kfRBIG33w2DYoztB/4R90GKOOHL971WDAz694W42jp/lVFEWFB6EN36Z7qLC68aiD4HN6k/wsCfJxcDXXmv4UsMwtWySPKzIpQ19MFAEWwZxLrFTdyXH8nvw88yWreMkcA/zc8tTk6270l8bnGcV+h9+bBuEK67K9C3aNqHfy16XlwCRuPW2ychUadaeX5O63G1/cbE3siTFcRJRb1XfP9O/T7/Gt9+WI5L+b+w6O/iQpd9K2ZP9r1XSp/xKug3P2/c2Ifdv3e/v1NxnP49xZ0nTsAjLSdl9Tdp+VuVFwejONtjOV8XOy/BHF8r8XuMsWz7oPh7th4vv5+3dfftjFMNOLP2IM7eu1HNy54vJwaOV9NPZxrn2e57N+DM+iPo1OQSkFb8zCr4gOv8+lqx/oto9LzrPo8Zv52FWGieV73OeYH+BuT1YzzixEVd5YnJ/XvSLJ/Peu4zl3X/PXvuo69zfRFe/L/yGBqBhOcxKXrpQbX/6kZALCeDj0DnF39Ofvoanvqfcgz4N3Ec9d9bW9PiAUinMzrrV0In/a8PZ5xhbFoGIZ3POku99uuiTHGh/BIrXF9KAV4M4guSThZ/6P7yDzhxsofD44IvfmAX9RFRqOVH8tmL2CT+AI0LpLygiB++nu7SF82il55yR8j/3CNiXCsR8ZrBjbrYdoOjr5zJxfgM80JrKHjqQ49lgxN4+yJKt2xD/rjN/bfXOx7EJn0ciz4vE0t5zJvHSq7fctxyU8XxKpXrb+zzFOAp8ziIS3PRPjNKN17HJeg9Ud9vGYrU5/G3jOFk8QrL5/4QX9oCGfG5/+m+sy/46Euc7DPQcrIIwpmWi6BFUXUNENPLcuzcbL8xFZx96L47FL+lF83XwfCz/XAfF319883j82462A0pFxhHyt/vNPPmka4gVhHLrSg2P5P+mxRprn2WQXCM/AUehNP193Qa/B5fK3EBecq+bRu/n7eV9+3kcTiK3lQlHpJsjPpT57NU8NEwyGh4KvNk41QZrDRN631mdb6wnF+LXnpRvG7svCtZzmPqt+M5H4delguv37+Bq8aLcN16/TD+BmC9qbJ8Ptu5Ty/7oeuzy/O5dbv+zvVNE+j80qjOXdDIFTRitXgAcuTgfpyT1E+9Pnqo0mcPlx9/+AHVhyvV68Q+fcUyB9Rrv/o60K3usOuP47SJH/iDsrhMXYytUexJOD124WCdeYEUJ34dlcrJ9UcolnYHJoFKMYpw2NbMvQaHzT+SZgl2+/IPXkTc5mcIpujdSwH2WAKygX0OYo/rOAT+PNbgx1rsKP/IzRNA5gUp4kZQXFSNLL/LePM8th4+Oyz2LhhGMfj4Mzfh+b8UoEqn2vzzKby2LwXXyf0K0HgsMyEOJ+s8Tt6NCmL7QsiPi6yC+dV4nPnZ83iqwN9eeZN/O27+f6eNHSd1x2suK4u41Qla3l3Kaj4j3bwhCCy442sj79qt2w7A/Xlbd9/Oqq1Aj93v6zkgevvbSP7rz9UUtcN1GUf3L1fjrDrj/NokrfKZM9Erxvv8agh03m0uj78Bz+uH/BvwuhnVPP8+egwy/u7VJKtW/AUZjfzdBRLk+cVKVcH8fCCq/rkQS1vkmhJ6LR6AVFUeUNUusvFpw/F6rFn5Bk6ddJ+Q5OtVK5bjm4bjGDriEtVO5PDBIB5KdrrRoSfxRasLsQxEXF+09w+qT0w31FT7u1TLk6psA2EGJk0pxbBH7biol0hpquZs//TIO4a4VBGyqTv8Pe67lgCfR14wVbsOHfy85rrDFeTdTl0KMi8yql/KPjeOdcBlvAQ6uQlyXxqcjRwb9wXgb+JOJlAdvBnIqRNFgCoM4049WMFtP+THxQw+Pv2bCLoDHRVv7r+dwL9Tz+Mkl3MTd7uu5fTkCp7NmwJ54XNX9/gW/PfrIi/EFzndVbWyuDwA+7mi9fbNUfSWvHvTc/51+vF7RMuSkqZo1c/s74Ld1PNuU3j8DXheP4I6N2gH3VUj5uS+EW05wZ5fJFfw8fZCvNhG239ILR6AVB86iL1f7sSEq65R3Wzlcz/+On8eXnlaRGl/fly93lX0KWJ6xmP8v/0vlOz6AkcPN/JcC1ncJqJQd513Lm5Rr2Xxn6XITvwRmY14GuWqjjGKs231iRfdgpG2u3wP6iJrufOXF2X9MjBZktANg8a5f1y549wN9IyoXF6UjdnMm6+GuyGTxWlvvxlk8WLMQNyVGmepcgn8eeTJxH2XKwMN+117QWkNUsaNR0qduyi+sWW6ZYx3fU/q+LiqbiTrvmTilqsG2UpWvJ3GxUkIVFyqim/7jHffCYrf0i1+74SD335Ij0tTg48+I90XHfU3qP92AvxOjeNkWU79zenX6m/SWg/vT2PF/6f3/cpSLOsds6xCsPH3eW1aft+sPVuO5DyAit+8bZuOXDFP58r3Nq0KpsU/swxo1A2e9/k18+ZbxOvTOO82wu/fgNf1wzhPBT43aHJZ699zM8hGprZ2J36Y5xd/mhJ8WLepSlDNwMb1/YTXmfrfFiPbdBS+/t+YcfvduP6O3+O9/NdUkFF9yF0kmDZkGC6/5jocd9biX2++qlMDkRE2xN3UdaoITJIth6UXPxuPhbL4b6xM/FA1nhqocnyQB91VtCjvsB4UaxZE5Kl6xyxciPEqz09LbpO4e18he4uY7z94UCwRnIKnXkOv/yM/h97Sx+KusI+5xwX4sHgkrvt38Xn+XexhsazHHKnzLJqx/dMnTxhXq4aBH7oubIE/j2wPMtD1nZ0Uu+nxxyL+uGvkch8/pRMaX+ZksVPki+Oj5uT3ZK1SEt9p3UCxrJGr7lwCtBWKm/xzjAzyAqBKIFzVHu7tepym1XfzIGTreP2bVL8zleOlKdsP3XGJw6SrRjat5ONgmfjbMn6zxufVf1eBfqfyOPUVf4/6t656wRSfhPlrl3eDfcTJUy5r/MWLxVVvAVmq4q7KUb0F/FywmnJ8rYpeWoFM629a7LeNv88rLn+tvW/ST2d0xg+xSXrO7Yee/WQjPFcbkaZo8c9suWDL79J2fpWNL32lq99tgPNuI/z/DXhfP4LpZWIQy/6jl+XvWQiyF5ksNR7578YxlZ/LRrZRueg647OL3/WHCd7nF9+G4urJbb/kw9RqY8HIqpXx/zZVPXb925PfqGeCdO58JhyxPdGlWzds37QeHxW+je++a7nHv7dJsiuX+GN1d72NXPIiLHvJBPeHGwx58rJ3ow7E6Grn78RhFvdbu891DOE8Lq6qIXEhbS75Ocwu9NSIM87A8cFXqIeTyceuOza/iqgv3wM66FOlA/8NUKRq8SoY03envsXq/+91vPbXp/Dph2tQV3MUR6sOYdMHq0Tak1jz9psMPoIpDo8YssdLjauXTEuQPSHirD1IqOPyW6xPPolAI2rH/6D3slno/eptiNr1bocNPqjtarUAxHRofzk+/WgNCv7xMv5n+VJs+XitSGtqoWP7ISN1ozW1nK7DoLoPIz5qN/Z5vKoqaZFgQZb6iM8vq3OsXeOoA9G/Adffwtg4fPmPFvp9dSCyrQdHwaW2qtWH4yciIiLy1OolIERERESeGIAQERFRyNmqYGTXq06dAjw/vYOJi4tDTU1wz9IkIiKi4NkCkKoq40HADEIMiYmJrmPSVM1ZloiIqL2zBSBHjx5l8GHRp08f7wfyBKk5yxIREbV3tgCktrZWJZIhOTkZFRVBjFPjQ3OWJSIiau9sAYjT6VSJZBgwYADKy8v1XNM0Z1kiIqL2zhaA1NfXq0QypKSkoKysTM81TXOWbR/mo+8Lv0BC/ScovusmdPRn3hJ1dFGPPYHzBhivT2xdjJL/2mPMUIdlC0BC+iAyRzYm5mQgWs/CWYy1hRthDYGih0zDxKHmOyqxeXmh+H/onHvuufj666/1XNM0Z9mI0OdhDPlVHCoemY3TKxd7HP2WThcByAbsumNGCAOQmUh4Zh66rU/B/mU6qSOY8irunJuIdZOmnMZj/SP4mM1YjQtHV4X4NxRYlzmPICN9D4pvXeraJ3faJ3A8fwf6OnSGxYktz2DPQiBB5mOre/mb7sYFuSmoLvgdDrys58ceta3fRb/Xrgyl1z6JkJy9x92IgbPjUelje1EL/4xUj10zPvNuPWeQ70uq9k4Pq0DHnFpN+J4D4tyItctfxEo9ba7LwMRR6TpT6Jsjgo/jIujQ+RVJyMrJdgcsFOHuxf4bU7Atgi4cRK1vN6pv/R0+v1ZMBbIEVAYHxrxxwU1BV4cTJxCPLur94oI8JA4ngo3yX37Sx7pDFHwEQQYcav9sn5nIt/CVgHhQpR0xn2PlBvmDjUd6zlT027cSa3ceNd6gSkz6YX/hG9gdoqYqkVAC0vXyN3FhVg89BxwuyEGZHtW0sbw0PIOKhDnIOM9Is+YDE9DrzjlIidWzKEWxKu24FSkP5KGXTnVrQNkLv8DhIDr2dLl7OwZn6lvAfcux7f57jdeKLBkZjtrFVUiaNQpq762lJPKOd/BW7Dqa41pHQ9F87HlyiXjlfaeuthVfqLYR9WgZ0vob6Vbu5VvZ7avwQF6annFiy4ILULhKvl6AG9ZMB/LPxSvPqkzBM20mct66DyNiVKb4Opbjkdvm6hn53uHYsaAKY+aOgvrK6jZgyTXX45Bej+c9sX37/gV1zOR3coX5uYDqdy0lJWYJhZgfYH6ftu9cl4TpOYMT+xcPQ/V68dK2bkv66GUYaK7PpgQlN04O8oL773hsVo772OwvxIyCf+gZIeNhLBun6wSEEzv+hlvXb9Rz/gUuAbHcQavSCvFV2gKEy9D39SH4dkscuh5+AAdeFvMLxdeJXHepQDB34z7XbezHALyCyoQ7XKURrpIVpCPh+RuApR+j6+xc/Z1YS0/kvo3Ft4seQPVHKsFSWpEi8sxlrJw4oN8fbMmG3/fZSnfc67Ues74jHCLIKcCx9Fz0FYGc+z3ys1lKnsoK8Pmc94zXcr1DdqK4eiwyxPKSq2RGlegMR3eVauVZqnQTnsj/Oc4text5v1cHk1pAhDwJNR5J/aNRWW7+IOMR66jH/godfIgfV5aqrolGbAcqAjECjEMiMMjBJj25AoiLFtnzCkrRK/dN9Oqj84WorDlIrl6o8rdtbkCv0Q+jq87revkdSKnJd613k6uq5XmUyfkXPhV/fDIoMfODCz6kU08Ow7YbU7CryF+kmIa0WYmolCUkNy5HdfQoJM7QWVL/6UZQIfMXbwAy70TCaJ0XwPH75frmY3+9cZFUy4spJMGHrALJSxQX/XPxyCQx5VdhxNxVyFSZc7GjVNz7XrhAzSlTkkUgUYIdOiDJfE4EH9Ui6JDLTnoMWxKm485HZxqZShquVFUsMn85ymJGYcrtMn0uXpFpCzagVqzvHZUvp8aDD6nxYyYCCBEQmunb3i1BwhWrEaVzFfH9DTa/T/F9NfTPcX1fUY+K4EMGJGaeSKt+1xJkXJEogg5z3VXoN0uve/0M7NHbUwGqfK2mYIMP4Prcwdi5+CbMUFMhyvrl4LEMnSmDk3HnYNtbZv5NQQUfLeXkJ3vQfchl4ro2BNipL5QtpPuIO9QFXpZAFG9xImHsja7SFnEnh76zZZBhlFCUlqUgdaHYj0a9hwOyVGPRVpywlOp8fq07WGkWGQjkxomAQq+3oEbs592W35kIgBI+ViU/3UfkouvHct8d6HmJUWoetVAEHzUi6FD79AwOxOVi4BxLiXpKLjLk8mrdxjrUuj9aij06Dc6tKFbLyylySpXas/AGIH1zMHX6LWKaigwUo/iATneRJSEyfwywTlbDiB9abLzOa+9uRVJWDxwu8NUGY4IIJlJxfHO+O++z2Sje2wMJ50/QCcLefOz81/vq5bdf7MLxWHHXpea08y4Up6NwkHe65oXkXtTuA87uZbnYyguOeQe9/n0cq3egm/tGtdX86ukCFBR4Tq/joYn6DQH0Hj8U2LjIfdF/9nVsqUvDUBUkAEVviAAhdbgOSMz3v67bayzA0FQRPLhKPJagcHUJYgdfit46RR6zLQvM9h1GQBPbxxqgtJZ7sd9agrVsK6qRiG62gNDyfdq+r8cR218EHLus36X7u+6SJY5B0dNGMCItWy4CoTTEWoPRZni14EG8ql8D/8DO/UBiXLael7ojPd063wSO4ch4/c+4QE/mnXWjxvU27rY/+gTH4oagr4g/6lr6hlrc/ZulC6dEoHPC4a7ukaoL3EHD8Z3iwhvX25bfHDL4MY+JnPrepDMa0eWSgcCWV9zBzMsFOOBMQYxreScOvKMDNREoHLEds8sQkyKCIrPEQ1aDfSyCjPRL3J9LBhdm/ss7xW84Dt3GGbPBeRn35OWx9KOFhTcAOVDoagOycnssJk7PQZLOErdVyMiZitjtug3IgXhEx4g/mFqzVKSd69MfPcT94jeH9LwPDUeM4OJ0fPuvX4iAJRUZDxRipJiGXG4JXCKQLUBpJS/cmYvcXM/pWjy0Vr8hgKREB2Kz78MDa77Wk6U6RVr1AUpcAclMZA4GSj7UpQyqNCQNV7qWFZOrKif8ZDXNhUvNybM6RajfAacZRIjgqfoOs4qmBCdFwJEw+HGVg9ET0DPaiWObjc/dJd6BHpnzLOueh34tWcIpq1hmveyacvvpdOUfuO+tz4Ghv9b5D+N6nRMU292yUdLQNLvh3B0njuVOFbidqm7q8i3II0BpDs82IEbVT+O6JDg8ghdLdUpjVFCXglRL4OPdUJciUYRUwQgHSlGJKESrH91R1Iq/x/odK0XgoXIFo1qm1tpNpj07uE8VVwfS4xxr0DABZ8fpl0FyvmpWr+SjIWtORAch3xxu/WqU5pSASLUbH9PVH+7J3eZjCYp2OY1qmCmXinBjB4psVSTW6hM9qTYe4SXb2KT1l+0uzCqQ5eLuMVhLcPKY+Kf/dCPAmDXKXuIhyLYmxnrdU4v0xDnnP/H8uAEo+8hdxVKwX+eZjvwXbtV5z+w4B7lNDUJOl/OoattxauED7nYKQveEMF009f6Em2fw0pQAxt0g1zKxR0vEi5gAJHrIBUhy7keluhE4isp99YgeOhHpOgq253cEz6Nmbw+k5Lnbbbi9j9rdDYjKynNXoVyUh5TYUlToKpemKcU3ng/BVQFQKuIu0vNh0uXuO8VdcQlqLRclV2nIjNXuxq4uxkXPddfdBM0pASnaVoLY7NnImaITfDj04Q7UJiQjc/xQ1K62BBe6dOTK5yxtRJpqVQVqRVhjVvl4GT8PS/Pzkf/SPIzVSW6NHLP6KteJXLXp0K8bNXoZkmzBi709zvFdJejRWPue8io0RA+FI4g2QN5OoNaMljIe9igBsVtfc0S/6kguQ9/cFJzY/YnlQu1A13ONV7JBq2e3Wnx0SBxVa9VIy5BVQd1H3ICEJlWLaLI6yxlsWxY/vj6KE46BcPjdvmyE6u/vh05X+AIQV/sPY5rYf7/tOSD1O9/A2h3ivKHagHjndwSyhKK45mJcqKtJ5JSiAwJZhbJtc29XFcrI3N4oeyHYZ3bIHjDudY58YI5qkGq2FzE8jzLVsNV8j72Bq3+yp4pRpK6CA/Pu99EmBASyUaMulh+cWWXp9bAE1ctko1RdbD9a5Plo6Hr8fnGXbm5XTAPvDkFbiWen6IanlmqUNWYjVG3V9VhXPQpXZle5Gp8alqDwGqPhqXvZrz0aoTZmLl7JLxEBq7n85wGDIU/+jtmpJwtVI2Hz+0g6uiH4EpD1M8SNRBrS9LKe68ayybrhqTXfo4GrWEd5ESzv8cj358h/4f393XHhNboKJrMW26wlIB7VM8tUg1Rrm5FWcm68jx4XPni0Mbnged2QVPbocFUxmNUO1saajUvINdebi+6253S8hwMFZa582Wiz1OtZivb3XPD6I7agwbMNiLshqOzJYqTJoMZ8nytfdi9WDU/dywb/uWTXZ6PhqXtZ67aD8NFSlG8RlyXX9j23vVcEOeIfx88wbryRQs0XMd1wI1GHfhBZuJjdOvn8kLZPdaWVvWMsPVdU2lAcM7vbUggZXVVlD5LgqzbIdNOf8vHzuM/w1M3z8bFOo+aJnDYgRNS+DEj0eo6H7PnSA1U4yeCD2oqbn0B+PoOP1sAAhIhax7LJKPGogrFXqRG1AS/dgzzZBZfBR4tjFUwArIIhIiJqHSwBISIiopBjAEJEREQhxwCEiIiIQo4BCBEREYUcAxAiIiIKOQYg1IE8jn6uLqHbgxriP6LIh3jJfW/KU2Xbsimv4k7Xk2E9nipLRG1e+AIQRzYmWh7FPjUnG74GwkwaJfOnucaEoRDp8zCGPLAoTMP1+2I84t3XY9XlaK3BPW79XuxXY5I0ZUA1MgKfIB+B3pJWXY+n5aB8CzbAc6giImr7wheAODdirTkUvxxuvy4DE0dZn92fjiwRmCTXFXeo8V/InyVwljjRI22Cx9DhjyO2v3uI93Zt/QzskQHU/ffqBCKititiqmCO19nDjKRRF6C2UAQmFTqhg+p6+ZuWQePcg9FJjeXJ4fUd1/vO9x6QziztuBUpcv5XF4s73lT3YHdNGoxOVm9Yqzs8756teZbSC3932nJ8mGeWAZt3eI+MOmM4Eup3wOl6tLd93U2prpBDz9ve77U/7oH2mrru5pKlPOZ2vUp75PER+6L23+s9jX0fMt1eHeUuUdLLzBqFHrA+0TTI6qvbV3lXnXimqXmzmuVr3OBvNF8vM5Hzlv39vR/9HA/YRhRegBss6/Y1uN/YuUuRn78U8zjAGFHIRUgAEo+k/tGoLDdHZQQqN7yB3R1m6H3fZBBxYdYhFD+Sg016KvtMZ160yJ6nRq61BwlRWXOQXL1Q5W/b3IBeo91D+3e9/A41Aq653k2PmCPpPo8yOf/CpziOUsu2f4HDB9UbguBAv1k5OLlYVnfMx/76NCTZLojTcXbRfD1E+3J8kzkP/WaIrPUV+AaJ6Obv4rb+fRyrd6BnlvtCEjU4DQ0l77sGrot6dDhq9dDvqqql/3Rj3S0g6lGxn8eW63WLz9VzepBVP813/H7jM5Xs0wmexOccHF9o7Nu7cpj76ZYgw/p9yHWIYCKo4ElXWS3egAZYh9UPciC5Z7eiTAQuQ61BQp9EoHQritScCBAu3IpHZDWLnNRovi3V1kMGKNMRu/Exvf7lqM2+rwkBDhG1tvAGIK4h+aciA8UoPqDTSbgVSVk9cLjA1xD7E0QwkYrjm/PdeZ/NRvHeHkg4f4JOEPa6h9j/9otdOB4b5wpAlPMubLU2HtXvmhcpXXUSn6bSMXoCemIDyp80q0zuRVWREwmD5QWxBCfNgjBL6UOXXuKidaxCBBme1TDe1S/H77eOM3IvasUF++xeLREkyG2Ji7Cr+mOJ+HziQu9VJeTbr54uQEGB5/Q6Hpqo39Bc9Ruwy9y3ZVtR7RHIub8PcYx2lQA9k4Pa7+aZi1UbnUi50CyVmInMwcCWN+bq+bl45TbztaAClkT0nqLnm2PKpSL02YA37jd/G577Yvh4wY3Iy7sR8z/UCUQUMuENQA4UutqArNwei4nTc5Ckszq8Pv3RQ9x3fnNIz/vQcMQILk7Ht//6hQhY3FUssromJOQIqdGjMNhVnC8HKDPDoCU4ecyBbgPkqKmJ+EYED+ZFtOGouGgKp6zVMF7VL4KsjrCsO62/Tm+u0ck421YNIaYrdFAVhBfuzEVurud0LR5aq98QatGJIQhAgEMf7kBt6nCjVEMFBTtQtEplKZnPuatIHlgzHSk6vdkGJiI2ZhRmWqpgZmazJTtRJImYNiA4UIpKcb8bzXOE4eA+EX4E1uMca9AwAWfH6ZdBcr5qVq/koyFrTuiCEHm37irO15O+ez911Imzez0Oh7i21xZWoVvWTHSJd+Cbw/pO1lIN41n9okpNRFBQ/a57vX6rLE6LtRpCT3fMcG8/gFYvAWmq+qqg9rvZVn2AkjqjGqb3+KHArg9gxtSyzcaVqSV4x6yCmbQcZTqvRdRtwBLXuvVkLXEhorCKmAAkesgFSHLuR2UHb/fh9jxq9vZASp673Ybb+6jd3YCorDx3FcpFeUiJLUWFrnJpmlJ849nPUQVAqYizNVxtAbJ6IHoUBgRsO5GMbse24vj6CiBtOmJ7OnGyXGe5qmHuRJLP3i+W985Y3fQSEFfVxOPopxpfairwCbbthLfIKQERn0sEabbATfyKZKmTJBuyeh0z1TYnDbF+29KMxbyX8v005lyCol1OxPZZgMzBVVjnqhLR6qrEjYch87mml4DE9tG/o9tX2Us4ZHVOzChM89Hw1MpohJqPJ27WCUQUMuEbjl+2/xhjqXBxFmNt4UZXl9voIdMwcajnk0HqUVwYusapkTAcv+zFknGenhEOF7gbohqNVM1LZAPKXnA3FFV5Ce9i06vPGwnyuR6/ikOFamwqe8DMEQGLkaXszXe/13TRIozMTdUz9vX7JxuZzkO39SnYv8xIkRc11UDS1X5C9q6YjgQ9J8lSC/V+WYWiSzHkvOyRkSbbXtxoadshSzpkcCBLUjxKIIz36xmRv//YKPQ8Oh97ZJsTvW47J/YvNttHGPveT/3sRPq7O9DzikRUurZtzTc0FOl1tyrv4yW5ti0/1+gqy7GQ75eNTuXnCmKfrcdl33KUYDqSzGNmsh076zGTZAByFy5yNOCzv/hqTyF7o4jgonS5RwmETtdztRs3oDZ7KKoXXIDCVUYJiXe1iSwxmWI0YpUPKps7CupnXLcB7+waiisTCy3bsK9fKss/F688q2ekm59A/pXnioy3kff7l3UiEYVC+AKQNiASAhCi5vEOCMli/Dws/e1FqHonD/e8pNOIKCQipw0IEVHI6GojBh9EYcMAhIg6oI8x/+Y85OUx+CAKFwYgRO3aElTfweoXIoo8DECIiIgo5BiAEBERUcgxACEiIqKQYwBCREREIccAhIiIiEKOAUhbJZ9Seqevx7TbySepjnzAPkw/tYDhq3HyrmVQT/GLcPJJtK4B9E7zUfKB/HhDGb4frmeIiIIUvgDEkY2Jaih+PeVkw/7g9Xik51jyR6Xr9I5EPjK9ECktPR4L+Xf7bKx5awYm6Vmf+izDd1cl4qzXZ6CTTmo98rHqZejnNQ6LfMKpr3Rvp54cpgbO21XUOmMYnLFmA366ajt+YJBLRE0QvgDEuRFrzaH4xbS5LgMTLUFG9JCJ6Ldvpc5fh8rkMZg4JF7nUrCMEW+DGcOFgjMTP1w7Ctj0NDqH5Jjei9p9QMJgj5KL0RPQM7oEtZHwfI+DM3DWP6vw3bVto0SIiCJDxIwFowafi/kcKzfs1il2SaNuQRbW+c1vDeEcC8ZzEDrT8c0LsVOOeCurYEbXoHj3YGToAelceZIafO5iRKmZUhSrQeisPAek8/Ue3+QgYdOwCOsS78OVeqw6+yBfM5Hz1n0YEaNn5bDo11yvhmE3lt2B2uxRSJEDi+UDV+alic1bBiq7fRUekGmKE1v04GTBmYTFa66Aa8i5uiI8ds0yrNGzqoQjTw/9inpsWvAw7pPrnjIDK+dm6uNlVY43Ji3C3/ScqnoZW4WuT3mUfsjB2gZvxa6jORicaQyg5jnomxqUT+cZQ/sbg9zJAfS8Bn+zjuECORCcWMIyIJ/XAH8eA+25Bvez8B4UULIOXGekeO1PwIHoTCIwu2sefvo4BWdu1UkuN+GJ/J/jXA74RkQWEdIGJB5J/aNRWR664CLSGSUXC1FWa4yAu+kRY3IFGFLsxciQI97KvIJS+/D8Bx/ETpn+wqfuUWQtul5+B1Jq8l3r3RRk8GGKzb4PY6oewyOTzsWSjU6kTH4VvXVe70evBf56rsp7ZNJj2AL7sOixasRTkV6XhisnV2HJgg2oTR2OTJkpRzjNSxRBh14+vwoj5q4y8oLw6+euQO+NizFp0h+MyRp8yCAjL04EHTovvwYj587Gr2XeqmWYqtLKjaDFXN4afAg/Dk5D56/e91310n+6cYG/MQXb3i1Bj8zp7oBGXMQHZ1aJIELkqeqQRKQ9s0wN/X/qqBM94t3Bg5dlW1FtGw5/JhxpDlTvsowuLIIftV297YQrVvsIpk6DHHn4ikQRdJjrrkK/Wb7WvQRnfOXE954lNUREfoQ3AJFD8qs2HlORgWIUH9DpnsT7spLrUbyDAYpN7afYZg6h/9k2HBYhwNlNqYc/70J3wNJUpcvx9P3GHfKhD3egNiYRSWpOzN8/xVJisQRFu5yITTSH9RdKC135ZauNkhFT7/FDgY2L3Ms/+7oKVIberueDEDU4y2cbjknjxUV+4zKjxEN6VgRvdQOQGfS6Z+KneKBTlbWkwqJ+A3aZpQsqaEhEt9HGbJQIXKrfdZdgnHqyENXRQ+EQ+acOV+lUo/Rh4N0yWEtDt2gnTop4yKsaxqv65V7st5ZqeGy7Obpkie+j6Gl3icey5dhfbw2G3DpVic8Rn+yjGuZl3JOXx9IPIrIJbwByoNDVBmTl9lhMnJ7juoi5yMaqY5JQue4N7G6dNnQd0rf/+gWK96Yi4wHZS6YQQy6foHNagCzFWPM1HtDTzOzgw5ykRIcqXTGXfWCNpSonCH+7bTE2IRP3rfkj1ohpsSW4GJgYjajsWSrdmGZhZBPWLYOCn1xVVk0xE916igDiCt0TRU3TkaBzUV6Fhp7J6ILHEYsSfOMqDanCSX3hP76rBOg/XJU8yKCgx76ttpItGbj4XHczdYl3oEfmPMu656GfvbW4W2UVOscmsh0IEQUlQqpghAOlqBSn12jrtUoGHzkZwI6V2OyvdIROm1HNI6d8NGTNaaEgZAFumDsK2GhUz5hVNE1Ra1nWnNztSxpTgvuu0dUnC4rQO88ehBy3Vs/oaVYT1t2pVr88DbJdhquaRE26LcX6CnwTnYguM4bj7KPLUQsRaIxOxtn1VThlLGqphvGsfjHadqT1l21KzPUuF+9tObIti32//Qxul5SIH2qrQtAziIjag4gJQKKHXIAk535UmtcqS/CxdudRndjRvI9vaoBeGbfq+dZSim98XFhv+lM+8vPz8cTNOqEJag/qaoopr2JaE0pAiraVIDZ7NnKm6ARfxs/DUrFf+S/Nw1id5NOqw7bqnb9tK0dU9gw8Fmjde2pwPCYNk3y+Zwk6iZ/iT4nu9izBWQJnibPRdhndegHHNi/BqaOJiM1JRI9jFe4AxKyGGX2n794vlmAl6tGmloA40E23yzWCGeO1JEteemTeKbarEwL4KTEROFrhIwCRjVCD+L6IqEMJXwDiav9hTBP778fawo2o19lJQzPUc0Gih061vG8a0k+70ULb5Hw1H4fPy1PVJE2pKul6+ZvGMqonjFnVski3+TCeL2Kuc+QDc1SDVFsD19M2F6tko9Q8XYUyNxElTSkBeXaKbnhqVsHIKdhGqLIHjFm9IiejQaqrhOPZRbrhqfU9uhGqadUy/GUjLO+x558hLsg/jJyOH/V8sOSzOFTDU1dVhph0I1RZsnKyPg390qrgXC/eu3kHzu6fhoajJSrXpKphoh1e1S9Ge5JRGKzXm3R0g6UExHheiExXPXD6Tze27Xog2b3Yrxqt6vfEF6JEBDouyybrhqdGvjH5CqRm4sefOXCmpWTGbS+OyZ+A42cYN95IISKKmG64kSic3XApUhndTX/8aj7OKvTTGLUj8tc9WZOlaT+P+wxP3TwfH+s0IurYIqcNCFGbsASdX98AjLyTT/40BXoy7M1PqGo8Bh9E5IklIAGwBIT8auSOvyORY8H8uMvXA8iIiPxjCQjR6dg6Gd0YfChnvMLgg4iajgEIERERhRwDkFbC6hciIiL/GIAQERFRyDEAISIiopBjAEJEREQhxwCkVd2Kv15diFVi+iufGUFEROQSvueA6LFeXANrOottj2JXj2ofYxkbt2IdVm4I7XD8LfYsj+iHsWJyHN5dMRuLdRIREVFHFjEPIksadQuy4C/IiEd6zlT02xfagela7mFiEzB/8h3Apl9gnivCIiIi6rgipgrmeF2gK/NR1Nfpl0RERNTmRUgAEo+k/tGoLPdXxZKO5OR67K/oqMPyExERtS/hDUBcQ/JPRQaKUXxAp2vRQ6bp/DFIqvgcu5swqntkeR/7nD0wuG9wQ+kTERG1d5EzGJ1qdApsXl6ISp1kJYORif332xuqtrKWHlBuVlYhftG3AZtXsy0IERF1bJHTDfdAqQg8ohDt0PMe6iv2o94RK97RFslGqIW4cH8Opqxg8EFERBQxAUj0kAuQ5NyPSj/VLElDMxBdIYOUtqoBNQw8iIiIlPBVwXg+58PjOSCqymWo6ykhbfs5IOyGS0REZBM5bUAiEAMQIiKi1hE5bUDas+gJGBx9CPsYfBARESkMQFqVHgtm8sVAcT4fw05ERKSxCiaAlu6GS0RERAaWgBAREVHIMQAhIiKikGMAQkRERCHHAISIiIhCjgEIERERhRwDECIiIgq58HXDdWRjYk4GXA9b93gUu1s80nOmIsNRj+LCN0I6JD+74RIREbWO8JWAODdi7fIXsVJPm+syMHFUus50ix4yERl1lW14EDoiIiLyFDFVMMfrfDyn3JGNi4cCxTtKdQIRERG1BxESgMQjqX80Ksuto93GI310BrBjbUirXYiIiKj1hTcAkUPyT79FTFORgWIUH9DpUt8slfbpzqM6gYiIiNqL8AYgBwpdbUBWbo/FxOk5SFIZ6cgaE4Xi9b4apRIREVFb1zkqKuoh+aJ79+44deqUSgyL+jMQM7Q/fqrYhaMJWRjRPx7nDMzEoKFy6o9odDXmYxrwVUVoSkV69uyJ2tpaPUdEREQtJWJGw40eMg0T++/30xU3HVnTL0Atu+ESERG1C+GrgnG1/zAm/8EHERERtTcRUwISiVgCQkRE1Doi5jkgRERE1HEwACEiIqKQYwBCREREIccAhIiIiEKOAQgRERGFHAMQIiIiCjkGIERERBRyDECIiIgo5BiAtKbbZ2PNmtn4tZ5tVVNmYGWothVKHp9r0qMPimP6R2N6bpJObQ234q9Xv4n50XqWTsNl6Pv6I0gYp2fDKh0Jz/8ZfW/Ss5Es+mGsmPwwJupZf2ZlFWLV1WLKulWnELUt4QtAHNmYaHkU+9ScbNjO9Z75chqVrjMpfCZhsbj4L75dzyq+0lrHmvsfxqRJf8BjG1vzof0TMH9yHnoXP4N5ETM2wEzkvPU1bmjpYzzuRgy0BQkyaPgzLlh4mZ5vp266GxfIz2mdnr8RXXR2q5Pb97e9+gfxrvNi/O9AgUWfRfhF31K8uSIHUzY/rxOJ2pbwBSDOjVhrDsUvps11GZjoGWA4i23vWblht84gaj0TB92BLHyKp798X6d0HFELc5FQVoDP57ynU9ox51YUX/s7fG5Oty5FGMcDt1m8eSE2O/Lw1z46wcNER2/gwDYs1vNEbVHEVMEcr2v5W83OnTujU6dOes6bzJPvCRWz+mDlo2k6JQ2PvaWrEzyqFNR735oBayWDV5qq4tHLzs1ElE42/fo5y7rXPIjHprjT3ftgMvZFlWLI9Yp9sVZ3eL8/EI/PZfscsrRkNn6tqlZ85QuNfK7AjNIYc3nbfruqcyzv8dw2bsW0DGDzpgexVqe4GaUQD6zR03MLbOl3PjpTz0veab0f/dy97JpVyNTpxns/R86UBbjBR37mc3L+PoyIAVLyzHzP7QGXPvg6Cgpex0ONld37I+7KU+PERdkz+LCVFniXltirNXyknStLWXyXMnSZ84hl3d5VJPZ8e3VO1MI/Y+CcdNt7fO2LkXcH+jp0cmPU573b/rvzSrOu29gPF/nehZfZ9suVr0qcRFpuCuAYjgyd77U9vI95u0qRNrjxqhiitipCApB4JPWPRmV5y5VwdOnSBcnJyejdu7fPIESmJSUloV+/fjjrrLN0auuRF/P7smvwxqQ/YOr9JSrt18/Nwsjqd1WVwqRJi7Ep4QrXBXPNhyU4HpOGSTpokBf1SYOjcXzXZqyRs/JimheHTQvksmJaUATrUIJye9MSivCYWressgBGzjXaUuypqkdU4gDjjf6kXoH7Etcb684vR1T2FUG3L5n06BXAX/V+yc8lLqW/tQUwAzBtbhwKVf67KInJxLVm1UIjnyswGfhcgd4bF+ttv4tD2bM8qobEtteMxlG1fo9tS30uRFr9LqzxEQ9nPieCgOrleGTSuWJ6DFsSpusgYAmKdjkRO/hSiPtSLRUJMU6UfLjEmL19FWZmV+Edtey5WLIxEVe+9arl/Q6MmJuD6gV63XVpGKMDjKLbzDSgLN9YXk5P36/X3SLEBTUXKPUsBZAXzNw4HFikSwkKatB3tnmxfA91ZUDCEEt1zU1DkIAy1L2s58Xn6psbj0pVyvAMDmA4BpgXY3GhzhhRg1KzBKKgDAm5liBDbPscvOIqoSjeAvS90R7AdB9xBzISPtb5TiSMNfNlm49cdN/yjF5ebNupMhr38k5UIwUxlmCmS684cfB36t+i57oLcELshy34Scl17Zf8XN1H5BrH7KOl2KPT7CUwT3r/zg9uQ0n0YExiOyRqp8IbgLiG5J+KDBSj+IBONzkyLO1AcpCkk4Nx6tQpHDp0CF27dvUKQszgQwYehw8fxnfffadzWkd/V/CxCH/TafJOPTO1HG/cpsIJoQT3rRYX+sFZxh35qmUoLI3GkPH6wj0lC0NiylFoBi/TxP3xxmW4b5Wa9TAJ12ZHo2T1MiNYEdbcvwyb6gYgU1xs1xys0anW0pABiI+px9E9RjrqRPBi7tuzxWLv4tDfFQyJS32eu5RhzZorxKXfbc39iyz7VYI1uzwDnnoRYJjHYg2KSoHefYw1BP5cjZDHCEX4iz5Gct2vb6xH2oX2Mo6S/If1+u3bllTRtnOfj9KPBRiaWoJ3bpur55egcHWJK+g4dH8hymKGItM8RrcPR0ppIQr158i8ME0ED1PE3hm83i+U5V+g368DmsRUlR6sDx6+Frm51+Ih751vhAgSZovoo8D7ItjlkoHAlldQ/ZFOeLlAXMjdF+fj72zFiZQhrrv3qCEpOLGlwLIepwhezPXuhnO3E93TLxFBgriIj/V478tPorTMgZ6X6ABFXKwPLHTflJz6ZA9OOOLt7SbkRVyX2Njyb8pFX2xFuWV5L7YSCDG52r28hyMymHEFVulwiF068I4uGRp3CXra1u35fsGyX0ZAE4duTW6MW4qa+h6I8xGADHT0wHGn+PEStWHhDUAOFLrbd2yPFcGGJcjwaCOydkcUspoYhJw8edIrCJGTfH3mmWeq4EO+p3UNwEgRDKC02BJ8CFN6iQuXvBu3XMjz7KUSf9vmDkgmyUBk47v2dQRkCSY87anB8YReYr0iCEI5DrmCgxrsC/LCX5KvSyjMUgydrlirV8R0n/z8oTAwDlExmbgv4LbLUfSsfin87TZ3iZQkT+w+TUlGrAizrnRVkYgpzxp2zcWOUgfSxhulFirg2GYGKzPRO8FeffLAmuniHjtSiCChYCu653pWA4gAJMGhShlcF2nPqoyPPsExV0ByGWJSylAZ4KJ/6rA7+JVOHA5U6mn0XHFte/ZwdNc5phO7P3GX2KjSBR8lCf54tgGxVD2pYMYMrFTAsQdOMwg7Nx7dPYKXjBHB1u80xfvY5xQBsmOCnpftk95UPV8u3J+DqztgGyVqXyKmDQgOlKJS/LlH+/k7rq/YLy6pTWcNQmSph1nyUVVVFYLgQyrHG/ICnequXnGTedYLuZiucZdaqJIHVQ0jq1+AnR/aLvONiEa8uHl1kyUc+uWqwzgUE4eBt2egd9W74q48A7+WAVFdjTjNNtckLJ4rSzHMapDW7rHiQZbcWI+nnFylTI3b42zQr3wpcVWhuKZrrschnVu0zSwRMUpLdlgCHclafWJMZolHBPh6Kcq3xCHVR8+ME66qBvd0wFXFYpRqqLt/Wf3iqqbwTVVl1BxyBQ3de1naToiAo5vINkUtFMEOLEHCoq04ofNanSWwUqVA1kBH8gxe5NTiDXcnoL84Hx5yugONtV/+AlNW5GBbv0KsGOQOTIjaoogJQKKHXIAk535U+qynjUf66AxEV8ggpenMIES2Cwlt8GFag1kLigBre4RVm7GzbgCmBXyWhaxCAEb+ZgaGVK+3VUuodhxmdY2+6LvvXo2qhbTJ7gaWkx4djTRxcX7dclHs38cIavZUxSFzWhyiqg+7g59mOnRQB0tTZuC3TSgBCfy5GqECNs/2Jk2z1inCCUd/74Z/qz5ASV0arnQ1PPXh2a0oi0lE0u3DEbvxdVd1i1mlkpJnbXjaVEtwqBpIudD/9pvbCPXUwgdQWiPu7C1dcI/vlO0Xbgj4LI9TCz9GdcpYDBwb566m8OkynDPCgeqd8j26OsZsGyHJahOHRwmKK1hJR8KN3iUgfn19FCccA+HQ+62CmSYVUuj963UZHOk19n2SVSoOS1uW0+Gxf76lIi66ATU+4ncZKEc5mlZFRxRpwheAuNp/GNPE/vuxtnCjq5Qjesg0S/5U9Nu3slndcGXAUVZWhvLy8hAHH9qqZZiaX260nVBBRwnuu8ZoeGpWF8jJs5TEaIwajUPb7KGBatMhLmdGdYNsVGmvBpFVC29Uu6sjVBsUV+lKOY6K4Gfk4BqsEUGN3Ebv1AE4XlWucptHt7sw24jMjcPOJpSABP5c7t41qmolVR87VxAnAj3d8FSl66lJzydRDf8uxjSv7o9LUHiN0fDUXY3i2RNlLlbJxqV5ie7Gp9qh+y8wGp5aln3A1gi1cUW3LUdZqnv7nr1gWsLxOQUimMh191Z5+Und8NRSFeLVY0M2RnWI4MBSTeEi25eYy8l2Ju7SExnwFMtSF3O9qrGruwrFaF8i9kXl34Guu5tQAvKRLNERpxm97aTqZ1BapvNMnm1APEp/ZGB1QgRIfWs8S3XewwHd8NS1rJg8e/AE5LF/3sdUCNAgmqg96NS7d++f5Iv4+HgcPx507WmHcO655+Lrr7/Wc2Ei21OoHiPWBqzUmmQ9+//utwv/b7Wvrrjki+wSKy/yewI1+qQmkA/Dm4O4XTn4zUGdZKF+o453+RAyatMipw0I+SDu+H8j21M0pfEpNdfaL5/BZlyMO1nHHpyb7kZqI41PqWlmZc1BljPfZ/Ah+a0qJGpDGIBEJLOqwXhOiLWXBoXC+5i3Oh+HMu7gWDCBqIdz/dmr6oSaKfphXOH4FP8vUOnGwdl4Uz6unWPBUBvGKpgAIqIKhoiIqB1iCQgRERGFHAOQViJLT4iIiMg3BiBEREQUcgxAiIiIKOQYgBAREVHIMQChVvI4+i0tw4XPLPMaW4SIOh75sDrzqbEDm/MYe2o3wtcN15GNiTkZcD1mwVlsexS7KWnULchK1jMV65r1OPamak433DbfhbfPwxjyqzhUPDIbPofnaZQMQKYjoX4Ddt0xwz6QV6uaiYRn5qHb+hTsX6aTOoIpr+LOuYlYN8k95H/wIviYzViNC0dXhfg3FFiXOY8gI30Pim9d6tond9oncDzve9wZOajfnoVAgsyXg+yZy8vnqeSmoNp8TL2cH3vUtn4X/V67MpQ2ZRTg5hh3IwbOjkelj+3JACPVY9eMz2w/Z0fkU3MDHXNqNeErAfEYbn9zXQYmjrJGxfFIzxHBB0TQYb4vhMEHNde92H9jCrZF0IWDqPXtRvWtenTcAjn4jAwOjHnjgpuCrg4nTojzm1kyGDUkDieCjfLl2Dxe646ch8B5jpzMR/NTIBHzIDI5+NzEmM/dQYYcrG5AaViDjkgoAel6+Zu4MKuHngMOF+Sg7DPjdWN5aXgGFQlzkHGekWbNl2NN9LpzDlJi9SxKUaxKO25FygN56KVT3RpQ9sIvcNjPo6Gtuty9HYMz9S3gvuXYdv+9xmtFlowMR+3iKiTNGgW199ZSEnnHO3grdh3Nca2joWg+9jwpB3fzvlNX24ovVNuIerQMaf2NdCv38q3s9lV4IM8cTNCJLQvM4fYX4IY104H8c/GKazRiz7SZyHnrPoyIUZni61iOR26bq2fke4djx4IqjJk7Cuorq9uAJddcj0N6PZ73xPbt+xfUMZPfyRXuQRKr37WUlJglFGJ+gPl92r5zXRKm5wxO7F88DNXrxUvbui3po5dhoLk+mxKU3Dg5yAvuv+OxWTnuY7O/EDMK/qFnhIyHsWzcAD0jLp47/oZb12/Uc/4FLgGx3EGr0grxVdoChMvQ9/Uh+HZLHLoefgAHXhbzC8XXiVx3qUAwd+M+123sxwC8gsqEO1ylEa6SFTmi8PM3AEs/RtfZufo7sZaeyH0bi28XPYBqPaigu7QiReSZy1g5cUC/P9iSDb/vs5XuuNdrPWZ9RzhEkFOAY+ly5GTre+Rns5Q8lRXg8zl6ZGa53iE7UVw9FhlieclVMqNKdHyNsuxZqnQTnsj/Oc4text5v9ejKVKzRUgbkHgk9Y9GZbn7B5k0IAn1dfHIsoyYm9VXZ3YQRoBxSAQGOdikJ1cAcdEie15BKXrlvolellFco7LmILl6ocrftrkBvUY/jK46r+vldyClJt+13k2uqpbnUSbnX/hU/PHJoMTMDy74kE49OQzbbkzBriJ/t3VpSJuViEpZQnLjclRHj0LiDJ0l9Z9uBBUyf/EGIPNOJIzWeQEcv1+ubz721xsXSbW8mEISfMgqkLxEcdE/F49MElN+FUbMNYffn4sdpR5D6U9JFoFECXbogCTzORF8VIugQy47yRh11z7abRquVFUsMn85ymJGYYoa5XcuXpFpCzagVqzvHZUvp8aDD6nxYyYCCBEQmunb3i1BwhWr7SO3iu9vsPl9iu+roX+O6/uKelQEHzIgMfNEWvW7liDjikQRdJjrrkK/WXrd62dgj96eClDlazUFG3wA1+cOxs7FN2GGmgpR1i8Hj2XoTBmcjDsH294y828KKvhoKSc/2YPuQy4T17UhwE59oWwh3UfcoS7wsgSieIsTCWOto/zK0YllkGGUUJSWpSB1odiPRskRgMUyi+SIxO5Snc+vdQcrzSIDAfVIf71eNQKzdYRgEQAlfKxKfrqPyEXXj+W+O9DzEqPUPGqhCD5qRNCh9ukZHIjLtbczSclFhlxerdtYh1r3R0uxR6fBuRXFank5RU6pUnsW3gDENST/VGSgGMUHdLoISKLFnWD00FhUmNUv6yqRNGYa0n3UrbZPtyIpqwcOF/hqgzFBBBOpOL4535332WwU7+2BhPMtA6jtzcfOf72vXn77xS4cjxV3XWpOO+9CcToKB3mna15I7kXtPuDsXpaLrbzgmHfQ69/HsXoHurlvVFvNr54uQEGB5/Q6HgpixK/e44cCGxe5L/rPvo4tdWkYqoIEoOgNESCkDtcBifn+13V7jQUYmiqCB1eJxxIUri5B7OBLLcP1yxINs32HEdDE9mn54fi93Yv91hKsZVtRjUR0swWElu/T9n09jtj+IuDYZf0u3d91lyxxDIqeNoIRadlyEQilIdYajDbDqwUP4lX9GvgHdu4HEuOy9bzUHenp1vkm8BjK37yzbtS43sbd9kef4FjcEPQV8UddS99Qi7t/s3ThlAh0Tjjc1T1SdYE7aDi+U1x443q3WENxGfyYx0ROfW/SGY3ocslAYMsr7mDm5QIccKYgxrW8Ewfe0YGaCBSO2I7ZZYhJEUGRWeIhq8E+FkFG+iXuzyWDCzP/5Z3iNxyHbuOM2eC8jHvy8lj60cLCG4AcKHS379gei4nTc5Cks6TKdYWo1K9xYDOKndGI7SiDg/Xpjx7ifvGbQ3reh4YjRnBxOr791y9EwJKKjAcKMVJMQy6P7JFfbQFKK3nhzlzk5npO1+KhIMbkT0p0IDb7Pjyw5ms9WapTpFUfoMQVkMxE5mCg5ENdyqBKQ9JwpWtZMbmqcsJPVtNcKHs0qcmzOkWo3wGnGUSI4Kn6DrOKpgQnRcCRMPhxlYPRE9Az2oljm43P3SXegR6Z8yzrnod+Lfn3LatYZr3smnL76XTlH7jvrc+Bob/W+Q/jep0TFNvdslHS0DS74dwdJ47lThW4napu6vItyCNAaQ7PNiBG1U/juiQ4PIIXS3VKY1RQl4JUS+Dj3VCXIlGEVMEIB0pFsBGFaPWjO4r6OnHii41XWR3SwX2quDqQHudYg4YJODtOvwyS81WzeiUfDVlzIjoI+eZw61ejNKcERKrd+Jiu/nBP7jYfS1C0y2lUw0y5VIQbO1BkqyKxVp/oSbXxCC/Zxiatv2x3YVaBLBd3j8FagpPHxD/9pxsBxqxR9hIPQbY1MdbrnlqkJ845/4nnxw1A2UfuKpaC/TrPdOS/cKvOe2bHOchtahByupxHVduOUwsfcLdTELonhOmiqfcn3DyDl6YEMO4GuZaJPVoiXsQEINFDLkCScz8q9Y1AZXkloodmuUtE+mYhw1GJClc1TXv3PGr29kBKnrvdhtv7qN3dgKisPHcVykV5SIktRYWucmmaUnxTq1+aVACUiriL9HyYdLn7TnFXXIJay0XJVRoyY7W7sauLcdFz3XU3QXNKQIq2lSA2ezZypugEHw59uAO1CcnIHD8UtastwYUuHbnyOUsbkaZaVYFaEdaYVT5exs/D0vx85L80D2N1klsjx6y+ynUiV2069OtGjV6GJFvwYm+Pc3xXCXo01r6nvAoN0UPhCKINkLcTqDWjpYyHPUpA7NbXHNGvOpLL0Dc3BSd2f2K5UDvQVQ9jJRu0enarxUeHxFG1Vo20DFkV1H3EDUhoUrWIJquznMG2ZfHj66M44RgIh9/ty0ao/v5+6HSFLwBxtf8wpon999ufA3KgEGt3RLkboY4BNi+3VMl0ALKEorjmYlyoq0nklKIDAlmFsm1zb1cVysjc3ih7IdhndsgeMO51jnxgjmqQarYXMTyPMtWw1XyPvYGrf7KnilGkroID8+730SYEBLJRoy6WH5xZZen1sATVy2SjVF1sP1rk+Wjoevx+cZdubldMA+8OQVuJZ6fohqeWapQ1ZiNUbdX1WFc9CldmV7kanxqWoPAao+Gpe9mvPRqhNmYuXskvEQGrufznAYMhT/6O2aknC1UjYfP7SDq6IfgSkPUzULkvDWl6Wc91Y9lk3fDUmu/RwFWso7wIlvd45Ptz5L/w/v7uuPAaXQWTWYtt1hIQj+qZZapBqrXNSCs5N95HjwsfPNqYXPC8bkgqe3S4qhjMagdrY83GJeSa681Fd9tzOt7DgYIyV75stFkqe/va2N9zweuP2IIGzzYg7oagsieLkSaDGvN9rnzZvVg1PHUvG/znkl2fjYan7mWt2w7CR0tRvkVcllzb99z2XhHkiH8cP8O48UYKNV/EdMONRB36QWThYnbr5PND2j7VlVb2jrH0XFFpQ3HM7G5LIWR0VZU9SIKv2iDTTX/Kx8/jPsNTN8/HxzqNmidy2oAQUfsyINHrOR6y50sPVOEkgw9qK25+Avn5DD5aAwMQImodyyajxKMKxl6lRtQGvHQP8mQXXAYfLY5VMAGwCoaIiKh1sASEiIiIQo4BCBEREYUcAxAiIiIKOQYgREREFHIMQIiIiCjkGIBQ08mh511P7PR42mezTcLiNX/EGjU9iMea8DTPppmJH+4qw/fD9ayFMfja9sCPCG9HMp8zv8umPn01GI/j+4dW40c9R0RkCl8A4sjGRMuj2KfmZMM9EGY80nMsea6pIw3HH8FWXY+n5WBpCzbAcwiZ5luDWZP+gEmT3kWJTmkNP94wD98dXY4zt+qECCADn5A8Nt5D0W3G4HfvlOqEFnUvOm9KxKm7lkH19yci0sIXgDg3Yq05FL+YNtdlYOIo89n9R7G70J2npnVyFJjjqA/jqNXUTgxfjVOpJejyyr06we74/XLgND4qvKV0KhyGLkdH4fuc0AdXRBS5IqYK5nidaxg6n5IGJKF+x+YONRid1PvRz13F43K6wTLaaWN5sjjdWrxuzZdVEDlvufM8q1ICrbtxHutuziivXqxVNGJ6a4ZIsZgyAyut+WqajV/rbFX1MjYNZ/5zsvePX45T4npqp+egZ3KQPVkt8zj6+XqPHMPm0cfV8PXmUz+tpRkq3Togn9qWsby5TFp/oIc50J6cghrAzzjW9qoTzzSP7+OtV9Fb5zTq9lUe71+AGzwGurP/VnxXyZ2xZgMwcrrPqpixc5ciP38p5nGQL6IOJUICkHgk9Y9GZbk5KqMHRzYykitRvPOoTugY5Il9ZnYV3pHVHXp6xRxFVVwYbHlqJFT7hSE2+z6MqXpM5S/Z6ETKZPeFpPejszGierlrvY9MmoIinRfMugPJfO4+y7qNUV5bpm1BGh576wr03rgYk1Q1zWJsEpe7+54zQxCR/xtx+TPz88tFWj02LViEvxlvAPpMwI+xJTjDV9XL+hnYI4eNX7wBDTrJzoF+s3JwcrEsIZmP/fVpSLJWmfSfjsHxhcbQ82IdaGyoee3Uk8PUMiX7gIai+cbycrrfdwmN3RIU7XIidvClliAhFQkxTpR8aAx93/vRa4G/mt+z+D4wCtNaqq2Hx29lycZEXOkrwDn4Ps6oTcOPPtrcEFHHFN4AxDUk/1RkoBjFB3S6h6ShGUCHK/1YgCnZDpTlWwIDF3FHOzkNtRtfd+c9OwXvlDqQNt5yYSldjqfvNy5Chz7cgdqYRCSpOS11uI+71SDX7dcCDE0twTu3zdXzS1C4usTjAnmabr8CI2PKUXi/2TqkBPf9tQjHUzOMEo4pWRgSU4+dH+r8Z4vFO6IRP9CYVZIS8UNtFTrp2aaqftesmlkCZ4kTPeLTVLpSvwG7zKBh/fs4Vu9AtwHGbGs6dH8hymKGItMMEG8fjpTSQhSuMmYP3T/F9doVsCSm6vnmybwwzfYb9doXlyXoJO4ffkr0/g19vOBG5OXdiPkf6gQi6hDCG4AcKHS38dgei4nTc+wXSEmVftRjf0XHKv3AlGTEwonqPXreh9qDRnBxOg7df4EIKtJwpS469yyhOO11q/12r1dNeZaLdHPV1cDvIVl1GIdEwDFkvN7e7RliT8pRZJYaCT8lJupXoXF2rxYqaQhoLnZYAkQVFGwzA0DB1mvpa8wUgW3LmIneCUBKnuW7XjMdKTrXU6dqJ35IaMHfAhG1aRHTBgQHSlGJKER7nBtl6Ud0xefY3dEan66qaLSHSWwf68XNuBg0hdn74ZFJy1GbfZ8tCGneukts1UZquuZ6ERy0gJg4WAs0MDDO0lajHEfrgKjsWUbbj7wBKMm3VL8Inaqq9KvQ+Obw6QeJTVG0zSxlMkqgdriCrgW4Ye4oYKNRFScnWR3XksryPb7rSRdYSlzcfkpwoHN1a/ZtIqK2JGICkOghFyDJuR+V1nOjLv0o3uGnbUi7ZtzVjviNrwaDuhg9+1p3Fcrt12JETAnW6SqXpilFtbhwG5q57lUfoKQuDVc21vD05ieQn5+P/D/dpBOCoKpUBiDnUfMuOg2PTR6A4xvfNYIMWUWDIjym2ocY0yxL6YdSWYXOsYmt3iW0y913ol90CWqX6QSpZzK6qBePo9+sUeihXrudOupEj7QJ+j0+BDpmz25Fmaxiu304Yq3VZ5qrRGvKq5jW1BIQV9WdbMxqLeEwfispecE8C2YmfoqXAaD3b8hohJqPJ27WCUTUIYRvOH7Z/mOMpcLFWYy1hRvh7gsjnwUyFRl167ByQ3gCkEgYjl/2YrnSUl0v7zbNhqhGI1XzYuLElgXuO0+Vl1iIR8y2GLIYfm4i1qnGpvJCcp8IKowspXS5+71Co+v2uojJUg+zLYD3+mvFHbjZHkWRF9MrzxUf6G3k/f5lnSjcPluVXNjJhqQP4z61fdkL5goRemil72LSbWv0jGykOgsjrZ9LKMm3BiLyAWTz8ONX83FWof1iKHujDM70/lwlN07GcbFcwjPz0G19CvbroEK9XzY6le0+ZC+YK6zVC+ZyJmP5fuphN07sf3cHel6RiEq/7xH2Lbc3RPV3zDTje4Htu5Ls31cJtmxMxAjXb0P2avGuNrF+X9bfYFn+ciAvB9WBfg91G7DEs8SrzzJ8d1siOj/ko/dRI5+LiNqn8AUgbUAkBCDUBDJ4mVyDx65ZBjMkMQIa4I1JlqqY4atx8ioRQPi6GJ4uGYCMrsKuO2bglE4itx9vKMMP1d5BnzJ+Hpb+9iJUvZOHe17SaUTU7kVOGxCiZprUJ06/cvv1hQO8G65unYwupWk4dUMwz9mg5vopZztOxW/AmV7Bx1jMeykf+Qw+iDokloAEwBKQtsZHFUxdkb1ExMWoivnp45SWeRw7S0D8kGPBDMcZLVnaRETtAgOQABiAEBERtQ7elBAREVHIMQBpJSz9ICIi8o8BCBEREYUcAxAiIiIKOQYgREREFHIMQFrVrfjr1YVYJaa/9tFJREREFMZuuI5sTMzJgPnUae9HsQNJo25BVrKeESrXvYjNfobsbw0t1pU2+mGsmByHd1fMxmKdRERE1JF1joqKeki+6N69O06dCuEjlL7dj693FuErPTkTL8OY5AZ8pYfdjx4yDWO6fYqV76423lPbGyPGDIRzZ4ll7IzW1bNnT9TWNjYmbRDEYR3WbyJijryOtXxKFRERUeRUwRyvs5Z9AFEx0aivM4IRpb7WVjpCREREbVeEBCDxSOofjcpy96i3leWViB46FVl95Vw80kdnILqiFJUql4iIiNqy8D6K3Tokv482IEA6sqaPgXxH/Y6VWLvTUiISAi35OPVZWYW4wrkQV3/5vk4hIiLquCJnLBgVjACblxcapRxqPgrFhW9gt1MHIj6DlNbT0uO5yCDkF30bsHn1LzCP9UlERNSBRU433AOyeiUK0Q45E4/0YUmo37FWBB9yfrcITNah0pGBDFUl09ZMwPzJhbhwfw6mrGDwQUREFDEBSPSQC5Dk3I9KFXAYomPi9SuhbypESILaNnvxbkANAw8iIiIlfFUw1vYfklf1irv9h6FeV8fo2RBouSoYWQJyB7CJpR9ERERS5LQBiUAMQIiIiFoHH8UeCtETMDj6EPYx+CAiIlIYgLQqPRbM5IuB4nw+hp2IiEhjFUwALd0Nl4iIiAwsASEiIqKQYwBCREREIccAhIiIiEKOAQgRERGFHAMQIiIiCjkGIERERBRy4euG68jGxJwMROtZX8PxJ426BVnJeibEI+FK7IZLRETUOiLmOSAq2MA6rNywW81HD5mGif33u4IOz/xQYABCRETUOiKmCuZ4nbVsIx0ZQ6NRud1d4lG5oxj1yXJEXCIiImrrIiQAiUdSfxFwlFtLNzyG3ncexXFEIdqh54mIiKjNCm8AIofkn36LmKYiA8UoPqDTsRsVFdHIGJqu52UVjHVofiIiImrLImcsGBmMjAE2Ly9EpUpIR9Z0d9BRuW4dMCYVFa781sc2IERERK0jcrrhHigVgYW1imW3CEZexEo9ba6PR5SzFhwuj4iIqO2LmAAkesgFSHLuR6VTJ1ipLrv9sH99aLvhEhERUesIXxWMqnKxtOrweM6H6oY71HxKSKWlaiZ0WAVDRETUOiKnDUgEYgBCRETUOiKnDQgRERF1GAxAiIiIKOQYgBAREVHIMQAhIiKikGMAQkRERCHHAISIiIhCjgEIERERhRwDECIiIgo5BiBt1e2r8MCaVcjUs23OlBlYueaPWPPcJJ0QCpOwWG5TTQ/isSk62adb8der38R882G82o83lOHkQ3q6axnUU/yIiKjJIiIASRolh+S/BVl9dYImH8duDNcvp5y2ORz/lFdxZ1sOFNqVNZg16Q+YNOldlOgU3yZg/uQ89C5+BvN8DD7UedN8dHsoBd2emoFOOo2IiJom/AFI3xxkxVR6D0In0icOPe4aEXdzRRKycrLhcUNKbdWqZZgqg4Hb1uiEyDFx0B3Iwqd4+sv3dQoREbW0MI8Fk46s6WOAdStRO2wqYreLQOOATI9Hes5U9Nu3Emt3HlXvdI2IW/gGdvsaMdeHzp0748cff8RPP/kuKO/UqRPOOOMM/PDDDzrFrnljwSzADWumI0XPuTmxZcEFKFwlX89Ezlv3YUSMygDqNmDJNdfjkJ71Woc1X1bB5AHvTJqCIjHb+9HPMTPbgdqNj+Hp+5fId7jSTGX55+KVZ/VMq0rDY2/Nwkjzc6Ecb0xahL/puV8/90dMSzVeH9+4GFPvt5dHTHr0QdyX7RFqlr4rgpVysd4ZwF/XI37uFWIrkn3dRjWLmSeo5TyDHPme0Ti64GHcp74HK1n1cgVqVv/CZ+mHrIL5oXo+zio0jjEREZ2esJaAJI0ag6SKdTrosIpHrKMe+yt08CEDlZwMRIv/YoMsAunSpQuSk5MhAiwVaHiSaUlJSejXrx/OOussndqS5uKVSefikQUbUIsSESiI12oygw8ZIFwrLqZm+mPYglGY9uhMI1PIfG46YkVAYeSLyRacuBmBRpXahhl8yKqfaTrNXD40wYcMIGZgZLW48KvqDjlZAwTgb7cZ6W+U6gSrKTPw22xg0wLLe+qK8JgriIjGyLkyeJD5i7GpbgByHnWFGyK4yUCRa7vvoiT1Ciy+XWcGo8+FSKvfhTU+gg8iImo54QtAHNnISK7E5g27dYIvsiREtv+QpSSyGgaIio3XeYGdOnUKhw4dQteuXb2CEDP4kIHH4cOH8d133+mc0Dp0/xRXMAIsQdEuJ2ITddGAFjv4UvTWr31xBx9GSYhdGoY25eKrXfrg6ygoKPCa/uKOjRqXmoFf65dNMWl8GqLqSrBGH5e/bSsHYuIw0JhVSvLNkgvxvl31iEocoNKlv91mDXbWoEgEML37uAOUxkx0iKPt3Ie1ep6IiFpHmAIQEViMzsDxdYWo1CneopGRY1TLqDYgB+IRHQMcrzVLRRp38uRJryBETvL1mWeeqYIP+Z6wUQ1Uv8YDerJWl0hFtxmlIjN1/g1ewUQaRshlSrd6Bx+rrsfT+SVIydPrf+vVgIGM1QcPX4vc3Fyv6bdB1jqsuf9hvFE6ANN0j5OVlhKKxqw5WCMCjjSIeEr59YUiuCgttpWgBHT7bN3LxZjMqp5gDXT00K+IiKg1hScAcaSjn7huJo0xe7hMRYY5rxqaHkWtE6jfsdJSPWNUy9Q2sWjcGoTIUg+z5KOqqiq8wYds3zF3FGCpYlmy0bNxyxIUXqOrUBZsQKwIJuxBiKzaWY6y1Om401J14/LsFNe636kWgUyQQUhLlICY1SyyGuRQ9qzgg5A9NTiuqlnMAKIcbwTbUFV27c0bgJJ8c9t+qnkC2ONs0K+IiKg1hScAcW7EWt27xZhWolhceyvXideFG1EvApDKffWIHjoR6bpQIHrIBUhy7vfuLRMEMwiR7UJCHnysqkBtgKqQ2oPWNhv2EhAbtR5f5uIVEZwg+z4fJSRulVXBH7jmloDYleNonX4ZhF9PyxRB2WJXAOHZfqRx4tezR7+8fXaTS0DWOg+JALk/Jup5IiJqHWHuBWMyer24e8EY5HNAJg7VrU6dxVirgpPQaV4vGAvVY8UsAXD3grH3UinBlo2JGJFYiEdumyvmvXvRWHu4ePaCcW2jdLla3rMHjFFa4qudSEvz7AEj2HqiePRS0Vy9YWQpxtxMROl0g9nTxVh3/Oo/YJZuUKt6zCSud63f2sNGNl7dVJ2JIVV63bJ6Js/dXsRQj0223jCyF4w4sJty8JuDOsmCvWCIiFpGhAQgkanFAhAKmgwgcsyAQVNBBXx1p20dEwe9if/dbxf+3+oHvRqjMgAhImoZYe2GS2SXhv4J+qXLJGSmAseryvV861v75TPYjItx56AJOoWIiFoaS0ACYAlIGPiogvH1sLLW5/uBZLIE5JRZxVO7AV35OHYiotPCACQABiBEREStg1UwREREFHIMQFqJLD0hIiIi3xiAEBERUcgxACEiIqKQYwBCREREIccAJOIl40//eR3+e0KAx7RHmHETcrFC7LOa8pJ1antnfE/G587F/cGO/NdWnD+mfX4uIgqbiOiGmzTqFmSJ65QcC8b6KHbJyKtHceEb2H0a48A0R3O64bZcF155YRuDXkUF+I/3LQdAXhCmeF7cK7Dyv9bh73quWXoPwX/P6InVzVifDETujtuOq/MrdEqImMemfF3ot62+r2E4tqwAjx7SSSFh/E7O03MN1t+LPB4jj+HJ53fiIyPFwr6cae+q1/D7L/SMpI5pDLaG/HMRUXsV/hKQvjnIiqn0MchcOrKm34LkuuKQjv8SqQ5XexygL8TF9b9ew9Wr5AVWBh7idUsFH23cL9OTxQV0HfYOGIBf6rR2TQaLOkhVvwkxPYdhQZZWVOD3+rezV8zJwEMubws+XOqwn8EHEbWQMJeAyCBjDLBuJWqH2QejSxo1DdE73sBuZGNiTj/s77AlII1Qd6bwKvmQpQ+34WOsjsvFVD3+mv2u1oH7b83FcFfNjll64vuOWA6iZ737VaUbmebC9jyT/xIQj21YSypcJS/lON98j3O7n7t3X9wlEPtHX4fzd1s+szxW6eV4smaYa99tJQXCL/Oucx0vk/GeGNd6zc8p3zu5xqNkyrJ9n8fDzzEz1/Ucxrre41UK4YfaZwQo7QlYAmIyvhMEuU0iouYKawlI0qgxSKpY51XtIlVuCH3A0d70yMxVFzV5R/tkkRPnjRyCcTpv3ISxGH5Ml6LoO2AjgNF3xMu2o8FVsiInywVVBAlTRXBjLvtkETD8Sve6G/PLvAH4wrVeWVIxBn86X2cqyZiqLuI63zEMU235AZw/AOc5y/CR2Ne9NeIzp3tUU4ltqaBIbntVhThGw9ylJOJCPXWA+ZkLsFX+/kRwZA8wTlMQx0x+X+a+eX5f/iXLj4y9u0Nd1URE1DzhC0Ac2chIrsTmDbt1ArU4y8Xzo+IyNDh62ks2TreK4tBO/N5yUfa57gD+nm8tranAF+VArwRXUYyyd5UZ8PjO90dWvzSUVqg7fbVfnp9RlqaYJQVixXsRg366qkIui/JyvW9OfFQqPmNPR9CBVUDBHDPLvjX1mBIRtTVhCkDikT46A8fXFaJSp1BoffR+AVaWy5IGo+dG03rZyOobs8eHmGYMQw+dExRZJWAuKybPKg8VdFiqAf6e/1qQpRCyNMCJL4v1ew9V4EunSAuy9ESWmLiDMhF4pDpcwUzzNX7MbNsSAct/eFSrERG1J+EJQBzp6Ceud0ljbsHU6XKaigxzPicb0fpt1Lrkhd2sBjmcmRt0EPLLvFwMh7hb19UJRnVNkGQbjymykai57ddEIKTzmktWv4gL/fAZ5oXeaOPiVQ3jx0fVdeL/ZlBmfMbnWqL6RWjWMQuoDsfELgb7GYmIIkV4AhDnRqxd/iJWuqaVkDetshvuysKN7PUScsZFzOaQE4dliYK/0gOxgHG3Lu7sr2xiCQicOHZEv1TtLvTrZhqXEGM0aDUv8nKSvYSCqmoSn2OkPTC62qvRpgM9zzFeyQalTd7vZh0zf5x4dJP8jPZ2NOMmjAnhMzvGYt5L+cjPX4p543USEVEjImQ4/nik59h7wUQPmYaJQz3LQkL7PJCI7gUjqzECPAfEqweKq3eJzJfVAdYeMIKvZ2bYtmHptaHW5b6A7i3ajl6ZAdYtWdZv62ni3I6tx4ZhkNmbxLafTWFst+cmz14clt4d8OwN4tFjxdcxtfbAseaLz7NSrM/VC8bn9xHsMTOOiXePmibw2L7Xc0D8fi7j+Hi2NQm2B45p7NyluOviHvj6nTzc85JOJCIKIEICkMjUJrrhUgvxFcAYaYNKmxEYdBQ3P4H8KxPx2V9uxPwPdRoRUQBh7YZLFDliZIcXu97JGCTSvB4CRxY34Yn8fAYfRNRkLAEJgCUgHYyPqoqmVkUQEVFwGIAEwACEiIiodbAKhoiIiEKOAQgRERGFHAMQIiIiCjkGIERERBRyDECIiIgo5BiARDz5pMqmDhZHkUo+oXbFf445vVGIiYjakYgIQJJGGYPSZfXVCYp8PLs5WJ2YRqXrdHKTT+o0B14TU57no8CpZRnH2zrmChERnZ7wByB9c5AVU4lKj4dNRg+ZiH77VurB6tahMnkMJg6J17kdj/fTOGXJSC6GH7MMvrZ7AC+ObYHzGPbql0REHVWYH0SWjqzpY4B1K1E7zD4YnSdZSpKFdVi5YbdOaX2R/CAyNdhcapllYDUP8qmecuC1d4DbzEHQbAPOGeOcuAaN8xyMzuOpoLYngja67kBk4DQAXyw7hsnmstYB31yD0ZXjfHOQNGu+5+Bpljxfx8Qrzfa5LIPFufhe/3nWAfQsrIO+qW1luqvK+BRVIiL/wloCkjRqDJIq1vkNOsgfB8alOtBQWuG60PrkGIa71cX8NVy9bDsaBgxzDdH+yzxr6UkBtvYcY2lnIi7C6eXukpVVFThvike7hQDrblwypprLym1jGG6ztXER+WqUWpm/DnvFtqaqkh0ZNI1BL3HRd+23WPZuXfX0UXEZGhwpGOfaD4/jJIObKTEi6JDLimlVHYbPsH4uI/hwr19MOnD5e77enog1rEP2W0ecvTuzDivN5dQxyw3hkPhERG1L+AIQRzYykiuxOZgSDVlNk1yP4h2hK/1oH+Qdvh7W/lAFvnQ60PMcOZOM8wdUYKWrxMKJRzdVoEdqMsap+Qr83lqa8UU59iIG/WwXU3/rDoZlWfH6o1InesTFqDnT3lVmyUSF3Dx6JYgA5fxhGO6owGrXyLRiv9+Rwc8AI4g4tBOryx0YlKGDGTWYnPv94zJSgKKP3SUeX2wXAYU4FrraatyEYTjPuR3PNXnkWxEYjUxGQ9F2/ZmEL9ZhpXVfiIjIJkwBSDzSR2fg+LpCVOoUv0SgMnFMEirXvYHdTb0udHTOMnzkql4QF+vndZVAbwd6qVIGSwNWj0HYfplnybNWSZj8rft09XTo4EcSQYdlXbL0wVXS0Ej7ib/vdgdSRsDhDgrOi3OgR6bshWJ+LksVlCDzcUwERHq+qThqLhFR8MITgDjS0U+c65PGmL1cpkLeKKr5nGxE67ep4CMnA9ixktU0Nk7sPwZLicXpqHBXF5iTpS3FVFlC4spb1/qNJoO98Dt62oOhc3oa7UhMsrRGVcPI6hfgy2J7UCDbbNg+s5jMwGlvTfMCCFVK4+JAv576JREReQlPAOLciLWqd4s5rYS8TlSuE68LN6JevscSfKzdeVQtRm5/X78dDQ6PthPnjwmuF4yqMknG1EDddi0lDb/M81EC0lJ6D8FtmQ7s3R1EA1ZVFZSMya7P7KPqQwZWRcDwK8di0LHttgamqnQkc6zfdhmqDcmAQMfQCPzOS/c8broaKXOYuz2JV3VREMbPw9L8fOS/NA9jdRIRUXsVIcPxy2d+2HvBqF4vXtfHehQXhq4qJuKH41c9RnRPEsnaE8XsqWLpEWLn0QtGcPfosPcEkRf4w5kpOGb2GGl03YF49DIRbL1FXL1gzDYinjyW99X7Rh+Xw756odh6wUiypMeyLc9jauuBI3keG3+9YHz1sGnMWMx76S5c5Pgab+fdg5d1KhFRexQhAUhkivgApE2SF3DZw6WpF+cmaDSIiVw3/SkfP4/7DE/dPB8f6zQiovYorN1wiVqeA/dfOczW+LRNuPkJ5Ocz+CCijoMBCLUTskpJ92w5ts7da6ateOke5OXlIY/BBxF1EKyCCYBVMERERK2DJSBEREQUcgxAiIiIKOQYgBAREVHIMQAhIiKikGMAQkRERCHHACTiyQd3XWcZKp86Lv4WiKj9iIgARD52XQ5Kl9VXJ0h9c/RAdXoala4zyM189oWeAo3tQuEnHwN/65BmDCBIRNR+hD8AEYFGVkwlKj2fG3Wg0D5YXcwYTBwSrzM7Hu+h3uXdsPHQLdfIrrsHBDcYHbVpHPafiNqDMD+ILB1Z08cA61aidph9MDpPspQkoy60I+NG8oPI1MBnqWX+B4QzB4x7B7jNHFzNNnCbx2B0noO6eQzaZhswrtF1N84+cJt9/X7z5HbTj2FrTznSrBNbV5Vh0BSxfdeAcTIoG4Avlh3DZHO/PAaTa2y7t+FjrI7LxdQBRprtc6v1+x6Izti3cjxZM8y1fle+5wB3LtaB8Br5PoiI2pmwloAkjRqDpIp1foMOt3QkJ9djfwWH5Tc4MC7VgYbSisCj0TrExVANyvYarl62HQ0DhrmGov9lnrX0pEBc1MdY2haIC624mLpKVlZV4LwpY9xDzUsB1t0YIwioExdfvX4xWYMbW57adq573WI7PTe9hpXlDgyfYgw4t9eRgnGubSdjqrlf8nNhGG4zP1dj6xZ6ZOZick2Byn+yyInzRppVJjJAGINeIqgw9nkdDov32kqcBoj1x213rds1PP+hnfgPnaYCIrW8sQ5zvJrA3wcRUfsTvgDEkY2M5Eps3rBbJ3iLHjJNtwGRgcrnIRuGv/2QQ8Lri9yhCnzpdKDnOXImGecPEHffrjtsJx7dJC6Yqcn6YluB31vvvr8ox17EoJ8twPC37saIACHTgb2rfI1UKy7yI5PV8P+uvC/WqWBjUIa+GIsL+EodrNje52LZL/H6o1InesTFiNdBrFsqd48j81FxGRocPY0Sj97JGITteM41xow4fjJASbe0u5HBhXncfB4zfxr7PoiI2p8wBSDxSB+dgePrClGpU3yp3/mGqx3I2roLMDUnG9E6j4LgLMNHriHvxUXteV3S0NuBXjIQMBuvyslS3SL9Ms+SZ6l2cPG37saobTtx7Iie96HF2zj0dLgu5Ke97nN6oocs9bEcM2tVTrME8X0QEbU34QlAHOnoJ87dSWPMXi5TIW9C1byfIKO+Yj/qHbGI0vMdmxP7j6GZd8iy/YFZFaAn3VZCVpFMlXfkrrx14m6+hRxy4rB+6U+vBOuF3YF+PfXL03XM6aqqata6bdUnemqxdhr+vw8iovYoPAGIcyPWunq46F4u4sa0cp14XbgR9fptVklDMxBdURqwxKQj+fv67WgQd+Su9g3S+WOC6wWjqkzEHXegbrvOY66g45d5PkpATlsFvpDtN6701R1VV5mYbSek82WD0wqsPp3h9XsPwW2yume3DBKauW5ZpeJ5vJvqyDHxnVnbq2jBfB+NGot5L+UjP38p5o3XSUREESysjVADcbf/MKYsrMPKAO1FOhzZsHHZdiAz111sn14eXDWIqjIxGjq6lhWT2ejxo/e3q4utWd0wuUbMq5yW8ff817DymL06wwycPnq/AE8WxbirI6bEWNp0BEMENzP0sjOG4bClF0vz1l2B3+uGp+Y+y6lJ3Z7Fd/ZcEdz7959mw97A30dwPsZHXzWIf3ugZ8tFi0RErSbM3XAjWyR3wyVfZDfZYTi2rACPutqndCA3P4H8KxPx2V9uxPwPdRoRUYSK2BIQIgrWTXgiP5/BBxG1KQxAiNq8l3FPXh7y8hh8EFHbwQCE2hHZTqODVr8QEbUxDECIiIgo5BiAEBERUcgxACEiIqKQYwBCREREIccAhIiIiEKOAUjEkw/XaupTMSkQOdZNk59iauo9BP8tn1R6mo9NN7ZtPgGViKjjiogAJGmUftx6X51gE4/0HJk/Dem8Bntw4P5b3Y/uPt2LIhERUaiFPwDpm4OsmEpU+hkPLHrIRGTUiXw931F5DyMvS0ZyMfzYOvfoqbsHnN5dfQcjx4SRxyu4cXM8yDF45LFuzii4loH+iIg6qjCPBZOOrOljgHUrUTtsKmK3v4jNB3SW5MjGxJx+2F/4OWJzLkBt4RvYfRqDop6uSB4LRhbl351ahif9Ddl+/hisGHkMT74D3DZjGHrItHIRrLgunLL0RAQwZqmSLU+Qy09xl6jstQzq1vi6GyODJ8sIu3KYe+vnsG3bia2WsV1+mScHxyvAcxiLuzONnTf3zdcxsadZt2tfr5v/fZPbnjrASG4oKsB/eIyiq7al90myHTMiIrIJawlI0qgxSKpYZw86XOKRPjoD2LE2pEFH2+DAuFQHGkorfAcfJjmi7YyeWC3v2JdtR8OAYbhfDwX/yzxr6YkxEqu7nYm4CKeXu0tWVlXgvCke7RYCrLsxcnj/XuIC7lq/NfiQbSzUKLXmtuswfIZ92z0yxYU+brvKf7LIifNGGkP7f1Rc5jXc/Xlx1uMkn5Qq17vOTwmEEXz42zc5iq9MW1muE6xE0HR3Zh1WmsupY5Yb9DEhIupowheAOLKRkVyJzf6G2O+bhQwU49OdR3UCNZ28y9fDzR+qwJdOB3qeI2eScf6ACqx0lVg48eimCvRITVYXcnWhtpZmfFEuLtgx6Ge7mPpbd3Dc27Ibl5ECFH3sLpn4Yju2OsX+WquWZKmE3j8j6OhplFgc2onV5Q4MynAHUvJzrvYoqfBn3IRhOE+s+7kg3+/mwP0jk9FQtN09tP8X60SgYt0XIiKyClMAYpRuHF9X6KdtRzqyxkSheP1G1OsUOg3OMnzkqmIQQcbzukqgtwO9xMV5qtl4VU6W6hZJVje48qxVEiZ/6w7C3/MLsBXDcLdev7XdiiyxkCUc7m1bqok0W8mPapOhAyHh77stgdT5A3Beebk7KGiE3DaOOQOXKgXg3U6HiIj8CU8A4khHP3GuTxpj9H6ZOn0q5I2ims/JRnTfVCQhGhmq94ucxrjnR6XrlXRkTuw/5r8UITgV7uoCc9LVDbItw1RZQuLK81dlcbqMgEWte9l29JpiD0Jk+wrbfokp6LYUsrRGV8P8Mj0Ze0VAEqy9Nc0LIHolWCMlB/r11C+JiMhLeAIQ50asXf4iVrqmlSgW5/7KdeJ14UbUHyi05MlpHSpRj+JC8dpflU0H8/f129HgGIbbrM8HOX9McL1gVJVJMqYG6rZr6akh22x4lYC0lENOHNYvJVWCkTm2GW0nKkQMIquDknF+z+1Y2YRGoKo6Z0CQx9DGiY9KnWK/h7nbqpw/DMMdwVf/KOPnYWl+PvJfmoexOomIqL0Kcy8Yk3zWh49eMC6ytwx7wXiRDTbNXiiStSeK2VPF2sDTxqMXjODu2WHvCSLbNhzOTMExs9dIo+sOxKOXieDVo8TWC0aSpTFGNYvZC8azB4qNPi5odL2SR28Yz2Pq6gXjvd+Sdd/tvWD89bIJZCzmvXQXLnJ8jbfz7sHLOpWIqD2KkAAkMkV8AELtzk1/ysfP4z7DUzfPx8c6jYioPQprN1wi0m5+Avn5DD6IqONgCUgALAEhIiJqHSwBISIiopBjAEJEREQhd8aAAQMhJ2pZrH4hIiLyjyUgREREFHIMQIiIiCjkGIAQERFRyDEAaWU/5WzHyYfKjOmuZVB9nl1uxV+vXoRZeo6IiKij6DRy5Fh1TTx+vCZszwFJGnULspKNsWBcj2J3ZGNiTgai9axSsS6kY8G06LM8hq/GybFV6PrUDHTSSdLEQW/if/fbhf+3+kGs1WlERETtXfhLQPrmICumEpW+hvZwFtsHrWuHA9Gt/fIXeNN5Me4cNEGnEBERtX9hDkDSkTUmCZXbN6NWp3REi4s/BTLyfFfF6BFSl87l+KhERNR+hDUASRo1BkkV6/yMgNuB1L+PXfWpuLCPniciImrnwheAOLKRkVyJzYGqVRwZmDj9FkxVUw6SdHL78z72OYHeDh/VMB/Ox415ebhxAYcnIyKi9iNMAUg80kdn4Pi6QlTqFC/Ojbb2H2t3RCGrHQche5wNiHKk6jkiIqL2LTwBiCMd/RxA0hizdGMqMsz5nGx7zxetvmI/6vXr9migoweOO0v1HBERUfsWngDEo3Rj5fKVKHYa3XBXFm70EWgYJSbRFaX+S0zatAnoLwKwQ8739byFboSa/6ebdAIREVHbF9ZGqIFED5mmS0eMEpJ++1a2y264SvQEDI4uxbaDet7qw/2okv+mnA+GIERE1F5ESAByFLsLLQ8hE+p3vmEpIXkRa3ce1Tntz6yMi4HifCzW83Z7cUw+I6XsC7xsJBAREbV5EVsC0lHIJ6H+wvEpnv7Su/pl7NylyM+/CxfVvI283zP8ICKi9iMiHsUeqVriUexyLJhvRzqMmdoNHo9il2PBXIhtK2b7Kf0gIiJqnxiABNCiY8EQERGRC6tgiIiIKOQYgATA0g8iIqLWwQCEiIiIQo4BCBEREYVcp969e6tGqPHx8WyESkRERCHBEpBGzHzoCMreLUfZ8gbM1GlERETUPBFRApI06hZkJRtjwVifhiqZeUrFurA9jv3xZ8uRU9UPwx7qrFOIiIjodIW/BKRvDrJiKlEpHzduE4/0HBF8QAQd5iPZwzgWzL2fx8KR+L2eIyIiouYIcwCSjqwxSajcvhm1OsWlbxYy6sJX4kFEREStJ6wBSNKoMUiqWOdV7SIlDUhCfV08slwj4t6CrL46k4iIiNq08AUgjmxkJFdis88SjnhExwDRQ2NRYVa/rKtE0phpSNfDqoRcyZlwnncSj+tZIiIiOn1hCkDikT46A8fXFaJSp/hSac0/sBnFzmjERuv5UFvTA8P+eCZyZI+YZ7/ViURERHQ6whOAONLRzwEkjTGrV6Yiw5zPyUY0jqK+DoiKjdcLRIBZdSi7DXj6igFIub2rTiQiIqLTESEPIpM9XqYidrulG27fHEwdA2xerktBPOdDTQYgF3Rj8EFERNQCwtwLJoADhVi7I8rdCDWcwQcRERG1KD6KPVgsASEiImoxkVsCEmEev6AWzqoz9RwRERE1BwOQRphjwUw/LxaFfAw7ERFRi2AVDBEREYUcS0CIiIgo5FgCEsDZZ5+tXxEREVFLYgkIERERhRxLQAIwS0C++eYb9S8RERG1DJaAEBERUcgxACEiIqKQi4gqmJv+lI+fpwBfv5OHe16SKWMx76W7cJHX0PsN+OwvN2L+h3q2lbEKhoiIqHWEPwC5+QnkjxPBB84FPjIDEB/k+64E3s67By/rpNbGAISIiKh1hLkK5iY8ceW5+PqjlTimU/y5aei5aPh0ZciCDyIiImo9YQ1AbvrTz3Fu2dv+Sz1M4+dhUsrXWLPgY51AREREbVn4AhAdVLz9+8bLNG76+UUASz+IiIjajTAFIGMx75cXoeqdINpzqEClAV9tZOkHERFRexGeRqgiqFj624vQQ8/aOD/DUzfPhxluqB4yeBt5QZSUtDQ2QiUiImodEfIkVKPbbU/PXjAqUPkZvgph11srBiBEREStI4IfRGZU0/QoWxOW4IOIiIhaD8eCCYAlIERERK0jgktAiIiIqL1iAEJEREQhxyqYAMwqGCIiImpZLAEhIiKikGMJCBEREYUcS0CIiIgo5BiAEBERUcgxACEiIqKQYwBCREREIccAhIiIiEKOAQgRERGFHAMQIiIiCjkGIERERBRyDECIiIgo5BiAEBERUcgxACEiIqKQYwBCREREIccAhIiIiEKOAQgRERGFHAMQIiIiCjkGIERERBRyDECIiIgo5BiAEBERUcgxACEiIqKQYwBCREREIccAhIiIiEKOAQgRERGFHAMQIiIiCjkGIERERBRyDECIiIgo5BiAEBERUcgxACEiIqKQYwBCREREIccAhIiIiEKOAQgRERGFHAMQIiIiCjkGIERERBRyDECIiIgo5BiAEBERUcgxACEiIqKQYwBCREREIccAhIiIiEKOAQgRERGFHAMQIiIiCjkGIERERBRyDECIiIgo5BiAEBERUcgxACEiIqKQYwBCREREIccAhIiIiEKOAQgRERGFHAMQIiIiCjkGIERERBRyDECIiIgo5BiAEBERUcgxACEiIqKQYwBCREREIccAhIiIiEKOAQgRERGFHAMQIiIiCjkGIERERBRyDECIiIgo5BiAEBERUcgxACEiIqKQYwBCREREIccAhIiIiEKOAQgRERGFHAMQIiIiCjkGIERERBRyDECIiIgo5BiAEBERUcgxACEiIqKQYwBCREREIccAhIiIiEKOAQgRERGFHAMQIiIiCjkGIERERBRyDECIiIgo5BiAEBERUcgxACEiIqKQYwBCREREIccAhIiIiEKOAQgRERGFHAMQIiIiCjkGIERERBRyDECIiIgo5BiAEBERUcgxACEiIqKQYwBCREREIccAhIiIiEKOAQgRERGFHAMQIiIiCjkGIERERBRyDECIiIgo5BiAEBERUcgxACEiIqKQYwBCREREIccAhIiIiEKOAQgRERGFGPD/A741WTN5AmffAAAAAElFTkSuQmCC;" vertex="1" parent="1">
                    <mxGeometry x="-109" y="882" width="666.46" height="615" as="geometry"/>
                </mxCell>
                <mxCell id="37" value="" style="rounded=0;whiteSpace=wrap;html=1;fontSize=31;fillColor=none;" parent="1" vertex="1">
                    <mxGeometry x="12" y="34" width="459" height="767" as="geometry"/>
                </mxCell>
                <mxCell id="49" value="" style="rounded=0;whiteSpace=wrap;html=1;fontSize=31;fillColor=none;" parent="1" vertex="1">
                    <mxGeometry x="490" y="35" width="459" height="765" as="geometry"/>
                </mxCell>
                <mxCell id="19" style="edgeStyle=none;html=1;entryX=0.238;entryY=0.088;entryDx=0;entryDy=0;entryPerimeter=0;shape=link;" parent="1" source="13" target="17" edge="1">
                    <mxGeometry relative="1" as="geometry"/>
                </mxCell>
                <mxCell id="22" style="edgeStyle=none;shape=link;html=1;entryX=0.813;entryY=0.05;entryDx=0;entryDy=0;entryPerimeter=0;" parent="1" source="13" target="18" edge="1">
                    <mxGeometry relative="1" as="geometry"/>
                </mxCell>
                <mxCell id="13" value="" style="ellipse;whiteSpace=wrap;html=1;aspect=fixed;fillColor=#e3c800;fontColor=#000000;strokeColor=#B09500;" parent="1" vertex="1">
                    <mxGeometry x="179" y="93" width="80" height="80" as="geometry"/>
                </mxCell>
                <mxCell id="15" value="" style="ellipse;whiteSpace=wrap;html=1;aspect=fixed;fillColor=#60a917;fontColor=#ffffff;strokeColor=#2D7600;" parent="1" vertex="1">
                    <mxGeometry x="151" y="290" width="80" height="80" as="geometry"/>
                </mxCell>
                <mxCell id="16" value="" style="ellipse;whiteSpace=wrap;html=1;aspect=fixed;fillColor=#e3c800;fontColor=#000000;strokeColor=#B09500;" parent="1" vertex="1">
                    <mxGeometry x="333" y="306" width="80" height="80" as="geometry"/>
                </mxCell>
                <mxCell id="20" style="edgeStyle=none;shape=link;html=1;" parent="1" source="17" target="16" edge="1">
                    <mxGeometry relative="1" as="geometry"/>
                </mxCell>
                <mxCell id="23" style="edgeStyle=none;shape=link;html=1;" parent="1" source="17" target="15" edge="1">
                    <mxGeometry relative="1" as="geometry"/>
                </mxCell>
                <mxCell id="17" value="" style="ellipse;whiteSpace=wrap;html=1;aspect=fixed;fillColor=#e3c800;fontColor=#000000;strokeColor=#B09500;" parent="1" vertex="1">
                    <mxGeometry x="254" y="200" width="80" height="80" as="geometry"/>
                </mxCell>
                <mxCell id="18" value="" style="ellipse;whiteSpace=wrap;html=1;aspect=fixed;fillColor=#e3c800;fontColor=#000000;strokeColor=#B09500;" parent="1" vertex="1">
                    <mxGeometry x="84" y="187" width="80" height="80" as="geometry"/>
                </mxCell>
                <mxCell id="34" value="&lt;h1&gt;&lt;font style=&quot;font-size: 31px;&quot;&gt;Zone.js&lt;/font&gt;&lt;/h1&gt;" style="text;html=1;align=center;verticalAlign=middle;resizable=0;points=[];autosize=1;strokeColor=none;fillColor=none;" parent="1" vertex="1">
                    <mxGeometry x="175" y="430" width="127" height="81" as="geometry"/>
                </mxCell>
                <mxCell id="36" value="Con zone.js se debia recorrer&lt;br&gt;todo el arbol para detectar el&lt;br&gt;cambio susitado en el&lt;br&gt;componente" style="text;html=1;align=center;verticalAlign=middle;resizable=0;points=[];autosize=1;strokeColor=none;fillColor=none;fontSize=31;" parent="1" vertex="1">
                    <mxGeometry x="30" y="546" width="425" height="161" as="geometry"/>
                </mxCell>
                <mxCell id="38" style="edgeStyle=none;html=1;entryX=0.238;entryY=0.088;entryDx=0;entryDy=0;entryPerimeter=0;shape=link;" parent="1" source="40" target="45" edge="1">
                    <mxGeometry relative="1" as="geometry"/>
                </mxCell>
                <mxCell id="39" style="edgeStyle=none;shape=link;html=1;entryX=0.813;entryY=0.05;entryDx=0;entryDy=0;entryPerimeter=0;" parent="1" source="40" target="46" edge="1">
                    <mxGeometry relative="1" as="geometry"/>
                </mxCell>
                <mxCell id="40" value="" style="ellipse;whiteSpace=wrap;html=1;aspect=fixed;fillColor=#e3c800;fontColor=#000000;strokeColor=#B09500;" parent="1" vertex="1">
                    <mxGeometry x="657" y="94" width="80" height="80" as="geometry"/>
                </mxCell>
                <mxCell id="41" value="" style="ellipse;whiteSpace=wrap;html=1;aspect=fixed;fillColor=#60a917;fontColor=#ffffff;strokeColor=#2D7600;" parent="1" vertex="1">
                    <mxGeometry x="629" y="291" width="80" height="80" as="geometry"/>
                </mxCell>
                <mxCell id="42" value="" style="ellipse;whiteSpace=wrap;html=1;aspect=fixed;fillColor=none;fontColor=#000000;strokeColor=#B09500;" parent="1" vertex="1">
                    <mxGeometry x="811" y="307" width="80" height="80" as="geometry"/>
                </mxCell>
                <mxCell id="43" style="edgeStyle=none;shape=link;html=1;" parent="1" source="45" target="42" edge="1">
                    <mxGeometry relative="1" as="geometry"/>
                </mxCell>
                <mxCell id="44" style="edgeStyle=none;shape=link;html=1;" parent="1" source="45" target="41" edge="1">
                    <mxGeometry relative="1" as="geometry"/>
                </mxCell>
                <mxCell id="45" value="" style="ellipse;whiteSpace=wrap;html=1;aspect=fixed;fillColor=none;fontColor=#000000;strokeColor=#B09500;" parent="1" vertex="1">
                    <mxGeometry x="732" y="201" width="80" height="80" as="geometry"/>
                </mxCell>
                <mxCell id="46" value="" style="ellipse;whiteSpace=wrap;html=1;aspect=fixed;fillColor=none;fontColor=#000000;strokeColor=#B09500;" parent="1" vertex="1">
                    <mxGeometry x="562" y="188" width="80" height="80" as="geometry"/>
                </mxCell>
                <mxCell id="47" value="&lt;h1&gt;&lt;font style=&quot;font-size: 31px;&quot;&gt;Signals&lt;/font&gt;&lt;/h1&gt;" style="text;html=1;align=center;verticalAlign=middle;resizable=0;points=[];autosize=1;strokeColor=none;fillColor=none;" parent="1" vertex="1">
                    <mxGeometry x="653" y="423" width="128" height="81" as="geometry"/>
                </mxCell>
                <mxCell id="48" value="Con signals ya no se debe&lt;br&gt;recorrer todo el arbol, como&lt;br&gt;esta basado en un modelo de&lt;br&gt;reactividad, se dara la seÃ±al&lt;br&gt;que notificara que componente&lt;br&gt;se actualizo" style="text;html=1;align=center;verticalAlign=middle;resizable=0;points=[];autosize=1;strokeColor=none;fillColor=none;fontSize=31;" parent="1" vertex="1">
                    <mxGeometry x="498" y="490" width="444" height="235" as="geometry"/>
                </mxCell>
                <mxCell id="50" value="" style="shape=switch;whiteSpace=wrap;html=1;fontSize=31;fillColor=#d80073;rotation=-15;fontColor=#ffffff;strokeColor=#A50040;" parent="1" vertex="1">
                    <mxGeometry x="635" y="283" width="33" height="33" as="geometry"/>
                </mxCell>
                <mxCell id="54" style="edgeStyle=orthogonalEdgeStyle;html=1;fontSize=31;fontColor=#000000;strokeWidth=2;strokeColor=#FFFF00;" parent="1" source="52" target="53" edge="1">
                    <mxGeometry relative="1" as="geometry"/>
                </mxCell>
                <mxCell id="52" value="" style="rounded=1;whiteSpace=wrap;html=1;fontSize=31;fillColor=none;strokeColor=#FFFF00;strokeWidth=3;" parent="1" vertex="1">
                    <mxGeometry x="-23" y="1188" width="281" height="153" as="geometry"/>
                </mxCell>
                <mxCell id="53" value="Declaracion del atributo con su respectivo valor" style="rounded=1;whiteSpace=wrap;html=1;fontSize=31;fillColor=none;strokeColor=#FFFF00;strokeWidth=3;" parent="1" vertex="1">
                    <mxGeometry x="531" y="1008" width="413" height="114" as="geometry"/>
                </mxCell>
                <mxCell id="66" value="&lt;p style=&quot;line-height: 100%;&quot;&gt;&lt;font style=&quot;font-size: 15px;&quot;&gt;Como si se estuviera metiendo la variable en una funcion&lt;br&gt;y se tuviera que actualizar por medio de esta&lt;/font&gt;&lt;/p&gt;" style="text;html=1;align=left;verticalAlign=middle;resizable=0;points=[];autosize=1;strokeColor=none;fillColor=none;fontSize=17;fontColor=#FFFFFF;" parent="1" vertex="1">
                    <mxGeometry x="495" y="733" width="399" height="80" as="geometry"/>
                </mxCell>
                <mxCell id="68" value="" style="shape=image;verticalLabelPosition=bottom;labelBackgroundColor=default;verticalAlign=top;aspect=fixed;imageAspect=0;image=data:image/png,iVBORw0KGgoAAAANSUhEUgAAApQAAAHzCAYAAACe1o1DAAAAAXNSR0IArs4c6QAAAARnQU1BAACxjwv8YQUAAAAJcEhZcwAADsMAAA7DAcdvqGQAAABhaVRYdFNuaXBNZXRhZGF0YQAAAAAAeyJjbGlwUG9pbnRzIjpbeyJ4IjowLCJ5IjowfSx7IngiOjY2MCwieSI6MH0seyJ4Ijo2NjAsInkiOjQ5OX0seyJ4IjowLCJ5Ijo0OTl9XX26FgpZAACzBUlEQVR4Xuz9CXxV1b33j3+sttZmJhAIYxhMDEOEIPMkOJEfGC4NlFpuxVjo76lVL73y9PIU9d5H5P6oP22peu3zF/WIrXopcLmJ8AuKisyTgoYhgiQEAwQCJCQkdejgf6211z57OEPOyTkJJ/B589pk77XOntZee+3P/n6/a+1revXq9Q0IIYQgKysLZ86cwV//+ledQgi5UklNTcX06dOxY8cOHD58WKeSlkJBSQghmoyMDFy6dAlffvmlTiGEEBIK39J/CSHkqqehoQGJiYl6iRBCSKhQUBJCiKa2thbffPMNkpOTdQohhJBQoKAkhBAbp0+fxre//W106dIF8fHxuO6663QOIYSQQDCGkhBC/NChQwfl/r7++utxzTXX6FRCCCH+oKAkhBBCCCERQZc3IYQQQgiJCApKQgghhBASERSUhBBCCCEkIigoCSGEEEJIRFwzYMAAdsohhBBCCCEt5pouXboEFJTyO5cXLlzQS4RcfmSdPHT3Sr1EyJXBgLdmsa0l7QLqAhIICkrSrpB1srGxUS8RcmUgB1BnW0vaA9QFJBCMoSSEEEIIIRFBQUkIIYQQQiKCgpIQQgghhEQEBSUhhBBCCIkICkpCCCGEEBIRFJSEEEIIISQiKCgJIYQQQkhEUFASQgghhJCIoKAkhBBCCCER0eqC8pvvfE/POecJIYRED7a1hJDLSesIym9di68yJ6Bu1jL8NbmbToSar5v1W5E3XvyGxlHSNtwcdw2251wf0jQ4jvWStCPY1hJCYoSotzR/zv0+LvzkD6j/v34F/O0v+HbNZzoHav6av/1V5C3ChftfU79tnltw/5IFuNtqK/3T7W4sWHK/+DUhTur+qmdC4MJfAn7a3sG8N0tR+d6v9VJgfv1eJUrfnKeXSOT8Gu9WluKNn+jFqBL+tnvkT8NEPe/D7dMwLUPPtwLRb2s1t9yPJYVsSQkh4RF1Qdk08sf4W1yqmo/b86b6a+d7H/5J/f1bfCf8ecRsNU8uI/LhseBupOtFB1eISK/9qyESD/75GzxY/he/0yGRJ6n9W2iCkrQm8/BGaSXe/X/1Yjj85A2UVr4rpGFbcC+eeOx3+N3aRb6i8vZF+K+nfodH/+1enRB9WqutvWVQX9SdO6WXSFuQPnUBFkz12woHzSMkloi6oPzWV43q73UXKvGdz/ep+b90ycJfU3up+e9U7lV5kmu+vKT+EtKaNP5NPFSFTpSVfX/T39H3hmswJN45dfo2IHVnk/gtIaHxGgr/13Ic6zUPv3vzQQzQqch5EG88NQ/9TizHL+97TSdGn9Zpa9ORnlqHI/ur9TJpC7p1SkHtGf9lHiyPkFjimi5dugQ0yaSmpuLChQt6KTRqZ/8ef+3UB0nrn8T1n21VaQ13/DPwzd+R+O4ytSxjfqSb5ts1x5Dyxs9VWmCky/tWnHvhabwlX5ql1eyBkUgxMlG+dhFe+VDMqPRO+GAtMH16XyPz2Fos8shMidzOdBg5ddhlbs+B/TfubVv7rNv5PJ5eZ9zgtxQuwa3ndqF21EhjPbVPWNuxHYN803yw0wdYi+mY3k8lWfvQyO2ZeSIXaxe9ApXt5/zsxyGxr2vl6fJbewRZ0/U56GNSxzPKPCvXsUjLpVmOAnN7jnUc5ds2yDrZ2Gg8SMNhbfZ38Hfxt6Dsa7zU79vI/p7vu1TNX0TZln2ll4IjXd6L0kqQcdu/qGXp2p5lFlfDDizJ+RGWi1mZnlezEgcHzMLoRJWJHYtz8KOX5bzeziiVIS7ASu/27Dh+49q2d584hpUZt0OtLa10j6Xh4M40jFbrGfvcdLu5HfsxSDdvHmpWHcTAmaNhHKK1D4Xans4TNOxcgpx7jFzf87Mdh8SxrpVnlt9KzNLnYB6TPJ5Z8N4C7mMJdrz/77uonOld0zjOdyeGXxbe5RBR1kghII88jXv+H2DRqwswUIjJf5q+BJv0T5ojPj4+BtpaiWwvclD6wjncqts8RzvjaAtt7ajZPtnWU+1JtfX7wNuxtXMO0nH3ggcx0viR1T452iY/bWQoxyC3ces5PP9BJzyot+Vo/wKdp1k+i0qRo9t4x3kFO+ZBos4dyNHHbm7T+cxB3S48//RbMLbmL+9D3OJv+21IS3QBuTqIvoXy6yZcW3cK1x/brpZlb8Ovbpqkpm+uu16lycbv2oYaoAUWyvQhnXDkhUVYtEhMa8vRd7rdJdsX0+VNK/MWPY9dqdO1q0De5NOFqtDrLQosJr2/eWEXzpnpomGp9a77PI7c9CDut/mBU0Z1Eg2MzFuL8n7TsUQ1ONay/bcQyzkH9LbEPjpMt+JDpVibnioaDbWumKR4dLijbecn1sWo2c51hVT1f4wpGHkr8LrKs46pet3TqgxVQyXyHA3Th6+ofdSpBnuRtxF+8KYj1vG1sZiMBBlH2em6a9T83GN/wZjSrxyTtGDW/lVKzpbwawwV0igjI0NMS7ADo/GQLW4ycVQe8DuZJ6ZVNRj9mHbJCgG0aMBBLFHriSmQmLT9ZuUhK31WJyGkzHVXAbNK34C1134YiOdU3pKdEPusxEP25X+y/zYRo+8CntPbWnluNBZ540OFyBKCsGaV3o84v4MDFjnc0fbzW1neD7Mc6w7EwcV6Xfcx9p2FofuMPOuY/gW3yzJsEPJT7tMhJk3sx7sSxxJHY5Y8nv95OzIW7xASUQrXDK/oDa8sWsC7S/D9+57GwawFWP9fQkxKYRmGmGwprdLWdktHh7oOuPUe3V6I9iHlpluMNkiJrCxv+/u8KLuR9+j2Kb0TUmzrPb+zDn0H3Y/7Q9qOWM/HpWsIs6xPnzfaGtnedRG/UWJSNtPGumuPiTbRjPcM5xgUWZhttqfyWXKrPpdg52mWj9nGq3Y4Tz+DfI+5g95mepcOqEu91RCV5jbvlGt9iFdkm6zb2UVeMSnxzcPU2Rh5wWzn215MEhKMqAtKfNmIuA9XqrdkyRcD7sI3135bNXBfinmFyPvenjdVgxgu1etescTgh6XiVrMjbjyvyKnGWx+YDUg1qsULVQfZIAXilhz0PbbWukFPvYW3xHz61Fud6Xq7fQd51Zp4Qy3Rb9cfovSY77Jjv659fHAsBVlDZP4tyBsF7HrT1qB8WIJdotG7xdshyXZ+pz7EkboUdFKb1uu+Y264Gh9+Wmfbr3gb9m7XzzGFSvU51KV0QnP9o2IRGUd5rdCTP0u/Dv/a8zr8R9/vqOmHHa9F3LVQebV/0T8OGyGCvGJwOTYdEmrIRsPO5yyL1/9cKcRSPwyVAujTGjQkplnWOB/mYeIAYMfvLFH1L/fI+V9jlrje9nS1XSGbJno7lBxDiRZUy989qESWY9mx3wbnPt4QoqzvUCV6572Zh37lK3H7/zTy5Pn96O1j6JdrRSnaz+9f9onK1amHEmjGuiW2c/9IiD/bfm3b9T2mYNiP91/wkWgE0roHk4ThlEU7ohXa2vQhWUhJqcUHprCR97zKEa3MnSOBna9729/q/Ue87YEUTLCtV32mVup4lDoEkoHcTu1a86U+Hbfc5Mele0seRorW73XT8ifaylfWAXff2hflay1r5ocHxMVPTfeKtlCPQf0WR/C62Z6GeJ5KtMp92C2qdeegfiqPWYg901qpyvKCePaIeem2TrnwgeMl3BunKp895jbcBMsjJMaIuqC8ru5zfLfsXb0EfG//WqQtu0tNN3xSrFOB7x5+R71dh4+0JC7BEjXZ3AH+sDUSH3oMq51cz1+As3qDDBCI7pMut6sbsUg5dc48Qkktqh27kkLYFI1uDJFskYKRD5jlskS5pVM6+Zd+zn2GgWjUn5ZWU7WP9tVZx+zpve7C31D9NTA47ho1JV13DTpqy2VdBPGT0mJYWVmpJq972i/LUWWYvoGXf4QcabVT6/nrSNIPaYk1qPLrfnWny+0mIu0mvRgJL1eJrVs01AiRaEcKYS0afZB5elbRd5a3XCqVKzsNPfz1onbtMxyO1TgFfJsjXd7SzX3kaUz5vmGpfHOtn446UaY12lopfKwXYoEUUEoU3YKcfn5iK7XYca+n2lP38qcf6u2IajHdbKseRKcPfC1tqmOQ+r2NbrcgK6Ucpa7fwibaQjsG47flH9iEpjxPNRP8PNVx+S0fI096oLxtcCdTQBrbtF74jf2bItp+XG7cedXrXleet/bW/pKrg6gLyu/t/RPw9+afzNf8/a/4nny7DgspJmU8pWHuV+5bneMX280uBdhbT8t1fF3WJoEEmE+6Y7uRYW9YgA5Id+zKCJA/F9KOtFvEPtnehqOGdIXLbfu442Mbs6d3yrevwStn/4Z7j36NfxTTy2I+5TqVJURnwHDioJjxgMqtq9yowQTOPPTo1ICaT/WidNPK9Xxc1iYBBJhPumu7kfCTHkhrqIEpIxPTXPa7m9KQeK7Ka9EMhoxjNMvFmMKMT4x17PGT9zyPQ6XP40fS/S076rSyqIx+W+vbIcfZ49v5wmtZ4Nzr+Vodne2cs60K5Lb1sVpKXNY66/jCOQZD4NnbVaeADXaezuNSgs9mcJAxjT7tr3STO7bpbNedZePEN894jskwAa+rn5AYIfoxlLrnoeRi/hOomf+2Y7p497/pXPnbMF3e7htTugP0rEFfWyyOEJ/T+6L8gLu1Eg2D6f6WsTL6TU+5NezxjiLvbjHvky4aA+V28dluiPS71RpT85b7Mb2f+cYtXdEpVqyORLl9juBDW+PmH7muLZYoEmSMUihCsZ25v83xJZ/u/W38W89rVaecm793DRb3ug5P9f6Oygt1DEo3/dISbVY86aZ2WigTR83yWh/nvfkQRuMgNrlFlc39bY1dKd25iY4Yv1+/acQZutPx/87yv92QENv6kfcI8cY/jQYObVKCUbmE+86yxUyK/Lv64dg+33hPN3JdjHooCmNGRjCMUKtyLzz/j9Gb+5+kmNSpkKLyl0bv76debb1hg6Lf1nZDpxS38DEF1Cmcq7O1r6J9nO0Ns3GvJ5ftgs0uoFzb8WJ4nsx2VnpR7DGN98vfn6pGbcpI5JnNnG4/P1Au5jCOwfUcUfHn3u00d552C6lTtDqO2Y40QBwrtayaytJq7t8pLlX767U+uvJsKHc+ITFG9GMoTa69Dn9P6aoXLP7eoYd4ZW7hbk+9hdflm5l2KSwZJN917ZQL+TVbuxymo8PO5/XbrwyW1uuISXZesXrlaaQ7VwZRm66YB7Kk9vRND+CiCZljR4B79Lamd8CuF2zxQJ5FWHthJB7Ux6l6IfqJ//GHdOkbrhC9biiDwUtUnKaxTx+rrTj3D6RQFXkqTEA1dnr7KmjdX8/M2OTzr77B10Ivyg/hTEy6Fv+r+3X4n92/jfGJ31JpX/0dOCF+0xL+5baVqBm1SLt1H0LaOXcMZQ2GarfvolE1WGl2NJG9kk13sOq8YusdrfmX23QnGf27WWmGZdCdXnlXjas3dDg0YEfNUH0sizD63EqrQ4t0yy/egbSZej8iP+3tDFtMZRCUS192QjLXFVMIg8FL972K05T79Gu1DYLYZ4nsGCT21foDyr+Gxxf/k//e3LKjzi//CU/+W+sNG+QlWm2tT7yeXUBV4603ZQcUI2zIuP91HKR7PdVxxfYi7BBQru2YbYsL5drV7ZLc1zllefwQr8jOM2ZbrDrn6DYonGNQ7m2jXZPbMToamm1ZkPNU23SXjyX4HMcsJ/1i7rZiqv17tyMNHDpcyccg4Mqzt7/y3FvDA0VIBER92CAH3/oWvhg0RQ3Ai2++QdzO13DDoRLR0rW0N237Rg25442rIS2hpcMGSb59DTBEqMdRCddgrBCV0lm4s/5v2HnpG+xr+rsah/Lqo4VD5ZCo0pJhgxywrQ0Z2Q7Pxuu+RgUSEhw2iASi9SyUEtGY3fDJW+jwaiFSxXTDgfVs4MhlQ3q09zT+Hb+r/htmfvo1figmOS/Trk4xSa4Y2NaGTLCYRUJIy2ldQamR8TvXfP1nvUQIIaQ1YFvbHL4dcggh0aF1Xd6ERJlIXN6ExCoRu7wJaSOoC0gg2sRCSQghhBBCrlwoKAkhhBBCSERQUBJCCCGEkIigoCSEEEIIIRFBQUkIIYQQQiKCgpIQQgghhEQEBSUhhBBCCImIZsehJCTW4DiU5EpDjkNJCCHtmWYFJR/ehBBCCCEkGHR5E0IIIYSQiKCgJIQQQgghEUFBSQghhBBCIuKyxFB27t4TPfvciLSu3fHNN9+g5vRJVFV8hrOnqvQvCCGEEEJIe6FNBeW3v3M9Jvxf0zBo2Ci1fPHCefU3ObWj+vvJrm3YUlKEv/71r2qZEEJIYG6OuwYv9P2OXgrOz8v/go+b/q6XCIkmPXDtoAXIvW8aenYQi7XHsPfVx/H5gR1GNrkquDY+Pv7f9LwP3/ve9/D111/rpci47rrr8KOf/TN69LkRuze9gw2r/og9H2zExzu34uCHu/C3v/4FQ0aNR7/+g3B43x78/e9s+EJhyvyn8OPs89j08RmdEotMwfynpiB14y58plNilQ7j/m/80z90wee7P0O9TmtLLvf+/dMBE+b9E6Z3+xy7jsbOUbWEsMo393488YsJ+F4z9XZI4RP451u/h427IqvdLbn213/rGszoeK1eCs4fav6Ghr/phUC08TkTi9Zsy4NvO5L7WwrJxbjlX36NESPjcG7DM9jyu+Wo+u5E5M6eh5tvnYqm6mOorwnV+zgE9//rAxhyaRP2V8vnxjyM/O5GcVw6O8aR5Txv5Heu2vuizWIox07OR2JKCl579tfY9f7b+HNTIzp2TlfTnxsvYfvG/0/lJXVIxZg7p+q1CGlbareW4ABGYO7DU9BTp7Ull3v//qnF5ncOAMPmYv7dsXNULSE2y9egJcdW+1fDwXTwz9/gwfK/+J0OiTxJ7d8COqNIGyEFxxOFQ/RSOEih9ZS4//RiVGnJ/S2F5O+Qu/Rd/MP/yMXX7z6O//75OHxS8hr+9pcdaFh7Ozb8/EfYuA3o/9AbKHjmv5D6bb1qyKzHsl/+Esve0ouXi7vn46l/vV9cgeZZv+yX+OWy9Xrp6qNNBKV0dQ8ZNQ4frP9v5eYekDscP/vVk/jxw79U088WLcFNN+ei7vw59ZvB4rdyHULans+x/tmXsFs+2B+86zKIjsu9/wCcEI37y7vVQ+fBO2NNioVDjJavIvxja/wbIHWibMj3N/0dfW+4BkPinVMn8SCXurOpOeskuXoJ5/7+9gJkKyE5Gti9xBKSOtuLFJZvL8e+3VX4S4dcDL33Xp1BrlTaJIayd1Z/TL3nPjz/v/9FCcV5//Jv+M71TsH45Rd/xku//t/461/FW/W//hrFf3wZJ44d0bmBkG9t9+CmOGPpy7I38binK+Y/dSM+++Uy8X5jIN8Kbyw33nTk/Ij6T1GbfRO6Nn2KN//3K0DhE7gn+7vGj09v9r5hSLeONx1f4tP/fByv7NOL/pDuoh/eBHON01v125VKT8TurcCEcV1VnnGs+9W8RB7XBCNLrLcZGKfPQa4r3krXiuM0fi3PeTrwlnEsxvnobQXav3I5j0BDWS1uyu7qs28v+jgryzqI38mtGOe8/2azHKwycOxXofdhy/d7PvKXtjzoa7DfLCPbdVPln7RbXQ+/64hZ4zg2o7LnBF0P7NdJH9PWSmSM0+ViWzc4PXHXg3MxBtvx0vNvi0e9f+zHZZarcUzOOiZSxbFMgHkK1rUJRPj7b5Ny6XUXHrxvDLDzJTz/jv+jMq/bZkyw1QHb+QaspwJ7njimzZ9nCHm11lvPHPek7V51bvM0NtvqkX9CKF9XnXS2B9Y+wjvfKB2bjbXZ34EMECoo+xov9fs2sr/nayeo+QswvewrvRSEtjxnafnR7aHPtr379FNvdTsmUfuEtR37MQS/ByTOe9Kn7XecX7B1bXlm+fm09XA8q/yVSeDjdR2nulfPYkLYZRGg3bcTwv0d95NSTBl7PU6+I8Ri0dP48s86w07SPPT8yU8xeFAnfF2+Ccf+PBT9Lj2HDcuX6x9Y2K/3l2Xy/EfAeL7p6y3LoJs4r9wGRxslz8l8rttx1B9Xm2jWVWf56/3Y20NdF5x10SpTx7Z82l2jnJutQwHuEWO9SnyadJOoB6fxS5HeXmgTC2XPvjfi7KnPVY/uLt17+ohJyXdv+B7SuvXw9vru0aefzgmEISYzPn9TFPgvxSQqos5pju9mJwpxI9aRlUA0avf0rMSbahs2c7VMz64VF1mn/6eobD+cL6peYIbcLMTYf+rfbz2NruPsv++KCX0/09v6FMiejvtzjRxZgSaIamecxy/xWV9b4xEGwff/XdyUZOw/eKPSFRniAS5/92YZcNMPn8J0+/Ldhul/fflpfLfnEMsNcPeN6Hp6t7pZgp/PFNzozXsTn+ImTJcuoH37UdnUFTd6XTpi2+JF+dMt8noEWEfz3WzZAJnnLRpYx3US5y3Kea0+ls31N+Ge+cGuosnnePv5l8QjfQzmPnAb0nSqHfd52svVUcfE0cgHAkRjpH4rrn+D/l1gmt//ZSmXE2/j+Ve3A6Pm4sHb/R+VousE1dib59th3BNWfQ9YT0U5/TDDyhMN9whbY67uSdu9Khtqw33oWs/1oPZPKOVrR9RH0ch7931a3M/28gp4vq1/bHV/BTpdd42an3vsLxhT+pVjkhbM2r+2JCa9Fc9ZiUl429c3y/Qd0Wy7a7VjRt15Ck+Z7apPmxfsHpDPjwnoIMSeyhOTVZ80tvOzt33mutb97D5Gf239frzyv2UZGgIzUD2wH+/m0+Jcx8utStevuL+bhOyQ+/SKqvDKIiRCuL+vFaqh6cAGVPe8F1OWHcFt//w7JCb1MPJ6P4GsR0tRsGyBaJs+wpbHxmHDk4WouaSyfXHd02vF66Mlum289RlOx2VgiG5DVNvX9TQ+8ycm7W2E1sSqrU4Swk+n/1IKfocb294ebsZpce1leMF+z+OqLJVoFHmGeA3e7joIWIdc94j7eLpm6HrQfsSkpE0E5TXfsgWNG+2eX771LeNwpKi89tvNBFzkDhHC51Os9T7E1+OV5t6+NPItyHszn2rAl3GJLgEnGozcruLmtd30+17BbtGgGoJHVIanxM2rJzOuZb9nmfX2IW8APWsg3kBMsarE03eR2E0uTMGEbFM4GaxfJiq0ng+H4PsXb0e2fcgbzDx+Z3zIaezW5bj/k0qxlmvZLCt1g1vlNqWvKK9yuf3mzkc0jmY5iGZx/+dfOuY7dNRHoq5vJfar8wm0jsGXZWtt571ZNLx2YSrO+y2zARZb2vIpvux6ozjKMLjOJmps7D9fK97EO9vKzsJRx5TY3my9SYu69IqrIQxKgP1f7nK5LlhUiut8d4uHY8bNRkkFqqdDCkd4X0oUYr21ZeY56XtSpHmPWb7UJMkaeBoN3vupBQQsXztCECxz7ttBwPNt/WOTcZTXinb1Z+nX4V97Xof/6PsdNf2w47WIE02vzKv9i/5xWLTeOav2wta+7ve8Iuaba3cltnZM1R33cgd09oqOIPfA3ROEDLA/P4x7APaXZNv5Odo+ve5m77nL9ty+30BtffPYj1eVd4D2xSC8sgiXYPf33y4dxPFf52DN/CU48mUubn1mK/KfPYKCRbOQVluCDT/Pwnu/+R+4eDJYZxzfe3q/Z60Szr6sx2eifnnL8W7Zpn5m1ROFNkLY2zVRr+QLvXom2dJVXRBPGEug2ttDuS9YzyIfgre7DgLUIZ+2Tl4vuw6x57Uj2kRQnjt9Ep3Su6v5C2eq/fbg/vvf/obzZ6vVfFrXbmKdU2o+IN0S8d36s1YFaSmiMj8u3w6UuLK/0X2JBtchnK43BY98Y9RvFmLyNqpibUtoBrMy7sdZR2e6WpyNSuUJdf/yxhVvXuY5eN94w0HedJbAdr4tBj8fu5i1uxPkDWc26ENuFm9on4ub1cgKuI4v7rJ1se+sOLpQMNyOE67bjZeeXY8anergrWV48/MM3COPK0jQ9pCOHfBlveth3Cwh7F/Q5uUiXWI/mYDr9r2EZesDHZUv8t6xCFxPmysnZYUx15WuPfXAldYfGVZhpIfWcSG08nUgrWr2fQfBOt/WPzZpoZSsu/A3VH8NDI67Rk1J112DjtpyWdfS+MlWOech6Jzk274aBGt3I8V1D7ifH/IesD/U7bjvj7ibjPteTdKVHUg0NnPfBUMaO/RsmxHu/f3n13DyhXEo/lkRzifUYNfDWdj6wr+gye0GDzgQQaB64IsU2F37yie0FKIdHEYLg65IjAv07HGny+sSWOg72ytfQm93bbjrUNcJ3m0Y7WBkLwCxQJsIyprqU8rNLTvjNDVewntFq/D1l9YFk/Mb167EF02NGHjLSBVnefZ0CMMMBH17CwMhDHzNzr6VrWvSd1F7PpD0kg9JGe9hCs1wrIyuipTbWaSESyT7bxnyjb6DvMF93hYDn4+8EWVciSlm3/RaoATSGlEv3xqNN83KT4yyDrqOD8EeVgJ5LE0NzZSN9UD/P+JNNFgMmynMlbAM4jI2LGmhEtr+27xczIfN3v8jXqKai+xzYt07weupu5zkehZf4lPvenryvgyZL3lSyFjudf+Efn29SGElY7jM/Uo3WBCcbUXrHpvZ0zvl29fglbN/w71Hv8Y/iullMZ9yncoSojNgqHxgWvWcAz3Mw213w8F1D7ifHyG1DZrTVqiLOVmGhXZKBPc3/iLbnq/wd5eQNF3gd9zyFY696xs/6Xu9pSjUs26kFU96URzeKzeBRJk7vZn2MAjhtbuBMUIf7HXIFl/ZTmkTQXn+zGlUfHoIE+/+vhoWSI47+fsli/CH557Ca7/7tZo/vH8vklJSMeH/+gccO3wAF842MxaXMhHbYxem4H41L90tNheJaBQnhPos97q/DTO2IwYl936M8BOz4UWJJttbkBRZejY4hinfiJUxmDLeDNQVqLdmyzQ/pHA6/MaYtHj/ESDdOUk3Yn5f+9ti8PORDwfLCiWFo/Ptbn15LTLGT0BGvWXyb26d72ZP8F4nVT6OxsZ+LOLN9u6bHJZPX1ogNgTB3N/K1aFjchSiLt0f0FIV+v7btFzCfdh0HWGJCHUP6nsnSD01ysm2nrrn9Ly6J+0xSIFozt3asusrrcx2i5Z02ToIdL4OWufYLvzFEItP9/42/q3ntapTzs3fuwaLe12Hp3obg56bvwmHqJ+zFKjqhd23fR1SeL+Yb0G72wwB7wGf54fRTgVvGzRyXfv9HAGyE0fLhhGKMmHc3w3v7sCXIxZh8r/8HyR3N2In3ZhC8h+kC/zsf2P9w8Nw7LjO9KKvt7jGZgkoV7Ce90V7xcYnOq6TVYb62WNrI6aIejXET7oRthBIlAanuXY3FJQ3ztaP4kpBv7+2LjImsuRPf8SPHvgFZv/8Ebyz5k0lGs+fMVzckn4DcnDX9+9BY8NFvL36dZ0aDPkGDMx/6h5Il4NEBixLXtk3AU9Jd8s4mbhZBZPfqHL8IBs5rytHWkAeF1sWeB43en8/9RQmqDzfXnkO9r2CtbI3tPn706fFGqGxftmb6Pyv8jz0nrZuVm9iBuuxuWwE7vmhOJ8fyrcaGQc0QufZiGD/LUc2CNNVEPRm240Z7HxkPOWN3mv2pThM19udaKxr5XpbrWDk5tb5sqxB5IvyUUvyOtld+OKa1t8o1jVylWUhSKxth9vzMSLEB7p6U/W6O6z9+jSIMqwCskefrpOqnqkcH8LZf9uVSwfcdveI8CwXp0WDebdRZ43z1fdVsHoqy0n25tR1XfXyFm//Zm2X1uCu4uEh1zXueLG66nUprZ6W61z1qg0gQMIpXzsytmuIvU6L43YQ6HyFnGntY/v8q2/wtdCLcd8CJiZdKyadofnq78AJ8Ztwifo52wSYvJaO9lV2evCXruptkHa3GQLfA77PD3WcQdoGC7Huf3a23c8CW0/fYEivzogfGmUqzyt09sP7XMuV+zqr06NBmPf38f+BDx6+F93vm4fxj2/F1+UbsOt1YwSBb0khOfsfMDDjetTs+29s+I0f97cN9z0d8PmmkW7vp8ZJA4b/kpbjQIqLarURsl0Tf/a700O8XgoZb5l7j1EnZXvT3DMsFNxtnUQeq7j32zOX7dOLX335hRqT8tprr0Nicgq+893vonT3dmwpKcZf/hKdr/O0W8Qbm3OooNhFiirZCzy0hjgU5MPIOexTMOzDNPhiulfbvyshXC5nuXhdQlFoHOV5yF6S7d6d2Mp8+xpR7kJRjkq4BmOFqJQhkzvr/4adl77Bvqa/q3EorzaC3wMkKnzPEJa5g3vgu6of7Veo2fvf2PtqcCFJrkzaxOVt8pevv8K7//0nvPn7Zdi7+T3U117AhZoz2P3BRpH2W7xXvJpiEqG4ZWMF2Xuu1tsLPBpIl0cHew9pcvUS0I1K3EiP9p7Gv+N31X/DzE+/xg/FJOdl2tUoJkkbYXbKmV+I4n/9J6z9eRY+8Ncph1wVtKmgNDlz8gT2bnkP6/9zBf6/la/hw63vi7RwnDxXFvJN2urtdQ9uqt8c82/VxjFPUK7pqIg/aZWV7oielY6hPMhVhK4D3ntBurb+M0r1ixDSevx5E778vAh/oZC8qmlTlzchhBBCCLnyuCwWSkIIIYQQcuVAQUkIIYQQQiKiWZe3HCrimmuCfC8xilzfZTAy032/91RfsRuf+3xtoBN6DumGL8o+xrmWjSvaInJyclBaWqqXIud7vW7GoO+exu4j58TSjUgYfxs63GDkeTn/MU58tEvMjESHu7Lxl50eXNKfvv3u0P+B5Kb3cObTz4DuM9BrQEcjQ3EeZ99eDat47Nv/CrWHziJuwPdwMeBvBN59h0bClF9idIY5lM55HPyPF2CNHXs3hv18CG6o3Igt63fqNImRbh/MvfaTJ7B3m16QjH0Ad93sPDfntiMkvQ9+kpWsF75E1UeH8Y7+/mzfG/vj1m62sca+PI0Pdp1BuV7nwpF9+G89Atbwm3MxKMW5frBtR8YoZP/kDsQfcZWVDeN6AJ+/+xTKjuhEgfs6fV4Zj57xZXh7pTG+i/t6SL6wXbdusx7HQH05auUA9Ddno9G2D+f2BV8ex46X/wDnaTd//OHxXdw5sj962Hb79anD+MNn9gYiGf9wax+k6iWJ9/oldMGPh34PRz6owB4jy4bvtlFXgZc/uagXBGr9rjBGfnTtW9aBXn826o1KkMfRFX921AVzH+46YqR/74RVz1Sd/N5pvX/nOX196jQudeugt23bT7x1DKminmb92Ty+UMotAtS9i4D3q70uSbz3vlwv65Kt3sh6aatnWT/G+Nt7w2yqaiuP44aMBJSr/bh+K5D76duo67BrXQNnmxJSHVbbMfcZPdxtjnU9fOuNbHOsaxmsLrjrjcBR5/3UcYG9fXO2ZZKLOKDWNfYL+29dac5zuoiqU99FD0cdDvW8xD4/+jOyBgA71P3k/7id96ezXCSh3fcadd7Q52rh82wQ+Nw7AcvMwnhu+KYHvTdDalN8y91nH6Gcvw/fQ6/BNwKffYITtk9lNisoa2qMzy+1laiMdUaOHIldu0IXWG1Kn58iM7sRFevfgP4aW4xxL25dPBQNq/8J+z7RSYpA6SQ4dyJ34QwkfvJTfFCik9oV0T7+G/CDO25B3NGt8JzQSSQGMK5zetVqrH/9HZ12eenzwIvIrncej0y7Bdvwpxde0ynN42877ZZe2fhfmY0o3liFQzpJpQ0GdheV4X2ddHVitC3dznyI3x74QqdZDBh0i6jlh/zmxTqTRo3DzY3+zytcmnV5X3vttbjuuuvUX07XIj4+3m96TEw3pOKGpBRc5y8vBqb+j89C1l+O45OD7rwOSOicjrg4dzqn4FMi4tK6ISHJX157mKJ9/N9GcmICUr/rL4/T5ZvewydbLiBpwlyMG+0vv62nGejWrxuSUhJtafMxYHA3XPetP9vSgk9pD/4Jd/S7gL3/+Z7f/PY23dIlDWmJ38UNtrR/yOyNtOv+igZb2tU5fY01n5xBpyHD8dM03/wbRdld+/XXPumxPt0yYgLu7noGWw9H59ibtVBevGhz6RDcddddePvtt/VSjDHwCQy55SIOvfobxNJongOWbsNtPcXMpY/w5v/9T5DOfScL8f03bkXt7yfjg606iYTAPbj1//dz5CToxc/X4dmFS/VCLCOv91R010snS8biv/6gFyIiAQ/9cCKSPi7Gk5/qJBI7/PiPeHjshQBtQBsz7ne472dDkagXJQ37/gOvPi2/1xMKsg4PxJEf/aNlzWv3GPfPoHi9KGn8FC//51Hs1otXPTcNw4uD66+QMumKR+d2w5GX9mKVTomUZgVlQ4MO1iOKqVOnYt26dXqJEEIIIYQ0KygvXXKEIF/15Ofno7i4WC8RQgghhJBmBSUHNncyffp0rF27Vi8RQgghhBCOQ0kIIYQQQiKCgpIQQgghhEQEBSUhhBBCCIkICsorlnFY5FmDpwv1omDcwtewxrNI5LQBhU+33b4wB0+veVr8HwU6jsSMwsnI1IuEEEIIaZ6YE5Tpo+/HtFl6yhsFc4g9ReIoTDLzzGk0H/3+mPPMfOTWFmOBRydc0axA0d405EdBwGbmZgOH9+KoXiaEEEJI88SWoOyWh+HYhqKVr4ipCGXIxiS3YGwow/sqX0872vejP3XEDBTeGboolr+fMcL+RVI/FD6N/IzjKH5khU648tm69F4U1+Zi3sJmJGVQC2Qm+nSrRunuC3o5BLImh3X9CCGEkCuR2BKUp0psAvECqj+/BCSlOq2UVxCZdxYiv38jtr9jnvNEdH5oNTp3nYuMx0owQk3PO77mcGF3KRr75wcRMeOwaHxvHF+3AM3JyTnPrMGaNXa3uOEml2lqesZ0IhvprznEmm+acqmb607trVNNpFvatm2vNdHXNW8gf/8aFk0Qs9J9Lo7Fvn3nsRisKN4HDJsW2PUtxd/d2WjcscGvBTJ1RA7ST1U48q6/azUG3DURibPN61GCjFydKTmyF2VJY1A4cySakfmEEELIFQtjKC8LqRg5sxBjkspQ7HGLmzhk/GQyvng5D7sX56Gsoi+yZ8/VeZKj2OApDixiJoxHVuJxHGjG1S3FZH6HfVhWUOB1i5tu8gKRVlCwDPs65GvhthVbjjQhLmu8FoECtZ8mHNmpv5UoRN/8YTUoVuuKad1xI10hRWM+0vYus7aNXMxXgnUrTtYCaZ19BaKDjHzM7/Sed9tx/oTj5i040tAbg3zEqbYEj45H2VsebDiiEx1kYlh/oGyfr9SMH/5L9Dj/lLoeu9eXo/MUu8i/gF2rPNhen418xl4SQgi5SoldQZk4CsMGJqC6dCcc3+pJzLbFUeYhXSe3HzIxuTAf2fXb4Vm1S8gRX86un4Gzp435hrJyoENPXG8saoKImD4piGuoQ4Ve9Md4U0wWLhFyzmQOBjnc5FuxZIsQblpEbl36Ho4nZmG8tBgKxo3KQlzle1iyWS0Ft4oWTkOuELnvLTX3Jrb96j40ZQxSorDiXJORbLdWTuiONNTgpNq+oEEcr3lsngM4LnK762Ox8C9OvZZgz2rsOq8T3WT1QXrjSXzmL79iDQ69vcmY3/cxzqILbuhqLJocfceD4sPxGFM4AyM76kRCCCHkKiFGBWUmhudlAweLsOeUTpI07HTET75/MB7D25uolMJFz4ZMcgeXoLSTjhxbTOW4zml6LgCJucjNAJqObLGJSYEScL2Rb3dLO9zWK3CgMg5Zo6RYG4fxWUJbFYcRoxlE5G49W4O4Tn2U1TOl9jhgCsJmhLE/pDhV2/Ii4yL1bEBSMTInXby8+Bf4vsThhi561ocEZOfSTkkIIeTqIgYFpRCTs8YivWob3j8U/PF+qeqk03rZHjiyAZ5gLmt/XKzFV3rWwO4y92C1rROJFGdBkZa+Z2Ws4Xw/cYvHLZe1OdmsmCsOaouldHfjCLaY1sNQSEyBXeYpS6qeRUUdmjp0x5xRQqWKl4i6TmIfMr/2pFP0hkCfTnFoOmeXoTJEoBnrYccb0T2+GhV+XeH+aMIXZ/SsxrKCeuDxxsQSQgghVwcxJigtMdl87+1UZI7JRkJVOap1Svsh1Li7uciY0heNRzfZBKUUk0Fc5lKcucWbm81LcO+64+g9VXd6UWlG/GG+tyOOHzxFKvZx3n1ZqNlid5cbrubeA/W6ExbhNbt1U7moe+M2b0caw0XetLfI4SLv3qkGBzxiW0KuThuY5hKGoTAO3TsANWd9ZeiF3avh2dGI7LsLMVnoVjvhDBWUOLsAnS8exkUdkiCRYtJ/PCwhhBBydRBTgjJhwM2GO7jHWMdYk8O1yzJhwExb+jR0/7yoXQ8b5I27c/XY7jzF7FFcgLg9T1nxe4LUERPFeRcHtoJpYWiJtwB4FmDZXiD3YbPH9FYsKTQ64nhd3mJy9qbWnXMSpfDTSZoVjxTjeIZe9+EUvPfsPpiRkdJdvqCgGDXD5uvtGp1/7jVjKjefRI10xeOAEpgrDtagd0acX2EYlOY6JEnr8FtliB9tF/HSJX4JJ8uDWMP7FHh7eGd32IuPn3vcEvhZkzEGgeNhCSGEkKuBa7p06fKNnvchNTUVjY2NeolIpk+fjrVr1+qlaCOHDfolbtieh8p9OqklyGF2pgLFBc0PHRQucuge1ds6Bse4lD3Xbzu3zBKqISB7f+cnlQYU6HLYoMEdN2D36y/pFEIIIYS4idFOOSQiPAtQXNmM+7olTFiEecPC7IzTRkihK3uuLw9DTEqUK5wxj4QQQkhEUFBeoax4xHBf+3a8aQEyJlK5snNRs+5ePVRQLDEH0+QYmI5hkAghhBDSVtDlHSat6/ImhBBCCGl/0EJJCCGEEEIigoKSEEIIIYREBAUlIYQQQgiJCApKQgghhBASERSUhBBCCCEkIigoY5K5yJBfZnnoCVyvU0jLGT9xCtb+81jcJ+bvK7gHa+cOwHgj6zLTA8/88z3448REoMsA/FHMPzNIZ4XEPOT913E89p6eXlyq0yNnyIvWdh96cp5OjRZL8WPzmMX04wd0ckhEWmYkXKJ2/zywEY/91+voohfNehDe9W8pxr3SNvsS3PE6HnKcaxgMGivKewoeFSvby97AqP9tU+cT8ejcK/H+cp+XUaZr1WSUe+sQvDzlvdWeylrWTdUO24g5QZk+2vrk4rS8UUjQ6XYcvxkd+EvYJHwSZ5dgwF0T9VKY+Dww2glKmNgb7SjSmtvWVK7pjcW3iemnC3VK5Oz/qbHNdeU6IaosxB/k8d727/iwXieRKxspsArS8OHvZ+OMTrqi2Tgb286PxrwovuRdySjh7HpR8ZfWOlThkd+8iem/2YYKndIa3FcwBUPrtuGRAzpBo17ShJid1gvoc4eYL+ihcy43wQXwlk2lODtkiiM/tgRltzwMxzYUrXxFTEUoQzYmOQRjKjLz7rf9Rkzt+FveEvnpv0LXt7yBl1C5OA+77d+MJi1my3mhWhrqVGNRUdsA1DVgi5F1mamXh4Kz58V/ZxpwFg2oO6ezSABYZm1N5PfPPOT9bDSw83mUbNRJVwH7fypemDrOCt8qeq4OTaKenxTK2172pB0zaKwQjFUoWlOlEwykmJyWUorfKjEr8qWwdf0mdhFC/I1SdL7DMpjE9MDmCQNmYlLPk3i/ZCcuyQQhOKf1Kr+sIjKaA5tn3lmIMd2qsd2zAeYZqW9HD48zFirWuL4hLV3hg1H7ci16/GQY4mXSxb342BSeuc9jRPbH+Pj8ZO82Gvc8hUNvb1LzPt+l7voEBvykA6oWP4iv7Pu143MMfpDWh4WjkawXLY5h3W13YL+0XBbAmNc5yprpTZOur6E4uLQGY83t1O/A8u/brBnq9/30QgM+XHpzFB5O0tUxFn30kkUDPnpjPZ7UO5dvyr8YYpr25U2/Da/KWWl9/FGOeHKsxz9uEg9agWogZMPxmxMYFMK2I0O68X6Fju/2xh9e0EkKI73f4X/Hc48uD5BmLN+SZOT6lLdGur7H1ti3I5DX4vYa2+/l9cvDeds16fLkJ5g3yiwzXQ/0kkWg428p8o16nKhUpUj5kVn2tuulcF7zJtu1M65nCt61X7sG0di/dEgLKLn9KRjq9fK4tq3rg/cuOrHNejhIN2bmCfy2Nsdblxz7DkoI5yW3f4dl2ajY+Ka2hMjz7YW6/UkYKvbbtH8bPu07VpyDvR66zst+3NHAp76YyHozC1ijr7/ZjtjrYsD73rWuwp1mLGeoPANpzTd/76yjtrwAx6t+n1aCxT8tF/X2QeD3Jei40Nx+gDoe8NxbilF/YV5fs87Z66mjLtivs2tdhTvNeX9IrLrkbgtteXKfI+ps94qB+n2HUlGf6oPWYfW7vpWO9d1pzn276294973Efl4G8jc5qPPTPjv3bd+2ce+k7H4TBzINK6NvG2/9xrk/I/2mctkOJOGZuYkocpVf4HvTvq7ZhvimBT/uwGVmPMdUogN/bZb87e21Rnq7iqFM75WOS/WpGG66u8U0vJvObFekYuRMISaTylBsE5OSr96egd2L8/Dxniad4qYvspUIzBO/W4OzycOQnquzJH0KDNEo81/eCwz/OTp31XlBMPdbJl6FpQhV68upOTEp2Tgbz0kX5ppjhjBR7kw56Qb2hY9QiX4YaHtTHzJYPCTKP7I1wP0wdWEatpmuUIzGTDN2z3SXLdXbXVODWxZuxBAjNwK0q0O8ZTWpm0m6PeRkawxEQ/mLIfXevN+KB/M00w1z5hD+cWMV4oaMM+JuxG8NMSlvyhC23Wosx/7DDUjuf6st/KAvOiY14NhmQxh2efIH4oFoXidXeUeKeIjOG1UjHrDG9pfvTMPUNguFSMRQ8YCte8Mo76ITPTDN60KSjehYdBaNonEttvm4bORDZZp6qBj5FYk5mKbzx08cp1xWxrpGvuOBJfZ7VjykzLyKXmOdMUZiWT1cZb6qNzlhhELYz2s9Pmrogdu92xb7FmLVe1xi231sVgOZP1TuV+1zrHqwFZ1IxE3ZxvqmK85YX2w7xXXcESLv9YuHPwguqLSYvChE3WJTfAW97xfiYDmQMdjmUn5gqBB3x3BQCUb5sjILyTv/3arj9vAKVx2VbVdGwSfIu0PkfVaDi0lpSDd+GYBEcSzyJcrcdj+M9Xf/yLYvaSCGyO1GGy0mVZ0zhYhMuyNJCBqzLtSLemPWhSocOCEeEZk2l+qgXkJMiHQldNz3h6xn6lcGrrbQqGc65lBaVRNTHILNl2B1uBnEeU3DVn1csh0Ghk61u8ODbbuZ82qOYM8AjXRVS1El8+W9NXSMrYy79MBNiWYZ22nAlvIGcU9OwR8LeqGzTrUT+N7U6/btYTuOJKSIF8VPy/TJNXvcgcvs1TVWOUnhbez/TR8xKXn1qGhX9HHErqBMHIVhAxNQXaqtk0KEJSQBCQOTUWW6u7dVI33sTGRGr+1rAzIxuTAf2fXb4Vm1Cxd0aug0ofLlB0V1kryEWiEA4zrZYh6lxdIUgac34fzFONxw2YMaF2LjzgZb478UA/s24MNV9pg/aX0w3/C1IErrq5a6TBjodJe98CfVgBsCdQ6elt8Zd0+eRRDvXxFzn2h8KzZawkHGjVQkZmC8WaYHthmN25gBeHSE87eXkzOPljgfZPJhW17iLcMzj95hs/A6yztSpICoXGNZa3yOJQjjFr7mey3FFM436Ss2WqJdNnailTUaUdmwoxQvehtFIfT3NzgfsAJrfeMB3LmjrYHp1cuvCBw/MQd9GkpR5H1oiBcKKeDsDb60IpmWP7HhCvEA6B7GvWkdl36YdDDNy2Jfdouiz7Yb8NF2ne84RkkPoSlEOXjXb8CTu13HHRHz0KWjaJZO2yzcbrpaYtKyNjZ33wP7V+3Axb5DvS+WSrju/JNR7x74AW7BDqyyW9a9CLF5u+23khfuwLryRPSbIEShuG4XdbKyMOqXofS0RFyssYKKK9eY1tJg9085ztcnouONelEw5xnf+r1mzWtYNEH/IBQ6WmLSbvUan50hCmar9dJ6oFQJhUH6pejV7eIF11aHZfvWtL/UaLMG5WCo4/6wI0SZaN+8v5WIts/7YqLCTzRCyJixj306JKKp1lLygeuwQLy8/cLbOeYem2VNIF7eH7Ed15aySh8BG3DbQc+reZp9BkhObPOKLUebI+mUgrgAYQtbNgkR+kapaFd6IE6ev0PwBb83fY5DvhycKPVe+1COO+j1CBXby0SMCspMDM/LBg4WYc8pnaSp3laCaj2PU3tQ1pCAZH89d2KVrD7NvPlGH4fgvEyc2XzQavxd4iYgHXt4G/LkUb/y9gp+7D2bqxYrsKCgAAXuqXCJeJ+NlER0T9GB0t6Gzuk2kWzZtFW8OYpGy0/A9eVDWnD0A1KgRN7HNgEvrT/e8jzucP1FhiEgMgqsbT/mcjsGY+vSe32vpZgWePQPWoL54JENe7CHlsJpSZBv6uaDQjb+yuKp1/Wx4l3G2FwzsD9QHQ1Il0R0Fg8u85zUZHOdR460jOvZAGSMkmEupmXRIvh9L9j4AY55BaZ8ST2GbX4FpH8Ci1wpAtPQRbwADRkshON5y1oZVBj7ZTnOnAeSu1rWyxWP+NbvgoJ7sWSz/kEI9BkiQyt8rV5SwEmLl1UX7CEagjNV+NQrMA3B8m4YQkvFLvtFxjYbLzH3ZQqhUmeJvcDruJAvXNoSZljU7OtJK6Otjgox7SdAqxUI7RlQIUWkiRDaXouxYHxzN4AQyy+Kc5XhKB9Btk/aotzsvSlfeG2eBikgvccR2nFHBfUyYVz7GBSUQkzOGov0qm14/5DdfncBl8SLTnxyql5upxzZAI+nGGVJY1A4cyTa4myazhkxlJcVW+PvI24Ccb7K6ya76HVdWZNhzWhdC6XEbvI3JvOtzkC6JW4qF41BlF2FkbL/42Pa7W08bK0H9lL8eKHsJGGV6fKdoT9UQsHb89w7hRbzGg0LpQ9264DroaUmu3WvGQxXkJwMd7njetutEoJmHyRRQsZJGaEW1rGF14nDvq6efGK5WooUZ3o2ALKurCvv5zcsIvB9LzEsg8rzoV5S7SE0zWMXeeaLkIEUgdKqKO6bjjXY+DFEuyXzG3D+M/2TkPG10EbDQinbJPVy43K9SmScm+Naisl60TUsUcoqryxaJ8LyqDis9Vq0GDTgZF0iUjoJkZpSh6KjYvODZH50Os0p1y9s964KJWo7mnsGBEN1rGoG+SJwVjzvnlwnz8vuXQh+b1ruZuPlwP2CEclxh4wSvkYnshgTlJaY9NfxpvpENRIGDrcsfN2GIzuxGlUuK2bscwG7VnmwvT4b+YWTxVm3Dtff9XNkJJejdp9OkHToqce2nIsMs2OPja/ONyE+c2LLxr9UsUeBXJvLUfLuMWTc/gnGdtyBjS5rhIM7XsfMUYle0amE0agHjfgmH6JgoVRvWOZbux3d+Dri0VzouMl3NxmNAcx4SpOA224DVPxWGtLFwzbZ7t7TeB9yurzDwhtjZsSqWRZI/ZAvaFmMa3QtlD3wjHijbyqvMhpg6QpOzMFPoyL6jd7mJluUC86Kt5T7njYkERW7wxFmphWmBWPh2UTzfQVhWCK0xcqKM402vhY6f6ge0XAOsxP8vjdQ4RR98/DQ7WnOEBpXWzTkRbt1U7uoR/3AqqPSRZ7ksnB2FWUiYz/FtpIH/wAdk2pwJoSXIidG7LJdiEbDQil5dc16w6Jlu3ZKYLjbIBfK9dkrB38ckWSFQkiU69JyiSoR571VtEvUHvcrXcmJLgunFJzyfhPb6pyZI96xDKERFbweAHGfTA3DQhn0vJojhGdAczQbX2oJbxmyEKfFWUj3pmrTxLbFy0FnezhCNI5bvSQIsStfPoJhc+nHlKBMGHCz8ZDqIR7S/jrenCrB+wfjrU45Y4E9K20u8HbG0Xc8KD4cjzHeYYMmovNDJRjxWInR47pPgZofMXuuzg+B5GEYLNdR2ziDssVmvKXsePMfqISZPxlfrN8Ldx9+52/C3PfG2Vi1E7hloemicokKJXDEnew3QF8Guev13PFUL9yhA/LN7frZdkQY8W6We8B6oEs3pwpm9roNxGRaBWSskBAs3jiVM4fwrgzI/pFdEATedusjY1fTMLUgzdsZx0DHtJpu6YUi32GhlL1jjbypfUWV0m5H7wDnKt6sH6aq38he2itFnbE48+jNRkccvQ01teH4pFZZG4H4ViC57ChlWBa911JMoQ0m7HK5SVdinRU3pTpoqSE0zHxj320RAmHERlmu/NtrxbLOa54GPPmSEexvnZsfd34EGMLQJt78Il44vy/qUd9Zor7oezuk+94I7UjGQey3iz1XWyRHKrCPqepTR1XnHyvut7pG3B+jBuK8vG+kd6VjP2TU14T/rJGW03rXsUUNee2Mzl+yvinhIN2tqiOOdS29eV4MV2mcuGu32Bti5XqFd13ZyaTohM4T+LSFqvOPFaMnh5TqMyQDdbJTiBRDKT3QJ0pDHhmxn2YdnYKU8jAslM2cl2rH1Xbli5hsv419hPQMCAUtDH07IIkXXrU9KXCN/RqdaMwyDeXerEKRPDZxLbydcTQRH7fg1TVm/fK3bwMVh6tf2mN62KBYJJrDBkUdOWzQmFprGKGYQwoV5/AyBoHSSXCiPexOW9Mawwb5G56DXF6M6+wcxip6+B3aKiaI3fvTPtQLaQOU8QE2sWhHCsteOOA3L8ZRIw3IodaMY4/dXt7kimPIi7NC64xDCLmCWI6S3+8AmnFft4gHNmJqmJ1x2grlZj+/MvZe9rxhOhSTbYbqER/AfS1jEKNkyW1bhBBWIw1YQpiCkrQ65nehp3bcgeVR/DwgMfC6rtvNZ95Ml7qr1y65cpFj1Ur39c+iFPogh/Px46qOGe54XcWKx1R7Z7p2Xa5q0jaomNeUsb4hNjJcJmqd4NoOOVSaO6yHLu8wiWmXNyGEEELIZYAWSkIIIYQQEhEUlIQQQgghJCIoKAkhhBBCSERQUBJCCCGEkIigoCSEEEIIIRFBQXnFMg6LPM5vIKvvJEfxG9dBKXy67fYVCSEep/H93SDf25XbaeF3eQMjv1P+tPg/CmRNbrNvxxNCCLn6iDlBmT7a+uTitLxRSNDpEI/CzDxbnneaiczofSXsimHOM/ORW1vcwm8gk/AQwm9qbxxf5+e7vBMW4bUWi8IVKNqbhvyIhXkqRuako7p0Fy7oFEIIISSaxJag7JaH4diGopWviKkIZcjGpNHmd64v4GiJTLdN2+SXVRtxqR0P+J86YgYKvd/ybh75+xkjmrEzFT6N/IzjKH5khU4gkbLiEZdQtDOhO9JwHAdaQbxvXXovimtzMW9hM5Ky40jMKJwMvzWp443oLu6mvUf0cgiEVM8IIYQQTWwJylMlKNpxVC9cQPXnl4CkVJuV0kl6r3RcOrgn/A/2xwiZdxYiv38jtr9jnvNEdH5oNTp3nYuMx0owQk3Pw26AvbC7FI3984OI0HFYNF5ayxagOTlpuHHtbnHDTe513T5j2tWM9NccosY3TbnUzXWn9tapJtJ9a9u21+rm65o3kL/XrmPpThbHYt++81iaI9C+LfoE2rayMJrrBrA09klBnJ610Pt8OFfk9Ua+dxvhu8NXFO8Dhk3zv2+JdGffnY3GHRtg1iQ7mbnZwOef2ayT0ahnhBBCiEX7jaFMHIXsHtUoO9QenXipGDmzEGOSylDscYuAOGT8ZDK+eDkPuxfnoayiL7Jnz9V5kqPY4ClGWdIY/zFxE8YjK7F5a5kUk/kd9mFZQYHXLW66yQ237TLs65CvxdVWbDnShLis8ZYQU/tpwpGdW41lIfrmD6tBsVpXTOuOG+kKKRrzkbZ3mbVt5GK+EqxbcbIWSOvcjEDMyMf8Tu95tx0XTGC5mPOMfd9iKlwi9mojMRf5gba9eQnulenP7kOTTjLxClwlnm2iUZ3XCizwrnfcKpdAVs5gbN6CIw29MchHdGsL9+h4lL3lwQZ/FsiOI5HTrRqlu933SYT1jBBCCLERu4JSCMZhAxNQXboTl3SSnfSB2UC7tE5mYnJhPrLrt8Ozyn9M29n1M3D2tDHfUFYOdOiJ641FzQXsWuXB9vps5LvdnNJa1syH5sebYtIhrOZgkMNNvhVLtghxpUXk1qXv4XhiFsZr69q4UVmIq3xPiyMhGINZRQunIVeI3PeWmnsT235VCK2MQUq4VZwzpZrNWqncyDU4aYqvBnG85rF5DgiJlobuYVj6HGLYTQu3Ld3RpgiFXTRGPdTAv+j2Wrg9q7HrvE50kdq3OxJOVfi1XEZUzwghhBAbMSooMzE8TwrGIuw5pZPsKOvkJZysaofWyaw+SNezIZPcwfWgt5OOHFus27jOaXouAIm5yM0Amo5scVrplICzu2ZNy5vJChyojEPWKClqxmF8FrCvOAzhFETkbj1bg7hOfZTVM6VWiDNTODUjjENlxSPaIqrPy9e9HvtI0a3KyEsm+nTTswHJxLD+QNk+f3LSD2HUM0IIIcRODApKISZnjUV61Ta8H8CdLa2TCVWf4Gh77IxzZAM84boSL9biKz1rYHeZe7Da5s6U4iwo0hr3rIzJm+9HWNlds3qyWTFXHNQWS+nuxhFsCcd1m5gCuxxyxB1W1KGpQ3fMGSVUqniJqOsk9iHza086RW+L2Yolhfp8xLmnTW1/orJPpzg0nbPLa+mS9qD4cDzGFM7AyI462Y58eWk8ic8CWC99CKOeEUIIIXZiTFBaYtLqnONCWyfLDoZodYlJQnUlzkXGlL5oPLrJ9qCXD/kgLnMpztzizY2MC1x3HL2n2jqI6Di9fG9HHD94ipSlb959WajZYneXGy7Z3gP1urIji926qdzIvXGbt7OL4SJv2lvkcJF371SDAx6xLSFXpw1McwmoKLH5JJqR3NFF7c9//GPojEP3DkDNWV95fWH3anh2NCL77kJMFnrcIpyhglpQzwghhBAbMSUoEwbcbLiDe4x1jDU53OvaS0XmmHZsnXRx9B1tYXL1pO08xex5W4C4PU/h0NubdI4ogRET0f3zYni8PcNdaGFoibcAeBZg2V4g92GzV7O04hkdcbwubzE5e1PrzjmJUvjpJM2KR4pxPEOv+3AK3nN0YpEdVIpRM2y+3q7R+edeM6ZSii7piscBJTBXHBQSLCPOr4AKH1cP7zVGB51Qx+f0drxx9NYOZ1xJce5KvJv7b8Gg5811tJJW77fKED/a9nIihwqKr0ZFkKGCIqpnhBBCiI1runTp8o2e9yE1NRWNjY16iUimT5+OtWvX6qVoI4dz+SVu2J6Hyn06qSXIYXamAsUFzQ8dFC5SYKne1hzjss2QPfJvO7fMEuAhIDvs5NQXB3BTR6meEUIIIZoY7ZRDIsKzAMWVzbivW8KERZg3LMzOOCQipICXPfKXhyEmJdL6zZhHQgghbQUF5RWK6tncIT86nU/Mwb0fzkXNuhaMo0hayBxMk2N7usfNJIQQQmIMurzDpHVd3oQQQggh7Q9aKAkhhBBCSERQUBJCCCGEkIigoCSEEEIIIRFBQUkIIYQQQiKCgpIQQgghhEQEBWVMMhcZ8gsmDz2B63UKaTnjJ07B2n8ei/vE/H0F92Dt3AEYb2RdZnrgmX++B3+cmAh0GYA/ivlnBumskJiHvP86jsfe09OLS3V65Ax50druQ0/O06nRYil+bB6zmH78gE4OiUjLjIRL1O6fBzbisf96HV30olkPwrv+LcW4V9pmX5EQ4nHe8ToekvdPwHu+9dqGYMh2o6VlHEk9M9YV68ipoIdOdaHbi4D5AVDbjpFnhiwX1fYpjLbQOO8peNS6saKOKgNXuck061gMYk5Qpo+2Prk4LW8UEnS6iSPf8VlGEg0SZ5dgwF0T9VKY+Dww2gmqoTEasqjTmtvWVK7pjcW3iemnC3VK5Oz/qbHNdeU6IaosxB/k8d727/iwXieRKxspgArS8OHvZ+OMTiKtR5cnH8Qt2IHl6j5ztQ2RtNNKyG7EEL3oZv+qHUgu+AR5d+iENmLLpvWY/ps38dv9bftNZn9is+0EaBUeEec8/TfbUKFTWoVBY/GLIfUoWlOlEwy2bCrF2SFTHC/0sSUou+VhOLahaOUrYipCGbIxabT1neuEATNt+WLaVo30sXnG97/bKakjZqDQ9S1v4CVULs7D7ucex1c6hbScLeeFammoUzddRa1ocOoasMXIuszUy0PB2fPivzMNOIsG1J3TWSQALLO2JvL7Zx7yfjYa2Pk8SjbqJBIZG2fjuSAvkelpibh4+IO2F+/yuNbU4JafhS9YW72dPnMI/ygFmEsYkWD0wDN39EDFxm14VadYCEH7Rik632EZTGJ6YHMpICf1PIn3S3bikliW1sns+iK8f0h/Ui5xFCblJaNsZQmqjZRWJ5oDm8vvLY/pVo3tng04qtOuv2s1Bg+PMxYq1mD36y8Z8wrpCh+M2pdr0eMnwxAvky7uxcem8Mx9HiOyP8bH5yd7t9G45ykcenuTmlfb7rjB2mbXJzDgJx1QtfhBfGXfrx2fY/CDfGtdOBrJetHiGNbddgf2yzfiAhjzOke9JXvTpOtrKA4urcFYczv14u36+zZrhvp9P73QgA+X3hyFh5N0GYxFH71k0YCP3liPJ/XO5RvnL4aYpv0qFIk3QnVzSevjj3LEa/l6/OMm0QAKpEtiWi/5mxMYFMK2I0O6tX6Fju/2xh9e0EkKI73f4X/Hc48uD5BmLN+SZOT6lLdGurDG1ti3I5DX4vYa2+/l9cvDeds16fLkJ5g3yiwzXQ/0kkWg428piXh07jhRqUqR8iOz7G3XS+G85k22a2dczxS8a792DaX47UuH9INNbn8Khnq9PK5t6/rgvYtObLMeXuItf23mCfy2Nsdblxz7DkoI5yW3Lxp+k4qNb+KRA3JOnm8v1O1PwlCx36b92/Bp37HiHOz10HVe9uOOBj71xUTWm1nAGn39zXbEXhcD3veudRXuNGM5Q+UZSGu++XtnHbXlBThe9fu0EiHiykW9fRD4fQk6LjS3H6iO+yfgvr33xEqgwP+25T05ta8xf3Gn695U+Lv/Bc2103rJP75laeCvLY72fW3iaq8d96aBaqs7lPrUX6NdNub933eB7221zb6V3n2Z25L3WFFHZ57E/fvA96bx259iK97tMMV7fPZ83+Pyd/yyXHJQ5+e5EvDZJZDncXvteryIcd7fOPcduDztmNuRx9SuYiirT1QjYeA07eZOReaYbCRUlbeZmIweqRg5U4jJpDIU28Sk5Ku3Z2D34jx8vKdJp7jpi2wlAvPE79bgbPIwpOfqLEmfAkM0yvyX9wLDf47OXXVeEMz9lonXQylC1fpyak5MSsy35TXHDGFiulnMRuqFj1CJfhhoi60ZMlg8JMo/sjVi/TB1YRq2qfX+HR9iNGaasXumu2yp3q58A14Y2O0SOtplIN6ymtTNJt0HcrLdmKa5X+f9VjyYp5nuDPnGu7EKcUPGGfEr4reGmJQ3bQjbbjWWY//hBiT3v9VmJeiLjkkNOLbZeMB0efIH4oFoXidXeUeKeCDPG1UjHlLG9pfvTMPUNguFSMRQIerq3jDKu+hED0zzxv7IxnksOosG2bgW23xcNrJxnqYaZyO/IjEH03T++InjMLROiC3vtbQJOtmoi/2eFQ2ymVfRa6wzxkgsq8ZZ5qt6kxNGKIT9vNbjo4YeuN0eSyXEqve4xLb72KwGMn+o3K/a51ik7Jblkoibso317ysQDyzveYltp7iOO0Lkvd6stUyLnYtCWC02hVzQ+34hDpYDGYNtsYEPDBWC5xgOeoXZLCQLweWt4/bwClcdlW1Xhumq/awGF5PSmvF8JYpjkS9R5rb7YWyo9484r5n2fYvJLbwyCgJvO3A4ihR9MmbSeFFMHvUrHUOpz6u5djooOkxl6Q5cVALUXNffi73R/jiuTcRI0WS/d8XkEpPBeHWNsU7RCZ3gQIu2gPe2hRKTKULIit/YhVdgmrs3Ie7JKUqQyXzpsu8zwnKXO+/NQMcfgGDPLo3ct9kmufcty2V830RUHA3+cvmqyI/r20OtF7uCMnEUhg1MQHWpYZ1UnCpB0cptwFgZPzkN3T8vQtEOuxxrD2RicmE+suu3w7NqF7StNQyaUPnyg+K9UPISaoUAjOtki3mUFktTBJ7ehPMX43BD2zzJg7AQG3faG5ilGNhXvNmusrtr5Juu2bBpQZRmvIZ3mTDQ6S574U+qkTUE6hw8Lb8z7p48i8R7V+Tcl+k098u4kYrEDIw3y/TANnEjAkPHDMCjIwK5BtqeM4+WoDJpIIaYsUzyYVte4i3DM4/eYXsQOMs7UqSAqFxjPaR8jiUI4xa+5nstxRTON+krNlqiXTZ2SBENo1zo0gM3oRQvet/uhdCXjai4xnas9atwQDTgnTvaRWEvvyJw/MQc9GkoRZH3ISNeKKSA0w2tQlpUzDd9seEKJKF7GPemdVwN2FLegLgOpnlZ7MtuQfDZdgM+2q7zHcco6YFB8iXIu34DntztOu6ImIcuHUWzdNptRbPR1RKTdmEV/L434vUu9h3qfbFUwnXnn4x698APVAzhKh/rnUSIzdttv5W8cIcQaInoN0EIN3HdLupkZa3UL0PKjVxjqbjKNaaYasn943zBdtOybTtjk6X1MrDoa13OnK4BOvawvURG1k6b95d170aRQTkYmmi/B/wz3hSTbiErXjp/4e0cc4/NIihp7t4UnNjmtThuKatEU2KKYYXtMgC3O+7N8Gj22SWxtUmOfSuSRNMZQkjRuTrvejEqKDMxPC8bOFiEPad0kqRbnhCSN+NiiYyh3IbGgdP8dtyJabL6tHnMp0NwXibObD5oNf4ucRMQ3SDJhtx627bewA1WYEFBAQrcU+ESbNW/aDmJ6J4C8UZpNRayF6J1wxls2bQVH6WIRkm8SYb21toWSAuOfkAKlMj72CbgpfXHW57HHe63yDAEREaBte3H/LrK/LN16b2+11JMCzz6By3BbCQ7pSAuaOMvESLSdg2lZcPb2G9ab1g89bo+VrzLGJsrLSfB6mhAuiSisxCV5jmpyeaeixxpGdezAcgYJd2wpmXRIvh9L9j4AY55BaZ8ST2GbX4FpH8Ci9xynK9PQxfxAjRksBB35y1rZVBhHCoqzlBaRPV5tceOjM3hY+WNrJ3u00Hca610f42XFVTHbgZEtBtDewFN5VW+xyBFmbYCmpY+Oy2+NyMitGeX43xUjKnNIKLahhBQseyGSI5BQSnE5KyxSK/aZsVKKlKRmZOOSwffx1F1vY5ijxCV1YnZyG5PPb2PbIDHU4yypDEonDlSnFXr03TOiKG8rNgafx9xE4jzVV43mfW2bU2GNaN1LZQSGVdiNhbG5HRbS7fETeXbou4qjJT9Hx/Tbm/jYWs9sJfixwtlJwmrTJfvjO6bv7fnuXcKzUoSDQulD/aHhavxV1MYFgDTdWa6yx3X27SEatSDqg2QcU5GqIV1bEEfjj7Y19VTGO7E4EhxpmcDIOvKuvJ+fsMiAt/3EptrVb2k2kNomie5q91FbbwIGSzHmfOJ6HijuG861mDjxxDtlsxvwPnP9E8i5YU7vOez7vxozLvSROWNaUiur7GFo0XWTqtOOq2E6gzUHLLdeKNUPLzcITLBifzejIzmnl1BUUIxBJTwrMdJsd0YE5SWmAzkyk5Iskmwbn3FG9AlXPT6xNsLF7BrlQfb67ORXzhZnHXrcP1dP0dGcjlq9+kESYeeemzLucgwO/bY+Op8E+IzJ7Zs/Ev1VhrItbkcJe+Kt/LbP8HYjjuw0WWNcKBijBK9olMJo1EPBhiKIgoWSnXj9MAgn4bCcC26Y14c6LjJdzdV4cl1ssHR8ZQmAbfdBsjYVWklEA/bZLt7T+O1tujyDguv9cGIVbMskPohX9CyGNfoWih7qB6K3rdw6W5KzMFPoyL6jd7mJluUu8iKt5T7njYkERW7wxFmMpZLWhJaMKacTTTfVxCGFeRMFT5tsMeZRhspztzizZf9PzXieOfZxksMft8bqHCKvnl46PY0ZwiNqy0a8qLduqndyKN+YNVR6SJPclk4u4oykbGfYlvJg3+Ajkk1OBOO61i6y6UFspkxIKtrWk8s+SVoOy0IdtwqHCC4u17SpWuawyAQaTut7q9eY1tnzNlQ2wUdM9/njjDvzxbfm85nhyFOjfnmCeHZ1SyyjUtESie9GAjp+dHnGFOCMmHAzcZDqod4SPuMNXkBR0u2odqeNzYeZSWrtMWy/XH0HQ+KD8djjHfYoIno/FAJRjxWYvS47lOg5kfMnqvzQyB5GAbLddQ2zqBssRlvKTve/AcqYeZPxhfr98Ldh9/5mzD3vXE2Vu0EblmoXTnu8cqUwBE3rd8AfRnkrtdzx1PJt3kVkG9u18+2I8KId7PcA1aDId2cKpjZ6zYQkxnYrHvveeNURIPz7gnZecLe4ATedusjY1fTMLUgzdsZx0DHtJout4Ui32GhNIP7jd6kptvRO8C5ijfrh6nqN0aP1EojR3Hm0ZuNjjh6G2pqQwuMVdZGEL/VI1JcC21Z9F5LMYX2kDLFnjkZwfLebcuHjRpCw8w39t0WIRBGbJTlyr+9VizrvOZpwJMvGR1xrHPz486PAEMY2sSbX8QL5/dFPeo7S9QXfW+HdN8boR3JOIj9drHnaovkSAX2Tiw+dVR1/rHifqXIyxg1EOflfSO9Kx37IcNhcWs5soe3dT4y3KQG61w9ygPTzL0ZCs2100FZiD/Y3fVmhx8H8zCkv2UQiAo+95eYvB1MrHtThbAI4anyvS9JskOPkS8FmeyIIuetOu6vXQggxMyY+R+Fdo9Edm86nx2y84zDnS6fP/pY+4gykMcU8rMrJLQodXTU8UXGapov7TE9bFAsEs1hg6KOHDZoTK01jFDMIRtD5/AyBoHSSXBaa3iOtiLax2/01pS9mGMnlpWY19lnGJso4XdoK3L5kBZOv8NEkfaH0bseruGEvHiHWjOMKrHby5tccQx5cVZonXEIIVcQy1Hy+x1AM+7rFiHEy9QwO+OQVsQc6olfRLpCMK2k/iy2QmyqodKsjjwUlKTVMb8LPbXjDiyP4ucBiYHX/dRG3+uNHNNt5+q1S65cVM/mln1BxS9mnJ/LVU0uL0NmynAlepquKJSbP8knzloO5eQO66HLO0xi2uVNCCGEEHIZoIWSEEIIIYREBAUlIYQQQgiJCApKQgghhBASERSUhBBCCCEkIigoCSGEEEJIRFBQxhTGl3IycvVia5M1uc2+J04IIYSQK5eYE5Tpo61PLk7LG4UEnW7SXD4JlVSMzElHdekuXNAphBBCCCEtIbYEZbc8DMc2FK18RUxFKEM2Jo02v3Mtv/U9E8OTyvC+yn8Fe+qd+e2R1BEzUOj9lncb0vFGdBclvPeIXpZIi+XlOBZCCCGEtGtiS1CeKkHRjqN64QKqP78EJKVqK2QmsgcmoLp0J0SqovpgGS716It0vdzeyLyzEPn9G7H9HfOcTeYi47ESjFDT87A+QW+5xBNnm/mr0bmrzg6DzNxs4PPPnNbJI3tRljSGbnBCCCGEhEU7i6G8hIummpQ0XEAj4pFgKa52QipGzizEmKQyFHs2wC0nO0+ZjC9ezsPuxU+h8mJf9Lhros4x6DylBD3OPyXy81BWEYeMiXN1Toh0HImcbtUo3e12dl/ArlUebK/PRn7hZCHhCSGEEEKaJ3YFZeIoDHNYJI+iqioB2QMtmZM+emw7tE5mYnJhPrLrt8Ozyn/84tn1M3D2tJzbhItHmxDfsa9K91KxBofe3qRmG8rKgQ49cb1aCo3Uvt2RcKrCR8iaHH3Hg+LD8RhTOAMjO+pEQgghhJAAxKigzMTwvGzgYBH2nNJJguod21DdY6y3U06PE2IZjbjUoH/QHsjqE7EIPlv2kp4T7HsQu597HF/pxebJxLD+QNm+QHLSjhDwubRTEkIIISQ4MSgohZicNRbpVdvw/iG3/e4o9ugOOapTzqVUxDdcFJKyHXFkAzye4ssXqygFbeNJfHZeL/vBG9vp8cDjE99JCCGEEOIkxgSlJSatzjkBSByFSXndcXK71Umn/XC5YhWbHypIislAsZ2EEEIIIf6IKUGZMOBmwx1sc2vLaXg3la2GDfKm5yWjbOUqHG1P7m4X3ljFthqqRw4VFF+NCvtQQXayJmMMAsd2EkIIIYT445ouXbp8o+d9SE1NRWNju3IotzrTp0/H2rVr9VL7Qlofc+qLsdqndzchhBBCSMuJ0U45pDWQFlGKSUIIIYREGwpKQgghhBASERSUhBBCCCEkIigoCSGEEEJIRFBQEkIIIYSQiKCgJIQQQgghEUFBSQghhBBCIoKCkhBCCCGERAQFZUwxEZ0fKkFGrl68LMzB02vWYI1nEcbplLZgzjNin3K/YnptYWvuORUjZxZicpZezH0eIx56AtfrRUIIIYSET2wJSvl9btsnF6fljUKCzjJxfH5xVp7xqcarja5PYMBjJRgxe65OCB27cFPTM3N0zuVlxSMFKCgoQHGlTmgtsoYhG2XYG+jzkwFInC3K+7HV6NxVJxBCCCHES2wJyoadeH/lKyjS0576bEwabfvOdbc8TBrYiD1mflU6hvsRne2J1BEzUBjGt7yvv2s1RhQA5yt0ggNpfZuBkR31ootxC19Dfod9WCaEmxRvanpkhc41WYEFMr1wCbbqlPZFJiYXBi6DzF7pqC4N51vlc5EhxHuH83vh9yOkWZPDun6EEELIlUhMu7wb6y/pOUkqMnPScengHlTrlOqDZbiU2B3piTqhnSG/rZ3fvxHb3zmqU0wMETNCTc/De3pdn0C/jhuw+7nH8YVOcnIBu0obkX23zaXrZRzGZ8Wh6ciWgEJRCs5glktHvut3Mk+6qu0W0KcLVZZmHBZ5bOuF61IvfNpaV0x+3eIdR2JG4RjEH96EXed1mh2Rn9OtGhV+rJNKqOsyH3DXRJ0qLZOT8cXLeag8oBPcHNmLsqQxKJw5UtRQQggh5OokhgVlKtJ7JqD6hCm2UpGceAknq0zbUiaG52UjQfxLbncmSiOOb0xSGYo9G+CWk52nGCJm9+KnUHmxL3qYAuf04zj0+kvGfCCObIDnrTLEjy7EjBF2ibMVW440IW7Y/IAxiluX3quslsv2NukUGxMWYd4wYN+zNtd0wz4ss1k45bZvO7fMu43e4y3ROG7hNOBV0zK6DPuQi3khx0rOwdNT07z7ltO9S12yWFoK785G447A3yvPzM0GDu/1KW8kD0O2FOqLRZmvL0f88AKviG94fQbOntYLfhEifpUH2+uzkV84WdRKQggh5Ooj9gRltzwdHzlNxbqVndLpXlKRmSfzxwLbpNsbiE9uT7Yh6ZLNR3b9dnhW+Xe9nl1viphNuHi0CfEd+6r0kDm/C6s929HYP9/hjlWC8dl9gBB+4VoJx43KQlzDEWzZbCyvOHgcSExBH2PRoLLYK/S27jyCJlv+1qULsESv6xW3nRxrN0Mcskb5P1oVNjA6HmVvebAhYGxkJvp0Ey8k5X5K/OJefGwK9X0f4yy64IYwYyWPvuNB8eF4jAnibieEEEKuVGJPUJ4q8cZQFpUmY5Kj400CsvOmIblUx1CeSkVCEtB4MfSIuMtOVp+27UjULccpcDYvwb02K+H8NU8jlG45W8/WCAGZhfETjOU5A3sLAXkA7gjMgExYhNdsLuv5w+J0RiiswAK7EHYccypu7Nm8iTp1RA7ST5X6d4VHFVFHc2mnJIQQcnURwy5vwalyVCMeCcr/eAEXG4BLB4uEkFS5AsMNftEeahnrSJe0p7h14+68sYTFYl+rA4iorVjy6j40IQ3dtUgMSkWd+G0cch82BGF+xnEU+3ToCcQcPP1wLrDXcIebLvGw8AphuW4a8r2i0nA5e3YEih2VGKLTCp+IPt54WI84Fp+YWEIIIeTKJqYFZcKAm5HecBLVQkhK4VD9+SUkDJyETB3g5sxvT7Ri3J0Uk83EEpooNzZqcNLrig7MnHynICwoWBC6dVJTc1bHPap4zHAslE6UtdRNwNhRQQuHCgoVKSYDxcMSQgghVwPXdOnS5Rs970NqaioaG/0OltI6yPjJsTaHcEMZ3i/ZCbsBUo5DOWmgdnH6yW9tpk+fjrVr1+qlyJHxf/lJpdqqJQc2/yVu2J6Hyn1Gvux9PFh2GFExfrL3dwE6G1kWFWt0vuzsMxHY5M8qKQcsz0dvvWRwHMVeYSh7Yc9HrrvHfGWxMbSQdFk/nCsEqB1rfdnLe36n96xhiNTvU/CePd8rIo9j39405Hp/7+/YgCYhYFVMpuzhPdWe24R9z95ri8m0I2NUc3DxLasMpODLqS/2L7DlwOZjavHxc4/jK5Ugy1h2ijLiWFX5D3eL3yZU6nzVGahXBa2ShBBCrmpiS1C2A6ItKNsLcjgg2YPb3rtapuVDC85YRVlsk1FK6yEhhBDSasR2DCWJEcahewc962UOBmUATef8jrAeO6ge7xSThBBCSGtCC2WYXK0WSn8ub69LmhBCCCFXNRSUYXLVCkpCCCGEkADQ5U0IIYQQQiKCgpIQQgghhEQEBSUhhBBCCIkICkpCCCGEEBIRFJSEEEIIISQiKChjEvm1lhKMeOgJXK9TSMsZP3EK1v7zWNwn5u8ruAdr5w7AeCPrMtMDz/zzPfjjxESgywD8Ucw/M0hnhcQ85P3XcTz2np5eXKrTI2fIi9Z2H3pynk6NFkvxY/OYxfTjB3RySERaZm2DqnMFPfSSgUxTx+2XaJ2XUSdCL9Nwf9+2dHnykxbXv0jue3/X7+ojEY/OtddDo46uVdMUPNpFJ0cd936dyGsZi/d8INrmvo8NYktQJo7CpFn3Y5o55Y2C/siig/TRMn+m95veJHokzi7BgLsm6qUweWAjHvuv19Fq7UxroW5k48ETdVpz25rKNb2x+DYx/XShTomc/T81trmuXCdElYX4gzze2/4dH9brpCuJQWPxiyH1KFpTpRMMtmwqxdkhU1r1gTHkxV/hlvMr8YcXdEI758yjJbg46lcxK3jbGiV0XcLYX1rrUIVHfvMmpv9mG1rzcxb3FUzB0LpteOSATtColwIhuKb1AvrcIeZjRvAHF8Btcd/HCrElKBt24v2Vr6BIT3vqszFpdKbOlGRiuBCaPerL2vT73a2J/JZ34Z32c5S8hMrFedjt/b40iYQt54VqaahTjWBFbQNQ14AtRtZlpl4eCs6eF/+dacBZNKDunM4iAYj1MuuBZ+7ogYqN2/CqTrEQD+Q3StH5Dn8vGFE4L/FCN7XvMayL4ovF5Ue8fCzdgeSCjRiiU0Ildu97EhDxMjatV5XPy5gUk9NSSvFbJWZFvhS2rt/ELhHc91mT/eiD2CWmBzZPGDATk5I+QdEO48N56aNnIuHgKhzFKEzK646TJWJeXIe2JJoDm2feWYgx3aqx3fZpwOvvWo3Bw/X3aCrWYPfrLxnzCukKH4zal2vR4yfDEC+TLu7Fx6bwzH0eI7I/xsfnJ3u30bjnKRx6e5OaV9vuuMHaZtcnMOAnHVC1+EF8Zd+vHZ9j8MMdr+OhhaORrBctxMPttjuwX1ouC2DM6xxlzfSmSRfoUBxcWoOx5nbqd2D592fjjPqxQP2+n15owIdLb0bJRr3YYqS7YSz66CWLBnz0xno8qXcuLQC/GGKaw2VjpsWCtD7+KAfYvx7/uMmoiKrhkw3ib05gUAjbjgzprvwVOr7b22WRMtL7Hf53PPfo8gBpxvItSUauT3lrpOt7bI19OwJ5LW6vsf1eXr88nLddE+mqnDfKLDNdD/SSRaDjbynSUjBOVKpSpPzILHvb9VK4rvmJbfrBpNctr8fQIT1UehHkw03cAhvf1NYS+ZspGGqelnddC1VXOpQGfdjJOnJ7rVVnokNzZSmv0Sxk6CXrepvrrQQKzHz39XKtW77Saw2X13kmnse2tF8JMauSlMXcOgbXugr7/evMv7jTVdc0futhxLiup62umNfRrAMSqx5IXOs2CLHz0iEtWGUd64UDb9ThdtE+qFbVkW+2E3pB0+RtRwLXM3VcfSsd2/JJE6JsrXipMbEft/ztT7EV73aYEuC8fNtEZ75E/iYHdX7aMXUs/tpKgVnvX8Q472/8lWnKbvf+jPSbymX5JOGZuYkosp2/QTTLzN5Gy+0GblP8XUeJdS0tWnbfp2LkzHxkowzFq3bhgk6NVWI4hjIV6T0TUH3C+gpz9Y62F5Ctg6wkQkwmiUri+s70V2/PwO7Fefh4T5NOcdMX2UoE5onfrcHZ5GFIz9VZkj4FhmiU+S/vBYb/HJ276rwgmPstE6/zUoSq9eXUnJiUbJyN56QLc80x40Gl3Jly0g+lFz5CJfphoM1tNWSwEIflH9keWv0wdWEatpmuUIzGTDN2SgrWgjTxENLbXVODWxaGb7HwRbtwxNtjk2okpDtHTraG0nRf6rzf7k/CNNO9dOYQ/nFjFeKGjDPiicy3a9XYhLDtVmM59h9uQHL/W23hB33RMakBxzYbD+QuT/4A+L15nVzlHSlCcM4bVSNEibH95TvTMLXNQiESMVQ8xOveMMr6o4YeuN0Wv3RfgXjQe6/FNlT0GmtzRYl1+9bht/KaiXTZ+P92fwP6ZBoPGtMVZ17Hj1LGumKjEjG+byIqjgYWk5JXRX5c3x7RdVHecSv6JR3DwSBiMlmINeN6i8n18pBRIF8IdF2o74extrow5EXxsmeud9tKVPad5XBBJ4/6lRJ7xrVuQMbt1rUe8qIQi1KAynWX7sBFkVa5xhSTUszaj2tlQPf2/o+PuepzpGgB4r2eRn2wXjwEug7IPFUPRlhu5fETxYvkOnM9UReQg5866kIPTPtRCt7V261IzME0s5552wm9rnymCQFkvZQ2V8+CIcRe5gm9rphE+9THZRmLGzIlwHnJMhmLzkIMefcdzvM2WFupkftWL1w++xZ06YGbEqtwwCEmJQ3YUt6g1v2juH8761Q7wcpsS1klmhIzMN5Wefp0SERTeZUhJqVh4I4kISLNMhMvlUI8WmUWuE15dY2ZZohjY/9v+hWNLbvvL2DXKg+212cjv3AyYt1WGXuCsluejqGcplR52SmdfsWQicmF4o2jfjs8LXrjaELlyw+KW0zyEmqFAIzrZIt5lBZLUwSe3oTzF+NwQ9s8yYOwEBvlg2aw2WlkKQb2bcCHq+yuOWm1MK0iWhClGSaPLhMGAjuftyySL/xJPfQMgToHT69ZgzXuybNIvAdHzn1CTNjdlzIepsLeOB3YJhpGYOiYAXh0RCBXZ9sjY88qkwZiyB064YGh4sFe4i3DM4/eYZWnq7wjRb4sVK6xLFw+xxKEcQtf872WYnq6UP8gBCo2mqJdP4g6mGZY+QCwXx/x8DoBdO5oPawrdptWjCq863go9MAghyuuAU/udj8gkpCSGIKr+lydeMCl+LFeR8CNaUiur0G1XrTT5ck8ZIgXvVVBrHuWyPOtC/t/ardWLsTBciEiu9pePoRgNC2HZzYfxMWkNKSrJXmfi21/rO/zjR/gWL1tXSmCYT8udzth47Ma23YN5jzjW0/WrHkNiyboHwRjUA6GCvHidq06sIk8Q5RY12zLpm22F0PfeibTPnrDrGvOeibbFJw4ofOMdUXF0fUohHomxOkvvJ1j7rFZBCXiRdZ+TmLHFaJedrc/AwKdlywTlOJFP2IoFJptKyXSUquPz12m6JSCOB2i4GbLJiFyxYseevVAnDx/h1BtpszEi/+7JxJxU7ZZTsbvzft7fHaGqORbret5oFSJxkG2mMdgbUrIRHDfH33Hg+LD8RhTOAMjO+rEGCT2BOWpEm8MZVFpMibNynM0Iu2erD5tfj4OwXmZUA+avkMNq6JL3ASkYw9lkUhPS1RWELNX8GPv2Vy1WIEFBQUocE+FS7BV/6LlJKJ7ig4A9zbgvm7sLZu2ijdi0Rj7CSS/fMgHfyL6TTAe3krkmQ92ibT62npaW+7pSJmHLqLByyiwtv2Yj8szMFuX3ut7LcW0wKN/ECnStWV7GPtzV/mlSyI6iwfRNNu6dreiQv0mBFSslOshHyFduqbpOV/k/YPzVT7hDCEjQxxsdcV0bTdPOWQYo1cgKiuqZSVXIjhpNObZth2wHm6swkWkoYvtpWTFI771pKDgXizZrH8QhPEdRQMSQLyEhO6Ra9YFp6gLjorn7NVLW8AMq7ZlLQuhnklRpi1hcpKWPjvStepd12/YTWsQWlvpPU+J9PDYrMLqmgRD/P5Fca5N+7cpi/AvxPZVGYZQZg7r4KBe6OMV9Ia1Ulo/reO2uc6jSVTu+wRk58aunTKGXd6CU+XijTseCa1xcS8XRzbA4ylGWdIYFM4ciVSd3Jo0nTNiKC8ryjphWBV9xE0gbA9BGVtluMWsyYjTal0LpcTuyjAmp9taultuKheNXFiuqdbHchNKS5HdHboUP144GrCVqXRVRhNvz3PvFFrMazQslAFRri1pRbGuZdEJnRcSppvSNtljudQDIwTUA7AeJ1us8Hw5c7pGz/lSXRPBtVXhJtLibF3L0Hv+L8eZ8+JP31mGYFR1zuZpkDhCZPTkr1ORuG7JqMEZ27qRWChVh50W0wPP6Nhpsx64RV0wjH2bAkiIFx+rYDP1LAgyNtByp8updXtku2murQxGKNdEir+z4rnw5LpSNDnEWTNlJi212lqqLKmusBQZ8+hYV0xRNw5EcN/L/hb5/Rux3eOB5x17kFxsEdOCMmHAzUhvOInq6D7rYoC2iYu4/q6fIyO5HLX7dIKkQ089tuVcZJgde2x8db4J8ZkTWzb+pXJLBXJtLkfJu8eQcfsnGNtxBzb6jfXSiIfYzFGJXtGphNGoB5Hnd7tRsFAqIeB0cRgY7g13DJIDHQ/17iajkYMZT2kScNttgIxdlW7CB4YieeefbG5Lg4untaVIl3dYeN2PRhycZYE0XKYZLeiVK2l1C6W4pl6XtLp2er45zlTh0wYhAoIOVSJ7bCYipZNeDEQQ116L8eMSNjG8A864x/BowPnP9OwDsie5nm8OUa/Gyl7nNrHo6FSj6meIsbt+XPqRWCgNgeGOewwP1TNXIl5UfhqyhTJRh8bYxIvjpSSUetYMtrp1X0EYFkrlkrVc1CouMeTiCaGtbI5mXcLSCmrcv9JNHWeKs5DKTIYdyHtTtMUppSiyiUVlvXS322HRgJN1QuzqWOuAtPC+V513/fS3iEViS1B64yeNaVLPk3i/ZKd3iCDZ69sYnzIbCdL0m9e+x6P0xkV4hwWYiM4PlWDEYyVGj+s+BWp+xOy5Oj8EkodhsFxHbeMMyhab8Zay481/oBJm/mR8sX4v3H34nb8Jc98bZ2PVTuCWhaYLyyUq1ANEXKzDH/hxvyVa6y0cjYv2nqIv3KE74pjb9bPtiKjCIyp43XJ5mI2LjN1RweVed4iYzPgd6T5VFi/tttGxOkN/ZB/0N/C2Wx8Zk5aGqQVplptRoWPVTLf0QpHvsFDKThxGnhQPZriBd4BpcT3WlffDVPUbo4dwpZGjOPPozUZHHL0NNcXC+KTe66OvxYg6fBSyhbIBT75kBPt764GYnBZp/VC1dzTwg7SQOFx/0UB7AOydabzITnNq6J0WXA+x7rZy2715ew0+DNVCqdY164k1WQOVy/FIjY449nx/wld6NS76bTdaiuw0t02ND2hdz1DFUBWKZIcS857+UQo+DdlCacT3OV3DYvLGBIZSzwJjxC1aMZa314plndcsyqUM7/0hO+44LPjecBEpUs37KMS2MhS0MLR3ojOQvcqNfQ1NNPZrdP4x3eWhldmr242hezq7770D23RHHGvd0OuCgYzNlh38Au1b0qL7PmsyxqCl/S3anpgeNigWieawQVFHDhs0ptYaRijmkELFObyMQaB0EpxoD7vT1rT34/eHfPiNFWIqgMtMDTUle/9asWNRQw2t5Rqe63Ii3eVq5Abb8ai0gTgWzr3ubzvtFqN3uXNoHCPNGBbninPHhYd6SYdNLNqR95YcpaEV7p3WpjXv+xgitmMoyRWFMYRICJ1xCGm3mBZpfxYOI/bubGuNBGBajqP4Cc6IkG5qPWsiR2xwx0IGx4j3vWgbNaB9I0cC0LMmargcmwv9aubANhSdCOC+ljGI0Q4VaRNa+b6PISgoSatjfhd6ascdWH5FfcUjNvC6rmNFSDSL6VK399a/glBDSSX5PBTl2IVyjL/WHAlg/0//HR92jCReMoo4QiOMyRifNHRxKIc8kuNUXjkWbHcIjJiU2GiFTiDtlFfXGO5rn08Vyl7hIXZOiiXa4r6PFejyDpOYdnkTQgghhFwGaKEkhBBCCCERQUFJCCGEEEIigoKSEEIIIYREBAUlIYQQQgiJCApKQgghhBASERSUJLYofFp/k/dpzNFJdrzf733GX24sMw6LPL7fpJbn09LvVActiwmL8FoY3zYOTipGzizE5Cy9SAghhLiIrWGDEkdhkvqsoqahzPHpRflgy8ybhmxzYNiqbSja0bZft+SwQa3JHDy9Jh9YF+DbzVJsTgWKCxZghU5qL0jxl49iFDziOnIp/B7OwpFnQ/wGsQ9SqM5HypYgZTa+DsvC+ba5m6zJKMy5iOJ28vkvQgghbU9sWSgbduL9la+gSE976rMxabT5nWv5Le9J6P55kc7fhuoeYzFpQKrObZ+kjpiBQu+3vJtH/n7GiPZ9zgGZ0B1pOI4D/oSRYFznNKDyQLsTk1LU5WccR7FbTEo2L8G962qQe98iIQ1bwlZsOdKEtM4B1vYcwPHEFPTRi/7JxOTCGRjZUS+6yOyVjurScMSk3N5k8T8hhJCrhZh2eTfWW7ZJyaVDq/D+IfOxdhRVVUJkJrVfcZV5ZyHy+zdi+zumlXUiOj+0Gp27zkXGYyUYoabnYf9S14XdpWjsn+9fhEpr1DNzMG7ha9ptvAavLXQKDXuewx2q1l2k3LIqvVC7TD02oSN/429dG4Yb1r+7+vIgrZ7ieLwuYNc5SRznZXdBG+su0mX22sI5Vvl4z91wZXvX93E/i/zxvXF8XRCrqqcI+5CLaS10fUdEx5GYUTgG8Yc3Ydd5nWZH5Od0q0bFEb0skd+Mnz0X19+1WtfREgy4a6LOlBzF3sPxGBNEpBJCCLmyiGFBmYr0ngmoPtG2Lu22wYhJG5NUhmLPBvH4tROHjJ9Mxhcv52H34jyUVfRFtnh4WxzFBk8xypLGoHDmSLElFxn5mN/pPRQUFKBg3XHEDZtmiTshqqZhuZEnpmV7hTawW8YycpXrtLgyDrlTU/BeQTGOJ2ZhvBRPUpBNTcO+Z411C6RV7eFYEo7B6I38h+X5yGOX52QXb0I0DjzgLRNZZr2n2s+rN3JleaqyzPeWT9Yoo9TmPDMfubXFev1l2Nch3yniJ4xHVmJgq6uBYWXsPbCNS1O6su/ORuMOD1bv9m9/zMzNBg7vddVRQZ8CDO64QdXR3S+LijT85+JFSOcJLuxeDc+ORmTfzdhLQgi5Gog9QdktD9Nm3S+machGGcpO6XQ34nfDe1xC2cH2JjilOzAf2fXb4QkQk3Z2/QycPW3MN5SVAx164npjUXMBu1Z5sL0+G/lu12LDPiwzXavS3Yk0dDetaZuXYMFSK5Ju684jaLK7Q8W6RVr4NO0tcljUxo0SqmDvcivOT1rVGnpjkMuqtuIRKaxaGOPYJwVxQT7+36dTHJrOBcoNRpMQwuYxrcCBSthcxCuwwO6KdpeZXLdY59vKx2AOBjlc2VuxZIsQnlnjLZHezDmZbD1bI65zd6flNETkuo59OqhAnZ/rpEItRsej7C0PNtitjw4y0afbJZws91NLL+7Fx6+/ZMyf3oTzF+NwQxdj0cuRDfC8VYb40YVXbpgGIYQQRewJylMl3hjKotJkTJqVh3Sd5UV23hmbjuptq3C0Qae1F7L6+J5PcyR3cAlKO+nICflh7XLPPpyLOJ3THFLMxQ2bb627Zj5y7b74SDDd0dJS6KfziOmmH3SwAPfaBHG08PaWVlM+euv0ZlExn72R711XTFOda6u4z1CoqHOK+3DwLEDBlhTMF/t3hzgokVu4DHXj5fGZltdU3NjT2/UtIKkjcpB+qtS/K9wPcZ3sbm8nCf2HMaaSEEKuYGI6hhKnylGNeCTYhYvuCY6DRdgTyHoZy0irTTCXtT8u1uIrPWtgd5kHdle6Ue5Z7MMy07377D406bxQaNq7TLt2rclvz+JwkR1T5PYODvKNbxRsXXqv2teBgf4EU2RIsao6zHjPqRjHdV5o2NfVk00UK8tjKIRoyfSHEtzabe8ruGUc6DzgVXlsppXWsHAHd0kbojOckJOmc5v0nMbmUvf4hHYQQgi5kohpQZkw4GakN5xEtWmFtIlJq3NOeySIy9rBXGRM6YvGo5tsglKKyeAu86DUntRiZxwW3Re6hXLFQRlDOK/ZMQ0j6pTTjJWu4lwT4jq1yIYXHJuQm/NMGBbKzVtwpKE38oONiRmi5VFZMr3XJnyChwLU4KS/IYmCuaSzhqmQk70B3eEW19/1c2Qkl6N2n06QSDHZrEudEELIlUJsCUpv/KQxTep50jEOZfpAY4zKhIHTbL+bicxouV7bmKPveFAse8O6emx3nmL28C5A3J6ncOhty/KTOmIiun9eDI+3Z3jorCjeh6aMfO2enY+UI2FYKKVbVXXE0a5dNbWXTjmB2br0PdVJR7qL5Tnddm5fGBZKw50sO+JYZeKyomrReVtQy+o4jM+Kw/GDtljOtuL8Lqz2bEdj/4mOHtlyqKBLn38W+IUleRgG6x7eg4efQdniB2FFn2Ri8mhgu2d1yO5yQggh7ZvYGti8HdC6A5vLYYN+iRu256HSbu25WlCDfMve2P479UjXrurB7m88x1hGDksUbEB2mR/B4OOyXOZheYD4UunyHoQD4XSUkkMJ3Z2M0kBuajls0JhafPzc465QDEIIIVcrsR1DSa4uNp9EjaOHtZNIekJfVjwLUFwZwDVuDsf0aku/ZGNYN2vOBli7cBB6hxubqayWjHkkhBASOhSUJIZYgQVet7ofd7oUZrXaPR0sbjEGWfGI4Rr3+ZZ3fi5q1rXss4tGvKrR0co5nJHA7Dk/tTeOb4ngs4uEEEJICNDlHSb8ljchhBBCiBNaKAkhhBBCSERQUBJCCCGEkIigoCSEEEIIIRFBQUkIIYQQQiKCgpIQQgghhEQEBSWJLeQg3+qLM/6/wmMMldP+hg2S40Uu8qzxHTZInI87LVSCloU5bNCa15r9XGbzGN+O9//Nb0IIISTWhg3S3+qWn1dUNJQ5Pr2oPs04Nl0vCKq2oWhH2w6/zGGDWhP5VZd8YF0BFrjHVZQ098WZGEaKv3wU+37lR30dKAtHnm3ZWJSGUJ2PlC1ByiyCr/Ao5He5cy6iuCXfjieEEHJVEFsWyoadeH/lKyjS0576bEwabfvO9akSb17RyiKUJY3FpAGpOrN9kjpiBgpd3/IOhvz9jBHt+5wDMqE70nAcB/wJI8G4zmlA5YF2JyalqMvPOI5if5+M3LwE98rB3O9b1MIvAG3FliNNSOscYG3PARxPTEEfveifTEwunOH4lrcd+V3v6tJwxKTc3mTxPyGEkKuFmHZ5N9Z7bZN+uIBL9Xq2nZJ5ZyHy+zdi+zumlVV+y3s1Onedi4zHSjBCTc8jUedKLuwuRWP/fP8iVFqjnpmjvu1suI3X4LWFTqFhz3O4Q9W6i5RbVqUXapepxyZ05G/8rWvDcMP6d1dfHqTVUxyP1wXsOieJ47zsLmhj3UW6zF5bOMcqH++5G65s7/o+7meRP743jq8LYlX1FGEfcjGtha7viJDf7S4cg/jDm7DrvE6zI/JzulWj4ohelshvec+ei+vvWq3raAkG3DVRZ0qOYu/heIwJIlIJIYRcWcSwoExFes8EVJ8I5NLORI8el3Cyqj064YyYtDFJZSj2+WZyHDJ+MhlfvJyH3YvzUFbRF9ni4W1xFBs8xShLGoPCmSPFllxk5GN+p/dQUFCAgnXHETdsmiXuhKiahuVGnpiW7RXawG4Zy8hVrtPiyjjkTk3BewXFOJ6YhfFSPElBJr85/ayxboH6RGIsCcdg9Eb+w/J85LHLc7KLNyEaBx7wlokss95T7efVG7myPFVZ5nvLJ2uUUWpznpmP3Npivb7xeUWHiJ8wHlmJga2uBoaVsffANi5N6cq+OxuNOzxYvdv/fZSZmw0c3uv7Xe8+BRjccYOqo7tfFhVp+M/Fi5DOE1zYvRqeHY3Ivpuxl4QQcjUQe4JSxknOul9M05CNMpSd0umahAEzdf5YpFd9gqMNOqPdIN2B+ciu3w5PgJi0s+tn4OxpY76hrBzo0BPXG4uaC9i1yoPt9dnId7sWG/Zhmelale5OpKG7aU3bvAQLllqRdFt3HkGT3R0q1jW/Cd20t8hhURs3SqiCvcutOD9pVWvojUEuq9qKR6SwamGMY58UxDXUoUIvuunTKQ5N5wLlBqNJCGHzmFbgQCVsLuIVWGB3RbvLTK5brPNt5WMwB4McruytWLJFCM+s8ZZIb+acTLaerRHXubvTchoicl3HPh1UoM7PdVKhFqPjUfaWBxvs1kcHmejTTby0lfuppRf34uPXXzLmT2/C+YtxuKGLsejlyAZ43ipD/OjCKzdMgxBCiCL2BKU9TrI0GZNm5cHWDQeXDq3y5r9ffzOm5Y2yOvG0B7L6OM4nJJI7uASlnXTkhPywdrlnH85FnM5pDinm4obNt9ZdMx+5dl98JJjuaGkp9NN5xHTTDzpYgHttgjhaeHtLqykfvXV6s6iYz97I964rpqnOtVXcZyhU1DnFfTh4FqBgSwrmi/27QxyUyC1chrrx8vhMy2sqbuzZ/F2TOiIH6adK/bvC/RDXye72dpLQfxhjKgkh5AompmMocaoc1YhHQgDhcqnqJC4lJotftCOk1SaYy9ofF2vxlZ41sLvMA7sr3Sj3LPZhmenefXYfmnReKDTtXaZdu9bkt2dxuMiOKXJ7Bwf5xjcKti69V+3rwEB/gikypFhVHWa851SM4zovNOzr6skmipXlMRRCtGT6Qwlu7bb3FdwyDnQe8Ko8NtNKa1i4g7ukDdEZOOTEl6Zzm/ScxuZS9/iEdhBCCLmSiGlBmTDgZqQ3nER1ALd2+sBsJFRJ0dneCOKydjAXGVP6ovHoJpuglGIyuMs8KLUntdgZh0X3hW6hXHFQxhDOa3ZMw4g65TRjpas414S4Ti2y4QXHJuTmPBOGhXLzFhxp6I38YGNihmh5VJZM77UJn+ChADU46W9IomAu6axhKuRkb0B3uMX1d/0cGcnlqN2nEyRSTDbrUieEEHKlEFuC0hs/aUyTep50jENpxU8a03C0/TiU0eToOx4Uy96wrh7bnaeYPbwLELfnKRx627L8pI6YiO6fF8Pj7RkeOiuK96EpI1+7Z+cj5UgYFkrpVlUdcbRrV03tpVNOYLYufU910pHuYnlOt53bF4aF0nAny444Vpm4rKhadN4W1LI6DuOz4nD8oC2Ws604vwurPdvR2H+io0e2HCro0uefBX5hSR6GwbqH9+DhZ1C2+EFY732ZmDwa2O5ZHbK7nBBCSPsmtgY2bwe07sDmctigX+KG7XmotFt7rhbUIN+yN7b/Tj3Stat6sPsbzzGWkcMSBRuQXeZHMPi4LJd5WB4gvlS6vAfhQDgdpeRQQncnozSQm1oOGzSmFh8/97grFIMQQsjVSmzHUJKri80nUePoYe0kkp7QlxXPAhRXBnCNm8MxvdrSL9kY1s2aswHWLhyE3uHGZiqrJWMeCSGEhA4FJYkhVmCB163ux50uhVmtdk8Hi1uMQVY8YrjGfb7lnZ+LmnUt++yiEa9qdLRyDmckMHvOT+2N41si+OwiIYQQEgJ0eYcJv+VNCCGEEOKEFkpCCCGEEBIRFJSEEEIIISQiKCgJIYQQQkhEUFASQgghhJCIoKAkhBBCCCERQUEZU8iBzUuQkasXWxv5ebxQvydOCCGEEBKA2BKUiaMwyfZpxWl5o5Cgs5ykIjNP/mYmMhN1EgmTVIzMSUd1aQu+B04IIYQQYiO2BGXDTry/8hUU6WlPfTYmjXZ+51qSMGASsuurUa2X2zOpI2ag0PUt7zah443ojjLsPaKXJdJieTmOhRBCCCHtmph2eTfWX9JzNhJHYdhAoOxguU5ov2TeWYj8/o3Y/o77I3dzkfFYCUao6XlYRljLJZ4428xfjc5ddXYYZOZmA59/5rROHtmLsqQxdIMTQgghJCxiWFCmIr1nAqpP2MVWKjLHCCF08H0cbdBJ7ZJUjJxZiDFJZSj2883kzlMm44uX87B78VOovNgXPe6aqHMMOk8pQY/zT4n8PJRVxCFj4lydEyIdRyKnWzVKd7ud3Rewa5UH2+uzkV84GbRVEkIIISQUYk9QdsvTMZTTkI0ylJ3S6ZJuw1Xa3kPtOeovE5ML85Fdvx2eVf7jF8+un4Gzp+XcJlw82oT4jn1VupeKNTj09iY121BWDnToievVUmik9u2OhFMVPkLW5Og7HhQfjseYwhkY2VEnEkIIIYQEIPYE5akSbwxlUWkyJs3KQ7rKyMTwsfEo274Tfhzh7YesPvp8Ws7Zspf0nGDfg9j93OP4Si82TyaG9QfK9gWSk3YSkJ1LOyUhhBBCghPTMZQ4VY5qxCNBBhF26yuEmBA4qne3nMZay3467sQsRzbA4ym+fLGKUtA2nsRn5/WyH7yxnR4PPD7xnYQQQgghTmJaUCYMuBnpDSdRLeMl7ZZLNW0TYvMSykrE/I72JnouV6xi80MFSTEZKLaTEEIIIcQfsSUovfGTxjSp50m8X9LOXdxB8MYqttVQPXKooPhqVNiHCrKTNRljEDi2kxBCCCHEH9d06dLlGz3vQ2pqKhobG/USkUyfPh1r167VS+0LaX3MqS/Gap/e3YQQQgghLSe2YyhJVJEWUYpJQgghhEQbCkpCCCGEEBIRFJSEEEIIISQiKCgJIYQQQkhEUFASQgghhJCIoKAkhBBCCCERQUFJCCGEEEIigoKSEEIIIYREBAVlOyNxdglGPGZMA+6aqFMJIYQQQi4fsfWlnMRRmJSXjQS9iIYy56cX3fmSqm1t+i3vWPlSjhSWPc4/hUNvb9IphBBCCCGXh9iyUDbsxPsrX0GRnvbUZ2PSaNd3rqXItP2mLcVka5A6YgYKo/Yt71SMnDkDIzvqRUIIIYSQNiCmXd6N9V7b5BWJ/LZ2fv9GbH/HFMUT0fmhEmTk6kXB9XetxojZc/VSc1zArtJGZN9diMlZOokQQgghpJWJYUGZivSeCag+0b4tkP6RlsRCjEkqQ7FnA6J6hkc2wPNWGeJHF2LGiFSdSAghhBDSesSeoOyWh2mz7hfTNGSjDGWndLpJYjYmqXw55SFdJ7cfMjG5MB/Z9dvhWbULF3RqVDm/C6s929HYPz+K7nRCCCGEEP/EnqA8VWLFR5YmC/FoE42uGMv3D8ZjeHsTlVl92vZ4u+UwppIQQgghrUpMx1DiVDmqEY+ERL3s4lLVSasHeHtBuqQ9xShLGoPCmSPRKk7pjiMxo3AM4g8Xi32txq7zOp0QQgghpBWIaUGZMOBmpDecRHWDTnCQiswx2UiokqKzvXEBu1Z5sL0+G/mFk+F2Ssd10uNL5j6PwcPjjPlQkWLy7mw07vBg9e5WcagTQgghhDiIrXEoZfzkWJtD2DUOZcKAmZg00BqF8tLBIrx/qG1FU7THoZTDBuUnlcJj9vTu+gQG/GQY4uX8xb0oO9of2R03YPfrL4mEuch4rACdZZ6Nxj3meJSys48Qo5tolSSEEEJI2xFbgrIdECsDmxNCCCGExAqxHUNJCCGEEEJiHgpKQgghhBASERSUhBBCCCEkIigoCSGEEEJIRFBQtiG9e/fWc4QQQgghVw4UlIQQQgghJCIoKAkhhBBCSERQUBJCCCGEkIigoCQxwZxn1mDNGmN6beE4nRplCp/W+3gac3SSHe8xPOMvt60Zh0WeaJXFHDy95jUsmqAXFTLNfzk0j1zXvF7u7V5OjDJ7ulAvhsuERXgtyDmNW/iacc6eRWJPEaK+t+/72VVCCGmvxJagTByFSbPuxzRzyhsF60OLFumjbb8ZzSY5mkhR1WIRIwVbCx+2Kx4pQEFBAYordULUESJoam8cXyf3swArdKoXcez5GcdRLI6h4BGf3KBEVGatjhRZ+UjbuxxLNuskxQoU7U1Dfouu1woskOVUUIzjOqVNiaCeBWXzEtwrz2tdDXLv893+1qX3GnW0NhfzIrzembnZwOG90B9cJYSQdk9sCcqGnXh/5Sso0tOe+mxMcgjGVGTm3Y/h2Ob9TdGOq7hJDtvKkYnJV6tVZEJ3pAn5c8Cjl12M65wGVB7wFZrtnHEL5yEX+7B86VadYiEFUjTE0RWH5wCOJ6agj150s+LgccR1CpSrCXpvZqJPt2qU7r6gl5tHfvN/xohUvUQIIbFHTLu8G+sv6TlNt+HIrhdi8moWkSZZk1F4dzYad2ywrBy5z2PE7Lm4/q7VGPFYiZoG3DVRZ0qOYu/heIwpnIGRHXWSxnTn5WcAccPma3emmGzuX6/LT09e16LpKpzaG0jMxXzvb+wuVcMd6V2/BRYmY/+x42INpcwsN7sxud2xAcvUB9PNbC9Tu+tZTD5lOgfThgH7Xl0CXzlpsKJ4HzBsmm2b0cF5Xu5jFste97LvcbvLRE2yTEOqZxJ7ubjz2gB/96aN1BE5SD9V4ciT96y8VxNnG/etnDJydabgwu5SNPbPR+Gd9MgQQmKTGBaUqUjvmYDqE1azm94rHZfqUzHc5hYf3k1nXkVIa0Xh6HiUveXBhiM60aRPAQZ33IDdi/Ow++W9wPCfo3NXnSe4sHs1PDsakX13ISZn6USB151XCTTtXabm1WS6f4Uwmj+sxnAJy2ndcfSeqsWd11V4HGjYh2Xmb2yu5XELpwGvmunLsA/t3zLWbJlJYTPwgJWuyswmcIRAmmcvUzEt8GtBlQJJuq3lPqwynfOMmabXL3QJx8JB6N1wBFscrm4Xm7fgSENvDGpp3KE/XHVlmY9rvTfyH07Beyq/GMeFOJxmezmZJ0Xws8a6KgRC1ilZpiHUM0nvqbehTq0v6pk4t9vasJ4FvTcVmRjWHyjb5ys144f/Ej3OP2Xcu+vL0XnK80jUefJlcIOnGGVJY1A4c6RoHQkhJLaIPUHZLU+LxWnIRhnKTul00YQmJAEJA5NRZbq7t1UjfexMZFqt7hVP5p2FyO/fiO2e1dh1XifaubgXH7/+kjF/ehPOX4zDDV2MRS9HNsDzVhniRxeG6EYbh0XjewvRVGQ9uD0LxMM+DlmjQntYb126wBbDtxVbjjQ17zZ0YQi4e12xgCHSJwVxDXWo0Itu+nSKQ9O5QLktZQUW2OMxpSsVaejusLA2J+bGe8XkvX7c1nFZ4wNaepUbv/ZkQOukwVacrAXSOkdPdM0ZKGNVLZG3del7QjRmYbz3vJuEYDTzV+CAEI3m/seNyhLXyRLB0r2MIO5nfxxfZ9aRltUziFpSF0xkV9ShKWOQj+Wz2XtTktUH6Y0n8Zm//Io1OPT2JmN+38c4iy64wfYyKF4HsWuVB9vrs5HPDj2EkBgj9gTlqRIrPrI0GZNm5SFdZ0mqt5WgWs/j1B6UNSQg2V/PnSsSGXulZ8MgrpPd7e0kof+wkB9MNWeDS5Og2F2cYpo/LE5ntDLmfqWl0G3BE5ju1UEHC/wKtkix915fI4Sh41tJ0uKmrJY6308YQNywXLFOE47s9D22FY8Yll7T9et2l0uRHAoV51oiugIxDt07SCuhec5ycp13ELaerREC0hKfUpy2fWzrViwpXIa68fLY/bjM5XV7tg63yXPzhjeEcm+mYmROOqpLdwlpGAp+Xga9pCOHMZWEkBgipmMocapciMd4JCgL5AVcqgfik6/mRlS6vTwoDhAHGYimc9rqYeKN8fLA4/Ef5+UPpxXLEA6hMQdPP5wL2Nyzy/Y26bxWxnSTHhzkV7CZbusDA6PfU1uKVW/PcTX56RXtWeAtE9lBZr7rGKUrfdleIPdhf7GAUvjobT+7D2lCxNlFpRSKodAa1lmjN719CtGyLK1/QkjlPmyIUVV+Yfa6jxwZYjBPh2g43ekKGRd7H7Bcnpf32EK4NzveiO7x1ajw6wr3RxO+OKNnFUKQzizEmKQyFIt9rQ6jUw8hhLQ2MS0oEwbcjPSGk6huMJarT1QjYeBwy2IpO+kkVqPK6xa/OggUB+nm+rt+jozkctTu0wkSKSaDxHgpa5WPG1W7Du2dNwqnITfxON6zW/WkGHC4Np14LZwqTi58C6VhTWxhpxx1bIFdp5FY6fyXmcbmZpcxj8EsdYEEoOqNXdk7+BA/m0+iRs+aKGtfh+6B11EYLwZ+rc9mh6KwxuU06oojVjQM5uQ7Xzz8Crpm6ll0qMHJYAI4QChBsHsznKGCEmcXoPPFw7h4WicoMZmP7Prt8KwK1cJJCCFtR2wJSm/8pDFN6nkS75fshLev96kSvH8w3uqUMxbYs9LmAr+a8MZBumKpkodhsO4lOnj4GZQtfhBajwsyMXk0gsZ4bV263OFGNcWEFDWqc4WZPjXNFgen2bwEy5U1Tf/G6y6UYx5KkaHTH07BEYeF0uqVa+8xHbtjOzoJXGYydtBKv+3cPoeF0t2bWXVk8eOWl1jubVNQW2VmTEacpaNTjxr+xtbhxR8TxiNLvBgEGk7JL96e61Igm9ZES+j71BU5BRPDNoxe57Ye82pyidOA9SxG8HtvSpf4JZwsDyIF+xR4e3hnd9iLj597HF/prNQRE9H982J43gnVn0AIIW3LNV26dPlGz/uQmpqKxsZGvUQk06dPx9q1a/VSePTu3RvHj/s4PaOHHDZoTK3jQUQ0MpZS9Sz2Y/ESSHE3v9N7YQ9qHuuo88o6gmUBhKqM8bztnP8OP5cDf8cj0/JR3IbXRor1QTgQoK4oQS1jcsM4Htn7Oz+pNKAglMMGqdEZzA51hBDSzojtGEpCooVyCbt7WFuE5h5uf5jWU39DNKkYzw7+Bz2/PPiLy52DQRkyDjjaPfCDoIZbCjwigOwoFO7xKFc4rYuEkCsYCkpylbACC+Qn9ZSb1I+LVA6DJDvFSBdqWDGDsY7suFOMmmHzXLGnctDzwC72y4M41lfdLu/AQyZFHXNEAPmJzi2BRwSQHYUcscOEEELo8g6XmHZ5E0IIIYRcBmihJIQQQgghEUFBSQghhBBCIoKCkhBCCCGERAQFJSGEEEIIiQgKSkIIIYQQEhEUlFcUc5Ghv7Qx4rHV6NxVJ7tInB08Pyh3vI6HXlyqF64EEvHo3HuwtqCHmO+BZ/75Hvxxovp4vEGXAfijSFurprG4Tye3b4xzdpxnq2CUp1F2bbG/5jCO55lBejESBo3F2rkDMF4vKmRdcadFE7MuqroaAf6Ovd2i65if8xk/cYr3nr2vwP9vCCHRI7YEZeIoTLJ9enFa3igk6Cz5LdvMPFued5qJzMv9nIoZXkLl4jzsXrwGZ3VK1JBC8r9eR5eNVbhoX1aZkTPkxeN47D3n9OMHdObl5Mwh/ONv3sT0N0rh/0vbzaBEQMuFqHwQXn4h1jLuKxiLPie2YbosPzH94ybrI6BBibDMWh15fHck4aN1h7BFJylEXXm3Lge/iFTwEUJIOyS2BGXDTry/8hUU6WlPfTYmjTa/hnsBR0usPDVtk1/xbsSlEJ9TVxwdR2JGoetb3iHQ8LoUnTNw9rROCIWNs/Hc74GZ781CRt9ZeGxhGrZ9fzbO6OxocHHnv2Pxbb290x9e0BmtSgNO1gFNtfVivh51oi6dPX+1VqhokojuKUDF0Sq9fKWQiEen5gD7t+JJP5X/1TXr8VHK2OhYQd2YLzdrrrQyjYQqPCLL5CWXuBdsOS/uaf3Fo4pacU+Lm9v6TSpGzpyBkR31IiEkYmJ6YPOEATMxKekTFO3w/8my9NH3I7u+CO8fuqBTWp+YGdg8azIKR6ejeocHG47oNC/S9T0ZX7zsEo1dn8CAnwxDvFooR9niB4WcCgNplVw4Gslyvn4HltsEZZcnP8FMPI9tab/C1L5GWuUauyhcih9LMaqXDBrw4dKbUbLRsFCOrfl3PPfocp3nRG5/3ijLUmfftrnuKjzo/Y1z31FAWqV+lIJ3f7MNr+okA+k+noKh5qFJi5x64EtX3Fj0MVJtNOCjN9b7FSN2pLvuF0P8WCa925e49uHIE0jX5h2Wtaxp/3ptJTSO+aZyc9ncThWKfM7PP+7jq9j4Jh45oBcUxjbhkx6M0MrMuW93ebquh+OcXMekrmkO4hpK8VstSJo9L1mmI+q8v/dLkN8Y20dIdcCOtFRP62XMW9dRI/eXeQK/rc3xHrv7Nz71yXbOgeuwQNchqxz0b2FfPxiubTv2K3Fdc5/8wDjOyV33QyFoG0oICZcYjqFMRXrPBFSfCPD928RRyO5RjbI2FJOxQuqIGaIhjEfZW2E2hKcfxyHpEn95L8J+TZBi8mfAqttWorJ8JRZLa6XL5Z086ldK2Enr4vKdDci43cof8qIQk3I9aX1cukO5zSvXGGKyWR7YKIRiDdaZ1ss1x5BR8Any7tD5ArnveWklfvfdmtxXIB6WdeJhpty6hnXKcFFry4lylUtRY7h95W9CERJbNq1Xvy86YYgD021sf2jeV9ALB7zb3YaKXnbLmHhQS7fsG2Z+IJez8UDvrPYRmpiUIuMXQ+qtc9pYhT53TMGjssCVu1rGTBoioc8dRvxkaPGnIZSZ2P40bNXpb+K3+4GhU63YuPETx9muh5wCnJMWk2eFUPJat0TaT+3nJSa3GL4vsweayquCC54DJ1CRmIHxUayAr64xjkfWB7+Ia/+LDqXGcYvrETckxypvP9fLTuA6LDiwTZRxg7iOxvVT5RuymJS/zwHW6f3KbSMHP7WFcMiwCKPu6d+EuF2JeY/I42sRRzbA81YZ4kcXYsaIVJ1ICGkpsScou+Xp2MhpyEYZyk7pdBfpA7OBg3sgnd5XE5l3FiK/fyO2e1Zj13md2BZIl7e0SN7Rw7BQmssqUyMEo2lhPLP5IC4mpSFdLS3FwL5CQH68UC1h4wc4Vi9EYNd5xrJGikIrhtIUjPOQd3s/XNz5JwjtYPDCHVhXnoh+E2zrS4vpT43tO/Ztfp/ZPUXle909MKiXED5ekdeAJ3eLh3nfHm0S/P/qGrtYqpI6Bp07Wg9raR26Kdu+7MYSk/7Fpj8S8egIIar2l1r7FqKj6ITel+mWlQJXZEnLliEWQhSrzSG2/4jtWLeUVaIpMcVp1ezVK7h47WiJSV/rqbimAd3Vhhu/+ZAIGTqRiJROetGGIYLCs06GhLTsmfVQClokobsStMb1qtgYqPybr8PymItO9MDtE4WYl9ZVd+xoELZs2mY71wZsKW9AXIckvWzQVveLX87vwmrPdjT2z0fhneEGDxFC7MSeoDxVYsVIliZj0qw8LUpsKOvkJZysutqsk5no003PXi6kkNTCLXTKIcOZMgbr3uF33Ip+SQ04ttnp3nbGUDqtlxdP+3eFm1w8/IElbuUx3naHIUA3L8G9BQUocE+PrFA/jYguiegsHsjTlAVOTzYXc6sj3ZG2fZsuUYMqPPJGKTBE9nSV+b4WQmnF6iMe8p+WhW/huXxxptKFap3zWumy1jkSU/yY18Rfh6Y+4rzjpAB3i0kphpW1VW/bp1dwElKC6XMvRlyuU9zHKCHWYfnyclaUW+cAsaMB8VqsjcnhdheomFPk4Bc6v1ViT0OlWw5jKgmJgBh2eQtOlaMa8UhwtcvSOplQ9QmOXq5n2mXjKDZ4PCg+HI8xhe0poHw5zkhrquzMI62PC0cDO58Pzd2tcVoz56FLqOfeqhZKid01q6cw3HYtRj6odWybuV8fd6jXWijdgklCNDhFpXSlK5fxj8LvUe22hErLXVug3LPS5arPy1/ve9M9LK2iZ4WgdotKWWZKdPobRuaA5S4vkj22Hb8xOm01T6iWzFihuTosRbyMPTXKM3TR1wPPCMEPm0vb1z3dgCdf0vsU17KzEPNtKipVx8YxiD9cDE9be30IucKIaUGZMOBmpDecRLW9DdLWybKDAWIrrwIu7F4Nz45GZN9diMlZOjGWueN1jO17zIqBFFOgzje+LMf+ww1IHvUDDNEpeOAHuCXpGLaFso3WtFCeqcKnDUKYBBsm5kwDzgZ1owZH9k4N7BJsQN05PTtorMtC6UT1ePWD16IX8hh92m3piNHLwdDEKrwbstu8GZorM29vXSF0pjotlE4CC0CvZSzItVM9gx2EanmUlkzbtbEhO5K0rSXOOOY+mfo89YuIlxDqsBk3WXSgCo8oC254LyBeYa1iVIOUnbrubYgUk3dno3GHB6t3X32x+IREm9jq5S3jJ8faHNwNZXi/ZCcu6UXZUSczbxqy67cF7Pnd2sRML2+JahCTUerZAFUauc9jxBTdxdpLEyp1b+/r71qNwcPdj98W9Pb2g+qFLTvFmO5w1SM8Ddu061n2xDZ7f5tIF7cpLMPr5W31Dpc0t24k+PSOVUiLjhmTJq03tl6sAr+9cL0P8dB6eVu4tm/rzWrv+Stj6D6qy8FNtXrfjn1K7Ps1tmn18jb3EfqxOcvF33pGfGZ4vbxtBCozKYhsbu6K/aXoPMTsfe97Lfz1ireOyVg2e7dX+Fxr+3XWqOOCb7od+ZtAPcHN8wqrV7J5nE689cxnf/L3OajzXhP7+uKc3qjD7VOBF72/D1yHjets75Vu/tZP2fjBWU+q8NH+JAyVnYfUufuel8+9ExA/11oScrnKYYMmAptolSQkWsT0sEGxSEwJyvaCS1wqVNpAHLMJQ0JiH0PIWGLcjZGfsjuAkNaC2H+HIEIIab/EdgwluTK4Mc3oGW6jy4SBIq0GZygmSbuiAU+uk52dxhnDJLkwh+DxFYtSaN6jOhFRTBJCrkRooQwTWihbhq/LW8ZU2iyWhLQn/Lm1pfXR4UomhJCrBwrKMKGgJIQQQghxQpc3IYQQQgiJCArKdoS0cBJCCCGExBoUlIQQQgghJCIoKAkhhBBCSERQUBJCCCGEkIigoLwqGYdFHuOb1q8tHKfTbHi/f/0aFk3QaSEy55lI1gvwje0Ijiccgh5Dc2XW5szB0+JYni7Ui2EybuFrxrl6Fokz8yV4WRBCCCFOYktQJo7CpFn3Y5o55Y1Cgs4ySR9tyxfT8G46g4TMuIXzkIt9WFZQgHuXbtWpJkI43ZcL7F2GgoJ7sWSzTm5lVjwiv7G9DPs65PuKJPN73OtqkHuffwEUMYVPIz/jOIoDfOc7eJkFQYnhp4X8iy22Lr1XfdO8uDYX8/wI5KDXgxBCCHERW4KyYSfeX/kKivS0pz4bk0Zn6kwgYcBMDMc2b37Rtmqkj82D7evfJAT6dIpD05Et8C+L+iAlsQlHdoYhmmwYQqSlQnQrthxpQlrnAJLRcwDHE1N8vmkcDcZ1TgMqD8BXShoEL7P2y4qDxxHXKVCJNnM9CCGEEE1Mu7wb6y/pOYP4pARcqr+glwSXLsL5C3LZ8Lql5RR7Frm2x3BJr3k4F3HojXxv2Tjd9l7Xs588ZS3WbvZmy9Us/wAubEIIIaQ1iWFBmYr0ngmoPnFUL0PMVyNh4DTt5k5F5phsJFSVo1rlksuK6ZZ+dh+adNLVzQos8JaHdqWryWa9FSJwGpbr9AIs2wuHS1+52WuLvfkFBQv8W1ClmBTCtWad+E3hkivOikoIIST2iT1B2S1Px0dOQzbKUHZKp0tOlaBo5TZgrJHf/fMiFO2wBCcJhXHo3gGoORtAdkzojjTU4GQbxU662Xq2BnFZ4wNY2SpQ19Abg1ohpk+5tM9V6CU3zZRZSxEifIEtHnPrziNocrv0MwYFt/Z2tsTkAo9OC4eKOjQF2Ufw60EIIYQYxJ6gVKJRx0iWJmPSLFuMpBKbN+NiiczfhsaB0/x23CH+MXruzgNe9Sc+tIv2PmB5IEtYW+BZgIItKZgvjsW3N/VWLClchrrxzbh/w8B0OQ866L+zTfAyixSXS1u5xy1kx5niSstd7q93ee9hcp3jONDSY5OW5WfrcJvch78e3UGvByGEEGLwrV69bkSg6bJzSrqz45GQKBdSkZmTjksH38fRBrl8FHuEqKxOzEY2e3qHhNFhZjlwn7/hZrSL9lVg3mWMgVQCb+AB5eL1FXhS9BriLqD7N0zM3s4HBvoXTMHLLDLmPDPf23NcubT9hAsY+5dTMWqGzfc5xuPrCgzR2dLYycKn9UuE2Iff3u3BrgchhBBiENOdchIG3Iz0hpOoVgLSICEpVc8JuvWFkJi4yJ45YbAVJ2sRuOfu5pOoQRq6t+J4j80R2PUsaR13fMW5pqC9nYOWWTBUeQZx09ee1DGPxnBNdgulE+nu17MuVjyyTMjSXMxv6ZiR3mPwT/DrQQghhMSaoPTGTxrTpJ4n8X7JTt2T+wKOlmxDdY+x1m/GxqOsZJW2WJLLibe3sqNXM3t7K8vvuuPoPdVwW9t7cq8o3oemjHydPh8pR+wWSncP7/mqg45/K6EMBSjGcbUtljkhhJC255oRI8Z9o+d9aGysFVOjXiKS6dOnY+3atXopPHr37o3jx4/rpfCJdH0TGRd427llAcSJdCvfhrpn225QcztSmM7D8iDHNggHWiHGU+53fqf3/Lp9JcHLrB0jXd7SpR3gvINfD0IIIcQgpl3epHUI7t6VrtU4pLTG6OHNMg7js+IC96YuHITeDXXiCKOP7M2MDt0DxiEGL7P2y5yBvYP2bg96PQghhBANBeVVyNaly9Un9aQr1W9P6lf3IU25aFv329l2jN7URieVInePZXPQ7qm9cXxLK42z6FmgPkMoezP76+0cvMzaH2aIgvzc5Ht+rI9BrwchhBDigi7vMLkSXN6EEEIIIdGEFkpCCCGEEBIRFJTtCFonCSGEEBKLUFASQgghhJCIoKAkhBBCCCERQUFJCCGEEEIigoLySqbjSMwonIxMvYiuT2DAYyUYoabnoT6R7sNcZMj8h57A9TqFEEIIISQYsSUoE0dhku3Ti9PyRiFBZ5mkjw6eTywyc7OBw3txVC/j9OM4tDgPu1/eCw4GRQghhJBoEVuCsmEn3l/5Cor0tKc+G5NGe+1rSBgwE8OTyry/cedfdbgtkA4y0adbNUp3X9DLofISKqXofO5xfKVTDFIxcuYMjOyoFwkhhBBCNDHt8m6sv6TnJJnIHpiA6tKdMFOrD5bhUo++SNfLVxVZk1F4dzYad2ywLJA2UkfkIP1Uhd+8QFx/12rtDhfT7Lk61eQCdpU2IvvuQkzO0kmEEEIIIYIYFpSpSO8pBOQJuyS6hIt2jdlwAY2IR4L/YMArltQRM1A4Oh5lb3mw4YhOdJCJYf2Bsn3hyEngq7dnYPfiPHy8p0mnuDiyAZ63yhA/uhAzRqTqREIIIYRc7cSeoOyWp2MkpyEbZSg7pdNxFFVVCcgeaDl400ePveqsk5l3FiK/fyO2e1Zj13md6CarD9IbT+KzQPmRcH4XVnu2o7F/PgrvvIrDDQghhBDiJfYE5akSbwxlUWkyJs3K84rG6h3bUN1jrLdTTo8TYhmNuNSgf3DFI+Mi9WxAUjEyJx3VpbsQbvRk2HTLYUwlIYQQQmI7hhKnyoVgtLu0j2KPKTZlp5xLqYhvuHgV9Vg+ig0eD4oPx2NMYYAOMh1vRPf4alT4dYVHAdURaAziDxfDE8xKSgghhJCrhpgWlAkDbkZ6w0lU+7NAyiGG8rrj5Hark87VwoXdq+HZ4b+DjM9QQdFEiknVEciD1WH3HieEEELIlco1I0aM+0bP+9DYWCumNrT/yfjJsbaoyIYyvF9iCUY5bNCkgebIk9XYs7JE/N+2TJ8+HWvXrtVL4dG7d28cP35cL0UBJfCSUeoxe3pnYnJhDi6+5d9yKHtxDx4ep5dMylG2+EE0YCI6P/RLZCTrZJOKNdj9+ktiRg4bNBHYRKskIYQQQpxc06VLl4CCMjU1tW0FZTsgpgSlC9n7Oz+pFJ53WsU+SQghhBDil9iOoSRhoVzhFJOEEEIIaWMoKAkhhBBCSERQUBJCCCGEkIigoCSEEEIIIRFBQdmGtGaHHEIIIYSQywUFJSGEEEIIiQgKSkIIIYQQEhEUlIQQQgghJCIoKGOczDsLMWNEql5qjrnIeKwEI9S0Gp276mRCCCGEkFYkZgVl+uj7MW3W/RjeTSdo5OcXZbox5cH2ocYrj44jkdOtGqUhfzf7JVQuzsPuxWtwVqcQQgghhLQ2sSkou+VheFI1qhv0solInzSwEXtWvoIiMe2pSsfwvFEwv+7dHpGfSyy8M1MvOUnt2x04vFd/pzsayG99Txb/E0IIIYREjxgUlJkYPjYd1aV7cFGnGKQiMycdlw7uQbVOqT5YhkuJ3ZGeqBPaGdKdnd+/Edv9fi4xE8P6AyfL7dZJ6dJ2urITZ5dgwF0T9VJzHMXew/EYUzgDIzvqJEIIIYSQCIk5QZk+eizSq7Zhzymd4CUVyYmXcLLKFFhCeOZlI0H8S253JspUjJxZiDFJZSj2bPBrgUwdkYP0U6XYdV4nRAn1ve8djci+uxCTs3QiIYQQQkgExJagTByF7B7V2LMjmJM3FZl5Mn5yLLBNur2B+ORQO63EAtLtnI/s+u3wrNoF/9GRqbixZwKqT0TP2e3gyAZ43ipD/OhwOvwQQgghhPgnhgSlEIpjstG4rcTr0vYlAdl505BcqmMoT6UiIQlovBhqp5UYIKtP8x2JsoYhG2XYe0QvtyIJ/YcxppIQQgghERE7gjIxE90TgfSxZg/uacg2l1XHmwu42ABcOlhkc4cbbvCLl/Rie0BaBz3FKEsag8KZI8UZ+JLZKx2XPv8sgPUyCmRNRuHdQrzv8Ihj8e9yJ4QQQggJldgRlA078b7uvW1MRSgTArJ6m5gv2YlLQl5Vf34JCQMnIVN3wkkYcDPSG0769gaPeS5g1yoPttdnI9/d67rZoYLicEMXY+76u1Yju48xHzJSTI6OR9lbHmxoAwsoIYQQQq58Yq5TTjAuHVqF9w8C2SqG8n5M6nkS7yux2T45+o4HxbLXtW3YIDlUUMKpigBWw5dQub4cnacYg5cP7rgBZRU6S5L7vB7UvACdhfDM+Il7gPNMTB4NbPesjnpnH0IIIYRcvVzTpUuXb/S8D6mpqWhsbNRLRDJ9+nSsXbtWL0Ub2WEnBxffouAjhBBCSPuhXVkor3yOYgOth4QQQghpZ1BQEkIIIYSQiKCgJIQQQgghEUFBSQghhBBCIoKdcsLkhhtu0HOEEEIIIURCCyUhhBBCCIkIWijDxLRQfvHFF+ovIYQQQsjVDi2UhBBCCCEkIigoW51UjJxZiMlZetFN1ycw4LHnob8mqZmLDPnFm4eewPU6hRBCCCEkVolZQTnnmTVYs2YNni7UCTaMvNewaIJOiGWyhiEbZdjL72YTQggh5AolNgVl4dPI73Acxxv0spc5eFqIzEHn9qFJp1x+5OcSZ2BkR73oIrNXOqpLd+GCXg6Nl1C5OA+7n3scX+mU0JDW0MDHQgghhBDSGsSgoBSicWpvHN9ShDqdYjLnmdtQ92wBFuzUCZebjiMxo3AM4g9v8v+5RJGf060aFW7rZO7zGCFd2nL6yTDE62TJ9XettvJmz9WpBirP5QZ3pl3ArtJGZN8dxMVOCCGEEBJlYk5QznkmH70ri7HAoxNsrHjkXizZrBcuN1mTUXh3Nhp3eLB6t3/7Y2ZuNnB4L47qZYWMmZzSBZUv52G3tEK+vBf2fvRfvT1DpX+8x9cG+9WBw2hM7o/krjpBcH3HODQe3WRZMo9sgOetMsSPLsSMEak6kRBCCCGk9YgtQTlhEW7LOI7iR1bohNgkJXcqCkfHo+wtDzYEjI3MRJ9ul3Cy3Ck2EycOA/b8B86e1gnhcPpxVFXEoeOgiTphLjr0KUfV25v0sub8Lqz2bEdj/3wU3pmpEwkhhBBCWocYEpTjsOi+XNSsW4AYl5NCKNqd1P5JHZGD9FOl/l3hEdBQVo74zImGizt3MDpXfAyfUFM73XIYU0kIIYSQViV2BOWE8chKBHpPNXp3r1kzH7nmsmeRkJuxQh0+eus/4dkRLFYxFTf2TED1CYezOzrs+xhntds7Mbsvzpa9pDNseGM7i+HxrI66qCWEEEIIsRM7gnLzEtxbUIAC77QM+xqA4+vEfOESbNU/ixmCxSoGGSroq/NNloVRjjfp6pTTPC+htiION3SZiw4d9qJ6n042kWKymdhOQgghhJBoElsxlM0wbuFrhvXy4VzEiX+5D1/m8Si9sYoTHW5lOVTQpc8/8ztU0Fdv/wcqMQyDVU/uyfji5TU4q/OAiej8kNHDe/DwOKBPgd/e3g2b9iJuSgHi7J1xFKkYObE7TgaN7SSEEEIIiS78lneYNPstb2UhTEapZ4OzdzchhBBCyBUKBWWYNCsoCSGEEEKuMtqVy5sQQgghhMQetFCGiWmhJIQQQgghBrRQEkIIIYSQiKCFkhBCCCGERAQtlIQQQgghJCIoKAkhhBBCSERQUBJCCCGEkIigoCSEEEIIIRFBQUkIIYQQQiKCgpIQQgghhEQEBSUhhBBCCIkICkpCCCGEEBIRFJSEEEIIISQiKCgJIYQQQkhEUFASQgghhJCIoKAkhBBCCCERQUFJCCGEEEIigoKSEEIIIYREBAUlIYQQQgiJCApKQgghhBASEf//duuYAAAAAGGQ/VMbYi+kQCgBAEiEEgCARCgBAEiEEgCARCgBAEiEEgCARCgBAEiEEgCARCgBAEiEEgCARCgBAEiEEgCARCgBAEiEEgCARCgBAEiEEgCARCgBAEiEEgCARCgBAEiEEgCARCgBAEiEEgCARCgBAEiEEgCARCgBAEiEEgCARCgBAEiEEgCARCgBAEiEEgCARCgBAEiEEgCARCgBAEiEEgCARCgBAEiEEgCARCgBAEiEEgCARCgBAEiEEgCARCgBAEiEEgCARCgBAEiEEgCARCgBAEiEEgCARCgBAEiEEgCARCgBAEiEEgCARCgBAEiEEgCARCgBAEiEEgCARCgBAEiEEgCARCgBAEiEEgCARCgBAEiEEgCARCgBAEiEEgCARCgBAEiEEgCARCgBAEiEEgCARCgBAEiEEgCARCgBAEiEEgCARCgBAEiEEgCARCgBAEiEEgCARCgBAEiEEgCARCgBAEiEEgCARCgBAEiEEgCARCgBAEiEEgCARCgBAEiEEgCAYDvYgjOFYBUXAwAAAABJRU5ErkJggg==;" vertex="1" parent="1">
                    <mxGeometry x="319" y="1421" width="986.7" height="746" as="geometry"/>
                </mxCell>
                <mxCell id="56" value="" style="rounded=1;whiteSpace=wrap;html=1;fontSize=31;fillColor=none;strokeColor=#FFFF00;strokeWidth=3;" parent="1" vertex="1">
                    <mxGeometry x="519" y="1872" width="469" height="30" as="geometry"/>
                </mxCell>
                <mxCell id="59" style="edgeStyle=orthogonalEdgeStyle;html=1;strokeColor=#FFFF00;strokeWidth=2;fontSize=31;fontColor=#000000;elbow=vertical;" parent="1" source="52" target="56" edge="1">
                    <mxGeometry relative="1" as="geometry">
                        <Array as="points">
                            <mxPoint x="79" y="1407"/>
                            <mxPoint x="286" y="1407"/>
                            <mxPoint x="286" y="1883"/>
                        </Array>
                    </mxGeometry>
                </mxCell>
                <mxCell id="63" value="&lt;p style=&quot;line-height: 89%;&quot;&gt;&lt;span style=&quot;font-size: 25px;&quot;&gt;Llamado de la variable como signal para el recorrido del ngFor&lt;/span&gt;&lt;/p&gt;" style="rounded=1;whiteSpace=wrap;html=1;fontSize=31;fillColor=none;strokeColor=#FF0000;strokeWidth=3;" parent="1" vertex="1">
                    <mxGeometry x="1036" y="1961" width="437" height="103" as="geometry"/>
                </mxCell>
                <mxCell id="70" style="edgeStyle=orthogonalEdgeStyle;html=1;strokeColor=#FF0000;strokeWidth=2;" edge="1" parent="1" source="69" target="63">
                    <mxGeometry relative="1" as="geometry">
                        <Array as="points">
                            <mxPoint x="798" y="1979"/>
                            <mxPoint x="946" y="1979"/>
                            <mxPoint x="946" y="2019"/>
                        </Array>
                    </mxGeometry>
                </mxCell>
                <mxCell id="69" value="" style="ellipse;whiteSpace=wrap;html=1;strokeColor=#FF0000;fillColor=none;strokeWidth=2;" vertex="1" parent="1">
                    <mxGeometry x="739" y="1873" width="118" height="32" as="geometry"/>
                </mxCell>
            </root>
        </mxGraphModel>
    </diagram>
</mxfile>